<svg width="546" height="58" viewBox="0 0 546 58" fill="none" xmlns="http://www.w3.org/2000/svg">
<g filter="url(#filter0_d)">
<path d="M28.4 47.632C24.2613 47.632 20.4853 46.672 17.072 44.752C13.6587 42.7893 10.9493 40.08 8.944 36.624C6.98133 33.1253 6 29.2 6 24.848C6 20.496 6.98133 16.592 8.944 13.136C10.9493 9.63733 13.6587 6.928 17.072 5.008C20.4853 3.04533 24.2613 2.064 28.4 2.064C32.5813 2.064 36.3787 3.04533 39.792 5.008C43.2053 6.928 45.8933 9.616 47.856 13.072C49.8187 16.528 50.8 20.4533 50.8 24.848C50.8 29.2427 49.8187 33.168 47.856 36.624C45.8933 40.08 43.2053 42.7893 39.792 44.752C36.3787 46.672 32.5813 47.632 28.4 47.632ZM28.4 42.576C31.5147 42.576 34.3093 41.8507 36.784 40.4C39.3013 38.9493 41.264 36.88 42.672 34.192C44.1227 31.504 44.848 28.3893 44.848 24.848C44.848 21.264 44.1227 18.1493 42.672 15.504C41.264 12.816 39.3227 10.7467 36.848 9.296C34.3733 7.84533 31.5573 7.12 28.4 7.12C25.2427 7.12 22.4267 7.84533 19.952 9.296C17.4773 10.7467 15.5147 12.816 14.064 15.504C12.656 18.1493 11.952 21.264 11.952 24.848C11.952 28.3893 12.656 31.504 14.064 34.192C15.5147 36.88 17.4773 38.9493 19.952 40.4C22.4693 41.8507 25.2853 42.576 28.4 42.576Z" fill="url(#paint0_linear)" style="mix-blend-mode:soft-light"/>
<path d="M83.2565 47.184L72.6325 28.944H65.5925V47.184H59.7685V2.576H74.1685C77.5392 2.576 80.3765 3.152 82.6805 4.304C85.0272 5.456 86.7765 7.01333 87.9285 8.976C89.0805 10.9387 89.6565 13.1787 89.6565 15.696C89.6565 18.768 88.7605 21.4773 86.9685 23.824C85.2192 26.1707 82.5738 27.728 79.0325 28.496L90.2325 47.184H83.2565ZM65.5925 24.272H74.1685C77.3258 24.272 79.6938 23.504 81.2725 21.968C82.8512 20.3893 83.6405 18.2987 83.6405 15.696C83.6405 13.0507 82.8512 11.0027 81.2725 9.552C79.7365 8.10133 77.3685 7.376 74.1685 7.376H65.5925V24.272Z" fill="url(#paint1_linear)" style="mix-blend-mode:soft-light"/>
<path d="M127.442 2.576V7.312H115.282V47.184H109.458V7.312H97.234V2.576H127.442Z" fill="url(#paint2_linear)" style="mix-blend-mode:soft-light"/>
<path d="M170.259 2.576V47.184H164.435V26.96H141.715V47.184H135.891V2.576H141.715V22.16H164.435V2.576H170.259Z" fill="url(#paint3_linear)" style="mix-blend-mode:soft-light"/>
<path d="M201.707 47.632C197.569 47.632 193.793 46.672 190.38 44.752C186.966 42.7893 184.257 40.08 182.251 36.624C180.289 33.1253 179.307 29.2 179.307 24.848C179.307 20.496 180.289 16.592 182.251 13.136C184.257 9.63733 186.966 6.928 190.38 5.008C193.793 3.04533 197.569 2.064 201.707 2.064C205.889 2.064 209.686 3.04533 213.1 5.008C216.513 6.928 219.201 9.616 221.163 13.072C223.126 16.528 224.107 20.4533 224.107 24.848C224.107 29.2427 223.126 33.168 221.163 36.624C219.201 40.08 216.513 42.7893 213.1 44.752C209.686 46.672 205.889 47.632 201.707 47.632ZM201.707 42.576C204.822 42.576 207.617 41.8507 210.091 40.4C212.609 38.9493 214.571 36.88 215.979 34.192C217.43 31.504 218.156 28.3893 218.156 24.848C218.156 21.264 217.43 18.1493 215.979 15.504C214.571 12.816 212.63 10.7467 210.156 9.296C207.681 7.84533 204.865 7.12 201.707 7.12C198.55 7.12 195.734 7.84533 193.259 9.296C190.785 10.7467 188.822 12.816 187.371 15.504C185.963 18.1493 185.259 21.264 185.259 24.848C185.259 28.3893 185.963 31.504 187.371 34.192C188.822 36.88 190.785 38.9493 193.259 40.4C195.777 41.8507 198.593 42.576 201.707 42.576Z" fill="url(#paint4_linear)" style="mix-blend-mode:soft-light"/>
<path d="M249.242 24.848C249.242 20.496 250.224 16.592 252.186 13.136C254.149 9.63733 256.816 6.90667 260.186 4.944C263.6 2.98133 267.376 2 271.514 2C276.378 2 280.624 3.17333 284.25 5.52C287.877 7.86667 290.522 11.1947 292.186 15.504H285.21C283.973 12.816 282.181 10.7467 279.835 9.296C277.531 7.84533 274.757 7.12 271.514 7.12C268.4 7.12 265.605 7.84533 263.13 9.296C260.656 10.7467 258.714 12.816 257.306 15.504C255.898 18.1493 255.194 21.264 255.194 24.848C255.194 28.3893 255.898 31.504 257.306 34.192C258.714 36.8373 260.656 38.8853 263.13 40.336C265.605 41.7867 268.4 42.512 271.514 42.512C274.757 42.512 277.531 41.808 279.835 40.4C282.181 38.9493 283.973 36.88 285.21 34.192H292.186C290.522 38.4587 287.877 41.7653 284.25 44.112C280.624 46.416 276.378 47.568 271.514 47.568C267.376 47.568 263.6 46.608 260.186 44.688C256.816 42.7253 254.149 40.016 252.186 36.56C250.224 33.104 249.242 29.2 249.242 24.848Z" fill="url(#paint5_linear)" style="mix-blend-mode:soft-light"/>
<path d="M322.36 47.632C318.221 47.632 314.445 46.672 311.032 44.752C307.619 42.7893 304.909 40.08 302.904 36.624C300.941 33.1253 299.96 29.2 299.96 24.848C299.96 20.496 300.941 16.592 302.904 13.136C304.909 9.63733 307.619 6.928 311.032 5.008C314.445 3.04533 318.221 2.064 322.36 2.064C326.541 2.064 330.339 3.04533 333.752 5.008C337.165 6.928 339.853 9.616 341.816 13.072C343.779 16.528 344.76 20.4533 344.76 24.848C344.76 29.2427 343.779 33.168 341.816 36.624C339.853 40.08 337.165 42.7893 333.752 44.752C330.339 46.672 326.541 47.632 322.36 47.632ZM322.36 42.576C325.475 42.576 328.269 41.8507 330.744 40.4C333.261 38.9493 335.224 36.88 336.632 34.192C338.083 31.504 338.808 28.3893 338.808 24.848C338.808 21.264 338.083 18.1493 336.632 15.504C335.224 12.816 333.283 10.7467 330.808 9.296C328.333 7.84533 325.517 7.12 322.36 7.12C319.203 7.12 316.387 7.84533 313.912 9.296C311.437 10.7467 309.475 12.816 308.024 15.504C306.616 18.1493 305.912 21.264 305.912 24.848C305.912 28.3893 306.616 31.504 308.024 34.192C309.475 36.88 311.437 38.9493 313.912 40.4C316.429 41.8507 319.245 42.576 322.36 42.576Z" fill="url(#paint6_linear)" style="mix-blend-mode:soft-light"/>
<path d="M388.8 47.184H382.977L359.552 11.664V47.184H353.728V2.512H359.552L382.977 37.968V2.512H388.8V47.184Z" fill="url(#paint7_linear)" style="mix-blend-mode:soft-light"/>
<path d="M414.152 47.632C411.208 47.632 408.563 47.12 406.216 46.096C403.913 45.0293 402.099 43.5787 400.776 41.744C399.454 39.8667 398.771 37.712 398.728 35.28H404.936C405.15 37.3707 406.003 39.1413 407.496 40.592C409.033 42 411.251 42.704 414.152 42.704C416.926 42.704 419.102 42.0213 420.68 40.656C422.302 39.248 423.112 37.456 423.112 35.28C423.112 33.5733 422.643 32.1867 421.704 31.12C420.766 30.0533 419.592 29.2427 418.184 28.688C416.776 28.1333 414.878 27.536 412.488 26.896C409.544 26.128 407.176 25.36 405.384 24.592C403.635 23.824 402.12 22.6293 400.84 21.008C399.603 19.344 398.984 17.1253 398.984 14.352C398.984 11.92 399.603 9.76533 400.84 7.888C402.078 6.01067 403.806 4.56 406.024 3.536C408.286 2.512 410.867 2 413.768 2C417.95 2 421.363 3.04533 424.008 5.136C426.696 7.22667 428.211 10 428.552 13.456H422.152C421.939 11.7493 421.043 10.256 419.464 8.976C417.886 7.65333 415.795 6.992 413.193 6.992C410.76 6.992 408.776 7.632 407.24 8.912C405.704 10.1493 404.936 11.8987 404.936 14.16C404.936 15.7813 405.384 17.104 406.28 18.128C407.219 19.152 408.35 19.9413 409.672 20.496C411.038 21.008 412.936 21.6053 415.368 22.288C418.312 23.0987 420.681 23.9093 422.473 24.72C424.264 25.488 425.8 26.704 427.08 28.368C428.36 29.9893 429 32.208 429 35.024C429 37.2 428.424 39.248 427.272 41.168C426.12 43.088 424.414 44.6453 422.152 45.84C419.891 47.0347 417.224 47.632 414.152 47.632Z" fill="url(#paint8_linear)" style="mix-blend-mode:soft-light"/>
<path d="M444.547 2.576V30.8C444.547 34.768 445.507 37.712 447.427 39.632C449.39 41.552 452.099 42.512 455.555 42.512C458.968 42.512 461.635 41.552 463.555 39.632C465.518 37.712 466.499 34.768 466.499 30.8V2.576H472.323V30.736C472.323 34.448 471.576 37.584 470.083 40.144C468.59 42.6613 466.563 44.5387 464.003 45.776C461.486 47.0133 458.648 47.632 455.491 47.632C452.334 47.632 449.475 47.0133 446.915 45.776C444.398 44.5387 442.392 42.6613 440.899 40.144C439.448 37.584 438.723 34.448 438.723 30.736V2.576H444.547Z" fill="url(#paint9_linear)" style="mix-blend-mode:soft-light"/>
<path d="M489.142 42.448H504.758V47.184H483.318V2.576H489.142V42.448Z" fill="url(#paint10_linear)" style="mix-blend-mode:soft-light"/>
<path d="M539.68 2.576V7.312H527.519V47.184H521.695V7.312H509.471V2.576H539.68Z" fill="url(#paint11_linear)" style="mix-blend-mode:soft-light"/>
<path d="M28.4 47.632C24.2613 47.632 20.4853 46.672 17.072 44.752C13.6587 42.7893 10.9493 40.08 8.944 36.624C6.98133 33.1253 6 29.2 6 24.848C6 20.496 6.98133 16.592 8.944 13.136C10.9493 9.63733 13.6587 6.928 17.072 5.008C20.4853 3.04533 24.2613 2.064 28.4 2.064C32.5813 2.064 36.3787 3.04533 39.792 5.008C43.2053 6.928 45.8933 9.616 47.856 13.072C49.8187 16.528 50.8 20.4533 50.8 24.848C50.8 29.2427 49.8187 33.168 47.856 36.624C45.8933 40.08 43.2053 42.7893 39.792 44.752C36.3787 46.672 32.5813 47.632 28.4 47.632ZM28.4 42.576C31.5147 42.576 34.3093 41.8507 36.784 40.4C39.3013 38.9493 41.264 36.88 42.672 34.192C44.1227 31.504 44.848 28.3893 44.848 24.848C44.848 21.264 44.1227 18.1493 42.672 15.504C41.264 12.816 39.3227 10.7467 36.848 9.296C34.3733 7.84533 31.5573 7.12 28.4 7.12C25.2427 7.12 22.4267 7.84533 19.952 9.296C17.4773 10.7467 15.5147 12.816 14.064 15.504C12.656 18.1493 11.952 21.264 11.952 24.848C11.952 28.3893 12.656 31.504 14.064 34.192C15.5147 36.88 17.4773 38.9493 19.952 40.4C22.4693 41.8507 25.2853 42.576 28.4 42.576Z" stroke="url(#paint12_linear)" stroke-width="3"/>
<path d="M83.2565 47.184L72.6325 28.944H65.5925V47.184H59.7685V2.576H74.1685C77.5392 2.576 80.3765 3.152 82.6805 4.304C85.0272 5.456 86.7765 7.01333 87.9285 8.976C89.0805 10.9387 89.6565 13.1787 89.6565 15.696C89.6565 18.768 88.7605 21.4773 86.9685 23.824C85.2192 26.1707 82.5738 27.728 79.0325 28.496L90.2325 47.184H83.2565ZM65.5925 24.272H74.1685C77.3258 24.272 79.6938 23.504 81.2725 21.968C82.8512 20.3893 83.6405 18.2987 83.6405 15.696C83.6405 13.0507 82.8512 11.0027 81.2725 9.552C79.7365 8.10133 77.3685 7.376 74.1685 7.376H65.5925V24.272Z" stroke="url(#paint13_linear)" stroke-width="3"/>
<path d="M127.442 2.576V7.312H115.282V47.184H109.458V7.312H97.234V2.576H127.442Z" stroke="url(#paint14_linear)" stroke-width="3"/>
<path d="M170.259 2.576V47.184H164.435V26.96H141.715V47.184H135.891V2.576H141.715V22.16H164.435V2.576H170.259Z" stroke="url(#paint15_linear)" stroke-width="3"/>
<path d="M201.707 47.632C197.569 47.632 193.793 46.672 190.38 44.752C186.966 42.7893 184.257 40.08 182.251 36.624C180.289 33.1253 179.307 29.2 179.307 24.848C179.307 20.496 180.289 16.592 182.251 13.136C184.257 9.63733 186.966 6.928 190.38 5.008C193.793 3.04533 197.569 2.064 201.707 2.064C205.889 2.064 209.686 3.04533 213.1 5.008C216.513 6.928 219.201 9.616 221.163 13.072C223.126 16.528 224.107 20.4533 224.107 24.848C224.107 29.2427 223.126 33.168 221.163 36.624C219.201 40.08 216.513 42.7893 213.1 44.752C209.686 46.672 205.889 47.632 201.707 47.632ZM201.707 42.576C204.822 42.576 207.617 41.8507 210.091 40.4C212.609 38.9493 214.571 36.88 215.979 34.192C217.43 31.504 218.156 28.3893 218.156 24.848C218.156 21.264 217.43 18.1493 215.979 15.504C214.571 12.816 212.63 10.7467 210.156 9.296C207.681 7.84533 204.865 7.12 201.707 7.12C198.55 7.12 195.734 7.84533 193.259 9.296C190.785 10.7467 188.822 12.816 187.371 15.504C185.963 18.1493 185.259 21.264 185.259 24.848C185.259 28.3893 185.963 31.504 187.371 34.192C188.822 36.88 190.785 38.9493 193.259 40.4C195.777 41.8507 198.593 42.576 201.707 42.576Z" stroke="url(#paint16_linear)" stroke-width="3"/>
<path d="M249.242 24.848C249.242 20.496 250.224 16.592 252.186 13.136C254.149 9.63733 256.816 6.90667 260.186 4.944C263.6 2.98133 267.376 2 271.514 2C276.378 2 280.624 3.17333 284.25 5.52C287.877 7.86667 290.522 11.1947 292.186 15.504H285.21C283.973 12.816 282.181 10.7467 279.835 9.296C277.531 7.84533 274.757 7.12 271.514 7.12C268.4 7.12 265.605 7.84533 263.13 9.296C260.656 10.7467 258.714 12.816 257.306 15.504C255.898 18.1493 255.194 21.264 255.194 24.848C255.194 28.3893 255.898 31.504 257.306 34.192C258.714 36.8373 260.656 38.8853 263.13 40.336C265.605 41.7867 268.4 42.512 271.514 42.512C274.757 42.512 277.531 41.808 279.835 40.4C282.181 38.9493 283.973 36.88 285.21 34.192H292.186C290.522 38.4587 287.877 41.7653 284.25 44.112C280.624 46.416 276.378 47.568 271.514 47.568C267.376 47.568 263.6 46.608 260.186 44.688C256.816 42.7253 254.149 40.016 252.186 36.56C250.224 33.104 249.242 29.2 249.242 24.848Z" stroke="url(#paint17_linear)" stroke-width="3"/>
<path d="M322.36 47.632C318.221 47.632 314.445 46.672 311.032 44.752C307.619 42.7893 304.909 40.08 302.904 36.624C300.941 33.1253 299.96 29.2 299.96 24.848C299.96 20.496 300.941 16.592 302.904 13.136C304.909 9.63733 307.619 6.928 311.032 5.008C314.445 3.04533 318.221 2.064 322.36 2.064C326.541 2.064 330.339 3.04533 333.752 5.008C337.165 6.928 339.853 9.616 341.816 13.072C343.779 16.528 344.76 20.4533 344.76 24.848C344.76 29.2427 343.779 33.168 341.816 36.624C339.853 40.08 337.165 42.7893 333.752 44.752C330.339 46.672 326.541 47.632 322.36 47.632ZM322.36 42.576C325.475 42.576 328.269 41.8507 330.744 40.4C333.261 38.9493 335.224 36.88 336.632 34.192C338.083 31.504 338.808 28.3893 338.808 24.848C338.808 21.264 338.083 18.1493 336.632 15.504C335.224 12.816 333.283 10.7467 330.808 9.296C328.333 7.84533 325.517 7.12 322.36 7.12C319.203 7.12 316.387 7.84533 313.912 9.296C311.437 10.7467 309.475 12.816 308.024 15.504C306.616 18.1493 305.912 21.264 305.912 24.848C305.912 28.3893 306.616 31.504 308.024 34.192C309.475 36.88 311.437 38.9493 313.912 40.4C316.429 41.8507 319.245 42.576 322.36 42.576Z" stroke="url(#paint18_linear)" stroke-width="3"/>
<path d="M388.8 47.184H382.977L359.552 11.664V47.184H353.728V2.512H359.552L382.977 37.968V2.512H388.8V47.184Z" stroke="url(#paint19_linear)" stroke-width="3"/>
<path d="M414.152 47.632C411.208 47.632 408.563 47.12 406.216 46.096C403.913 45.0293 402.099 43.5787 400.776 41.744C399.454 39.8667 398.771 37.712 398.728 35.28H404.936C405.15 37.3707 406.003 39.1413 407.496 40.592C409.033 42 411.251 42.704 414.152 42.704C416.926 42.704 419.102 42.0213 420.68 40.656C422.302 39.248 423.112 37.456 423.112 35.28C423.112 33.5733 422.643 32.1867 421.704 31.12C420.766 30.0533 419.592 29.2427 418.184 28.688C416.776 28.1333 414.878 27.536 412.488 26.896C409.544 26.128 407.176 25.36 405.384 24.592C403.635 23.824 402.12 22.6293 400.84 21.008C399.603 19.344 398.984 17.1253 398.984 14.352C398.984 11.92 399.603 9.76533 400.84 7.888C402.078 6.01067 403.806 4.56 406.024 3.536C408.286 2.512 410.867 2 413.768 2C417.95 2 421.363 3.04533 424.008 5.136C426.696 7.22667 428.211 10 428.552 13.456H422.152C421.939 11.7493 421.043 10.256 419.464 8.976C417.886 7.65333 415.795 6.992 413.193 6.992C410.76 6.992 408.776 7.632 407.24 8.912C405.704 10.1493 404.936 11.8987 404.936 14.16C404.936 15.7813 405.384 17.104 406.28 18.128C407.219 19.152 408.35 19.9413 409.672 20.496C411.038 21.008 412.936 21.6053 415.368 22.288C418.312 23.0987 420.681 23.9093 422.473 24.72C424.264 25.488 425.8 26.704 427.08 28.368C428.36 29.9893 429 32.208 429 35.024C429 37.2 428.424 39.248 427.272 41.168C426.12 43.088 424.414 44.6453 422.152 45.84C419.891 47.0347 417.224 47.632 414.152 47.632Z" stroke="url(#paint20_linear)" stroke-width="3"/>
<path d="M444.547 2.576V30.8C444.547 34.768 445.507 37.712 447.427 39.632C449.39 41.552 452.099 42.512 455.555 42.512C458.968 42.512 461.635 41.552 463.555 39.632C465.518 37.712 466.499 34.768 466.499 30.8V2.576H472.323V30.736C472.323 34.448 471.576 37.584 470.083 40.144C468.59 42.6613 466.563 44.5387 464.003 45.776C461.486 47.0133 458.648 47.632 455.491 47.632C452.334 47.632 449.475 47.0133 446.915 45.776C444.398 44.5387 442.392 42.6613 440.899 40.144C439.448 37.584 438.723 34.448 438.723 30.736V2.576H444.547Z" stroke="url(#paint21_linear)" stroke-width="3"/>
<path d="M489.142 42.448H504.758V47.184H483.318V2.576H489.142V42.448Z" stroke="url(#paint22_linear)" stroke-width="3"/>
<path d="M539.68 2.576V7.312H527.519V47.184H521.695V7.312H509.471V2.576H539.68Z" stroke="url(#paint23_linear)" stroke-width="3"/>
</g>
<defs>
<filter id="filter0_d" x="0.5" y="0.5" width="544.68" height="56.632" filterUnits="userSpaceOnUse" color-interpolation-filters="sRGB">
<feFlood flood-opacity="0" result="BackgroundImageFix"/>
<feColorMatrix in="SourceAlpha" type="matrix" values="0 0 0 0 0 0 0 0 0 0 0 0 0 0 0 0 0 0 127 0"/>
<feOffset dy="4"/>
<feGaussianBlur stdDeviation="2"/>
<feColorMatrix type="matrix" values="0 0 0 0 0 0 0 0 0 0 0 0 0 0 0 0 0 0 0.25 0"/>
<feBlend mode="normal" in2="BackgroundImageFix" result="effect1_dropShadow"/>
<feBlend mode="normal" in="SourceGraphic" in2="effect1_dropShadow" result="shape"/>
</filter>
<linearGradient id="paint0_linear" x1="271.584" y1="-22.816" x2="271.584" y2="73.184" gradientUnits="userSpaceOnUse">
<stop stop-color="#F50F0F"/>
<stop offset="0.0001" stop-color="white" stop-opacity="0.0416667"/>
<stop offset="0.0002" stop-color="#E5E5E5"/>
<stop offset="0.171875" stop-color="#F53030" stop-opacity="0.01"/>
<stop offset="0.197917" stop-color="#F31010" stop-opacity="0"/>
<stop offset="0.9999" stop-color="white" stop-opacity="0.0416667"/>
<stop offset="1" stop-color="#F31010" stop-opacity="0"/>
</linearGradient>
<linearGradient id="paint1_linear" x1="271.584" y1="-22.816" x2="271.584" y2="73.184" gradientUnits="userSpaceOnUse">
<stop stop-color="#F50F0F"/>
<stop offset="0.0001" stop-color="white" stop-opacity="0.0416667"/>
<stop offset="0.0002" stop-color="#E5E5E5"/>
<stop offset="0.171875" stop-color="#F53030" stop-opacity="0.01"/>
<stop offset="0.197917" stop-color="#F31010" stop-opacity="0"/>
<stop offset="0.9999" stop-color="white" stop-opacity="0.0416667"/>
<stop offset="1" stop-color="#F31010" stop-opacity="0"/>
</linearGradient>
<linearGradient id="paint2_linear" x1="271.584" y1="-22.816" x2="271.584" y2="73.184" gradientUnits="userSpaceOnUse">
<stop stop-color="#F50F0F"/>
<stop offset="0.0001" stop-color="white" stop-opacity="0.0416667"/>
<stop offset="0.0002" stop-color="#E5E5E5"/>
<stop offset="0.171875" stop-color="#F53030" stop-opacity="0.01"/>
<stop offset="0.197917" stop-color="#F31010" stop-opacity="0"/>
<stop offset="0.9999" stop-color="white" stop-opacity="0.0416667"/>
<stop offset="1" stop-color="#F31010" stop-opacity="0"/>
</linearGradient>
<linearGradient id="paint3_linear" x1="271.584" y1="-22.816" x2="271.584" y2="73.184" gradientUnits="userSpaceOnUse">
<stop stop-color="#F50F0F"/>
<stop offset="0.0001" stop-color="white" stop-opacity="0.0416667"/>
<stop offset="0.0002" stop-color="#E5E5E5"/>
<stop offset="0.171875" stop-color="#F53030" stop-opacity="0.01"/>
<stop offset="0.197917" stop-color="#F31010" stop-opacity="0"/>
<stop offset="0.9999" stop-color="white" stop-opacity="0.0416667"/>
<stop offset="1" stop-color="#F31010" stop-opacity="0"/>
</linearGradient>
<linearGradient id="paint4_linear" x1="271.584" y1="-22.816" x2="271.584" y2="73.184" gradientUnits="userSpaceOnUse">
<stop stop-color="#F50F0F"/>
<stop offset="0.0001" stop-color="white" stop-opacity="0.0416667"/>
<stop offset="0.0002" stop-color="#E5E5E5"/>
<stop offset="0.171875" stop-color="#F53030" stop-opacity="0.01"/>
<stop offset="0.197917" stop-color="#F31010" stop-opacity="0"/>
<stop offset="0.9999" stop-color="white" stop-opacity="0.0416667"/>
<stop offset="1" stop-color="#F31010" stop-opacity="0"/>
</linearGradient>
<linearGradient id="paint5_linear" x1="271.584" y1="-22.816" x2="271.584" y2="73.184" gradientUnits="userSpaceOnUse">
<stop stop-color="#F50F0F"/>
<stop offset="0.0001" stop-color="white" stop-opacity="0.0416667"/>
<stop offset="0.0002" stop-color="#E5E5E5"/>
<stop offset="0.171875" stop-color="#F53030" stop-opacity="0.01"/>
<stop offset="0.197917" stop-color="#F31010" stop-opacity="0"/>
<stop offset="0.9999" stop-color="white" stop-opacity="0.0416667"/>
<stop offset="1" stop-color="#F31010" stop-opacity="0"/>
</linearGradient>
<linearGradient id="paint6_linear" x1="271.584" y1="-22.816" x2="271.584" y2="73.184" gradientUnits="userSpaceOnUse">
<stop stop-color="#F50F0F"/>
<stop offset="0.0001" stop-color="white" stop-opacity="0.0416667"/>
<stop offset="0.0002" stop-color="#E5E5E5"/>
<stop offset="0.171875" stop-color="#F53030" stop-opacity="0.01"/>
<stop offset="0.197917" stop-color="#F31010" stop-opacity="0"/>
<stop offset="0.9999" stop-color="white" stop-opacity="0.0416667"/>
<stop offset="1" stop-color="#F31010" stop-opacity="0"/>
</linearGradient>
<linearGradient id="paint7_linear" x1="271.584" y1="-22.816" x2="271.584" y2="73.184" gradientUnits="userSpaceOnUse">
<stop stop-color="#F50F0F"/>
<stop offset="0.0001" stop-color="white" stop-opacity="0.0416667"/>
<stop offset="0.0002" stop-color="#E5E5E5"/>
<stop offset="0.171875" stop-color="#F53030" stop-opacity="0.01"/>
<stop offset="0.197917" stop-color="#F31010" stop-opacity="0"/>
<stop offset="0.9999" stop-color="white" stop-opacity="0.0416667"/>
<stop offset="1" stop-color="#F31010" stop-opacity="0"/>
</linearGradient>
<linearGradient id="paint8_linear" x1="271.584" y1="-22.816" x2="271.584" y2="73.184" gradientUnits="userSpaceOnUse">
<stop stop-color="#F50F0F"/>
<stop offset="0.0001" stop-color="white" stop-opacity="0.0416667"/>
<stop offset="0.0002" stop-color="#E5E5E5"/>
<stop offset="0.171875" stop-color="#F53030" stop-opacity="0.01"/>
<stop offset="0.197917" stop-color="#F31010" stop-opacity="0"/>
<stop offset="0.9999" stop-color="white" stop-opacity="0.0416667"/>
<stop offset="1" stop-color="#F31010" stop-opacity="0"/>
</linearGradient>
<linearGradient id="paint9_linear" x1="271.584" y1="-22.816" x2="271.584" y2="73.184" gradientUnits="userSpaceOnUse">
<stop stop-color="#F50F0F"/>
<stop offset="0.0001" stop-color="white" stop-opacity="0.0416667"/>
<stop offset="0.0002" stop-color="#E5E5E5"/>
<stop offset="0.171875" stop-color="#F53030" stop-opacity="0.01"/>
<stop offset="0.197917" stop-color="#F31010" stop-opacity="0"/>
<stop offset="0.9999" stop-color="white" stop-opacity="0.0416667"/>
<stop offset="1" stop-color="#F31010" stop-opacity="0"/>
</linearGradient>
<linearGradient id="paint10_linear" x1="271.584" y1="-22.816" x2="271.584" y2="73.184" gradientUnits="userSpaceOnUse">
<stop stop-color="#F50F0F"/>
<stop offset="0.0001" stop-color="white" stop-opacity="0.0416667"/>
<stop offset="0.0002" stop-color="#E5E5E5"/>
<stop offset="0.171875" stop-color="#F53030" stop-opacity="0.01"/>
<stop offset="0.197917" stop-color="#F31010" stop-opacity="0"/>
<stop offset="0.9999" stop-color="white" stop-opacity="0.0416667"/>
<stop offset="1" stop-color="#F31010" stop-opacity="0"/>
</linearGradient>
<linearGradient id="paint11_linear" x1="271.584" y1="-22.816" x2="271.584" y2="73.184" gradientUnits="userSpaceOnUse">
<stop stop-color="#F50F0F"/>
<stop offset="0.0001" stop-color="white" stop-opacity="0.0416667"/>
<stop offset="0.0002" stop-color="#E5E5E5"/>
<stop offset="0.171875" stop-color="#F53030" stop-opacity="0.01"/>
<stop offset="0.197917" stop-color="#F31010" stop-opacity="0"/>
<stop offset="0.9999" stop-color="white" stop-opacity="0.0416667"/>
<stop offset="1" stop-color="#F31010" stop-opacity="0"/>
</linearGradient>
<linearGradient id="paint12_linear" x1="271.584" y1="-22.816" x2="271.584" y2="73.184" gradientUnits="userSpaceOnUse">
<stop stop-color="white"/>
<stop offset="0.9998" stop-color="#E5E5E5"/>
<stop offset="0.9999" stop-color="#E5E5E5"/>
<stop offset="1" stop-color="#E5E5E5"/>
</linearGradient>
<linearGradient id="paint13_linear" x1="271.584" y1="-22.816" x2="271.584" y2="73.184" gradientUnits="userSpaceOnUse">
<stop stop-color="white"/>
<stop offset="0.9998" stop-color="#E5E5E5"/>
<stop offset="0.9999" stop-color="#E5E5E5"/>
<stop offset="1" stop-color="#E5E5E5"/>
</linearGradient>
<linearGradient id="paint14_linear" x1="271.584" y1="-22.816" x2="271.584" y2="73.184" gradientUnits="userSpaceOnUse">
<stop stop-color="white"/>
<stop offset="0.9998" stop-color="#E5E5E5"/>
<stop offset="0.9999" stop-color="#E5E5E5"/>
<stop offset="1" stop-color="#E5E5E5"/>
</linearGradient>
<linearGradient id="paint15_linear" x1="271.584" y1="-22.816" x2="271.584" y2="73.184" gradientUnits="userSpaceOnUse">
<stop stop-color="white"/>
<stop offset="0.9998" stop-color="#E5E5E5"/>
<stop offset="0.9999" stop-color="#E5E5E5"/>
<stop offset="1" stop-color="#E5E5E5"/>
</linearGradient>
<linearGradient id="paint16_linear" x1="271.584" y1="-22.816" x2="271.584" y2="73.184" gradientUnits="userSpaceOnUse">
<stop stop-color="white"/>
<stop offset="0.9998" stop-color="#E5E5E5"/>
<stop offset="0.9999" stop-color="#E5E5E5"/>
<stop offset="1" stop-color="#E5E5E5"/>
</linearGradient>
<linearGradient id="paint17_linear" x1="271.584" y1="-22.816" x2="271.584" y2="73.184" gradientUnits="userSpaceOnUse">
<stop stop-color="white"/>
<stop offset="0.9998" stop-color="#E5E5E5"/>
<stop offset="0.9999" stop-color="#E5E5E5"/>
<stop offset="1" stop-color="#E5E5E5"/>
</linearGradient>
<linearGradient id="paint18_linear" x1="271.584" y1="-22.816" x2="271.584" y2="73.184" gradientUnits="userSpaceOnUse">
<stop stop-color="white"/>
<stop offset="0.9998" stop-color="#E5E5E5"/>
<stop offset="0.9999" stop-color="#E5E5E5"/>
<stop offset="1" stop-color="#E5E5E5"/>
</linearGradient>
<linearGradient id="paint19_linear" x1="271.584" y1="-22.816" x2="271.584" y2="73.184" gradientUnits="userSpaceOnUse">
<stop stop-color="white"/>
<stop offset="0.9998" stop-color="#E5E5E5"/>
<stop offset="0.9999" stop-color="#E5E5E5"/>
<stop offset="1" stop-color="#E5E5E5"/>
</linearGradient>
<linearGradient id="paint20_linear" x1="271.584" y1="-22.816" x2="271.584" y2="73.184" gradientUnits="userSpaceOnUse">
<stop stop-color="white"/>
<stop offset="0.9998" stop-color="#E5E5E5"/>
<stop offset="0.9999" stop-color="#E5E5E5"/>
<stop offset="1" stop-color="#E5E5E5"/>
</linearGradient>
<linearGradient id="paint21_linear" x1="271.584" y1="-22.816" x2="271.584" y2="73.184" gradientUnits="userSpaceOnUse">
<stop stop-color="white"/>
<stop offset="0.9998" stop-color="#E5E5E5"/>
<stop offset="0.9999" stop-color="#E5E5E5"/>
<stop offset="1" stop-color="#E5E5E5"/>
</linearGradient>
<linearGradient id="paint22_linear" x1="271.584" y1="-22.816" x2="271.584" y2="73.184" gradientUnits="userSpaceOnUse">
<stop stop-color="white"/>
<stop offset="0.9998" stop-color="#E5E5E5"/>
<stop offset="0.9999" stop-color="#E5E5E5"/>
<stop offset="1" stop-color="#E5E5E5"/>
</linearGradient>
<linearGradient id="paint23_linear" x1="271.584" y1="-22.816" x2="271.584" y2="73.184" gradientUnits="userSpaceOnUse">
<stop stop-color="white"/>
<stop offset="0.9998" stop-color="#E5E5E5"/>
<stop offset="0.9999" stop-color="#E5E5E5"/>
<stop offset="1" stop-color="#E5E5E5"/>
</linearGradient>
</defs>
</svg>
