<svg width="532" height="59" viewBox="0 0 532 59" fill="none" xmlns="http://www.w3.org/2000/svg">
<g style="mix-blend-mode:overlay" filter="url(#filter0_d)">
<path d="M29.152 48.448C25.0133 48.448 21.2373 47.488 17.824 45.568C14.4107 43.6053 11.7013 40.896 9.696 37.44C7.73333 33.9413 6.752 30.016 6.752 25.664C6.752 21.312 7.73333 17.408 9.696 13.952C11.7013 10.4533 14.4107 7.744 17.824 5.824C21.2373 3.86133 25.0133 2.88 29.152 2.88C33.3333 2.88 37.1307 3.86133 40.544 5.824C43.9573 7.744 46.6453 10.432 48.608 13.888C50.5707 17.344 51.552 21.2693 51.552 25.664C51.552 30.0587 50.5707 33.984 48.608 37.44C46.6453 40.896 43.9573 43.6053 40.544 45.568C37.1307 47.488 33.3333 48.448 29.152 48.448ZM29.152 43.392C32.2667 43.392 35.0613 42.6667 37.536 41.216C40.0533 39.7653 42.016 37.696 43.424 35.008C44.8747 32.32 45.6 29.2053 45.6 25.664C45.6 22.08 44.8747 18.9653 43.424 16.32C42.016 13.632 40.0747 11.5627 37.6 10.112C35.1253 8.66133 32.3093 7.936 29.152 7.936C25.9947 7.936 23.1787 8.66133 20.704 10.112C18.2293 11.5627 16.2667 13.632 14.816 16.32C13.408 18.9653 12.704 22.08 12.704 25.664C12.704 29.2053 13.408 32.32 14.816 35.008C16.2667 37.696 18.2293 39.7653 20.704 41.216C23.2213 42.6667 26.0373 43.392 29.152 43.392ZM82.7285 48L72.1045 29.76H65.0645V48H59.2405V3.392H73.6405C77.0112 3.392 79.8485 3.968 82.1525 5.12C84.4992 6.272 86.2485 7.82933 87.4005 9.792C88.5525 11.7547 89.1285 13.9947 89.1285 16.512C89.1285 19.584 88.2325 22.2933 86.4405 24.64C84.6912 26.9867 82.0458 28.544 78.5045 29.312L89.7045 48H82.7285ZM65.0645 25.088H73.6405C76.7978 25.088 79.1658 24.32 80.7445 22.784C82.3232 21.2053 83.1125 19.1147 83.1125 16.512C83.1125 13.8667 82.3232 11.8187 80.7445 10.368C79.2085 8.91733 76.8405 8.192 73.6405 8.192H65.0645V25.088ZM125.634 3.392V8.128H113.474V48H107.65V8.128H95.426V3.392H125.634ZM167.171 3.392V48H161.347V27.776H138.627V48H132.803V3.392H138.627V22.976H161.347V3.392H167.171ZM197.34 48.448C193.201 48.448 189.425 47.488 186.012 45.568C182.598 43.6053 179.889 40.896 177.884 37.44C175.921 33.9413 174.94 30.016 174.94 25.664C174.94 21.312 175.921 17.408 177.884 13.952C179.889 10.4533 182.598 7.744 186.012 5.824C189.425 3.86133 193.201 2.88 197.34 2.88C201.521 2.88 205.318 3.86133 208.732 5.824C212.145 7.744 214.833 10.432 216.796 13.888C218.758 17.344 219.74 21.2693 219.74 25.664C219.74 30.0587 218.758 33.984 216.796 37.44C214.833 40.896 212.145 43.6053 208.732 45.568C205.318 47.488 201.521 48.448 197.34 48.448ZM197.34 43.392C200.454 43.392 203.249 42.6667 205.724 41.216C208.241 39.7653 210.204 37.696 211.612 35.008C213.062 32.32 213.788 29.2053 213.788 25.664C213.788 22.08 213.062 18.9653 211.612 16.32C210.204 13.632 208.262 11.5627 205.788 10.112C203.313 8.66133 200.497 7.936 197.34 7.936C194.182 7.936 191.366 8.66133 188.892 10.112C186.417 11.5627 184.454 13.632 183.004 16.32C181.596 18.9653 180.892 22.08 180.892 25.664C180.892 29.2053 181.596 32.32 183.004 35.008C184.454 37.696 186.417 39.7653 188.892 41.216C191.409 42.6667 194.225 43.392 197.34 43.392ZM242.315 25.664C242.315 21.312 243.296 17.408 245.259 13.952C247.221 10.4533 249.888 7.72267 253.259 5.76C256.672 3.79733 260.448 2.816 264.587 2.816C269.451 2.816 273.696 3.98933 277.323 6.336C280.949 8.68267 283.595 12.0107 285.259 16.32H278.283C277.045 13.632 275.253 11.5627 272.907 10.112C270.603 8.66133 267.829 7.936 264.587 7.936C261.472 7.936 258.677 8.66133 256.203 10.112C253.728 11.5627 251.787 13.632 250.379 16.32C248.971 18.9653 248.267 22.08 248.267 25.664C248.267 29.2053 248.971 32.32 250.379 35.008C251.787 37.6533 253.728 39.7013 256.203 41.152C258.677 42.6027 261.472 43.328 264.587 43.328C267.829 43.328 270.603 42.624 272.907 41.216C275.253 39.7653 277.045 37.696 278.283 35.008H285.259C283.595 39.2747 280.949 42.5813 277.323 44.928C273.696 47.232 269.451 48.384 264.587 48.384C260.448 48.384 256.672 47.424 253.259 45.504C249.888 43.5413 247.221 40.832 245.259 37.376C243.296 33.92 242.315 30.016 242.315 25.664ZM314.152 48.448C310.013 48.448 306.237 47.488 302.824 45.568C299.411 43.6053 296.701 40.896 294.696 37.44C292.733 33.9413 291.752 30.016 291.752 25.664C291.752 21.312 292.733 17.408 294.696 13.952C296.701 10.4533 299.411 7.744 302.824 5.824C306.237 3.86133 310.013 2.88 314.152 2.88C318.333 2.88 322.131 3.86133 325.544 5.824C328.957 7.744 331.645 10.432 333.608 13.888C335.571 17.344 336.552 21.2693 336.552 25.664C336.552 30.0587 335.571 33.984 333.608 37.44C331.645 40.896 328.957 43.6053 325.544 45.568C322.131 47.488 318.333 48.448 314.152 48.448ZM314.152 43.392C317.267 43.392 320.061 42.6667 322.536 41.216C325.053 39.7653 327.016 37.696 328.424 35.008C329.875 32.32 330.6 29.2053 330.6 25.664C330.6 22.08 329.875 18.9653 328.424 16.32C327.016 13.632 325.075 11.5627 322.6 10.112C320.125 8.66133 317.309 7.936 314.152 7.936C310.995 7.936 308.179 8.66133 305.704 10.112C303.229 11.5627 301.267 13.632 299.816 16.32C298.408 18.9653 297.704 22.08 297.704 25.664C297.704 29.2053 298.408 32.32 299.816 35.008C301.267 37.696 303.229 39.7653 305.704 41.216C308.221 42.6667 311.037 43.392 314.152 43.392ZM379.312 48H373.489L350.065 12.48V48H344.241V3.328H350.065L373.489 38.784V3.328H379.312V48ZM403.385 48.448C400.441 48.448 397.795 47.936 395.449 46.912C393.145 45.8453 391.331 44.3947 390.009 42.56C388.686 40.6827 388.003 38.528 387.961 36.096H394.169C394.382 38.1867 395.235 39.9573 396.729 41.408C398.265 42.816 400.483 43.52 403.385 43.52C406.158 43.52 408.334 42.8373 409.913 41.472C411.534 40.064 412.345 38.272 412.345 36.096C412.345 34.3893 411.875 33.0027 410.937 31.936C409.998 30.8693 408.825 30.0587 407.417 29.504C406.009 28.9493 404.11 28.352 401.721 27.712C398.777 26.944 396.409 26.176 394.617 25.408C392.867 24.64 391.353 23.4453 390.073 21.824C388.835 20.16 388.217 17.9413 388.217 15.168C388.217 12.736 388.835 10.5813 390.073 8.704C391.31 6.82666 393.038 5.376 395.257 4.352C397.518 3.328 400.099 2.816 403.001 2.816C407.182 2.816 410.595 3.86133 413.241 5.952C415.929 8.04266 417.443 10.816 417.785 14.272H411.385C411.171 12.5653 410.275 11.072 408.697 9.792C407.118 8.46933 405.027 7.808 402.425 7.808C399.993 7.808 398.009 8.448 396.473 9.728C394.937 10.9653 394.169 12.7147 394.169 14.976C394.169 16.5973 394.617 17.92 395.513 18.944C396.451 19.968 397.582 20.7573 398.905 21.312C400.27 21.824 402.169 22.4213 404.601 23.104C407.545 23.9147 409.913 24.7253 411.705 25.536C413.497 26.304 415.033 27.52 416.312 29.184C417.593 30.8053 418.233 33.024 418.233 35.84C418.233 38.016 417.657 40.064 416.505 41.984C415.353 43.904 413.646 45.4613 411.385 46.656C409.123 47.8507 406.457 48.448 403.385 48.448ZM432.499 3.392V31.616C432.499 35.584 433.459 38.528 435.379 40.448C437.342 42.368 440.051 43.328 443.507 43.328C446.92 43.328 449.587 42.368 451.507 40.448C453.47 38.528 454.451 35.584 454.451 31.616V3.392H460.275V31.552C460.275 35.264 459.528 38.4 458.035 40.96C456.542 43.4773 454.515 45.3547 451.955 46.592C449.438 47.8293 446.6 48.448 443.443 48.448C440.286 48.448 437.427 47.8293 434.867 46.592C432.35 45.3547 430.344 43.4773 428.851 40.96C427.4 38.4 426.675 35.264 426.675 31.552V3.392H432.499ZM475.815 43.264H491.431V48H469.991V3.392H475.815V43.264ZM525.072 3.392V8.128H512.912V48H507.088V8.128H494.864V3.392H525.072Z" fill="black"/>
<path d="M17.824 45.568L16.5778 47.7353L16.5881 47.7412L16.5983 47.7469L17.824 45.568ZM9.696 37.44L7.51564 38.6631L7.52453 38.679L7.53365 38.6947L9.696 37.44ZM9.696 13.952L7.527 12.7088L7.5221 12.7174L9.696 13.952ZM17.824 5.824L19.0497 8.00294L19.0599 7.99715L19.0702 7.99126L17.824 5.824ZM40.544 5.824L39.2978 7.99126L39.3081 7.99715L39.3183 8.00294L40.544 5.824ZM48.608 13.888L50.7819 12.6534L50.7819 12.6534L48.608 13.888ZM40.544 45.568L41.7697 47.7469L41.7799 47.7412L41.7902 47.7353L40.544 45.568ZM37.536 41.216L36.2878 39.0499L36.2797 39.0546L36.2717 39.0593L37.536 41.216ZM43.424 35.008L41.2239 33.8207L41.2166 33.8343L41.2094 33.848L43.424 35.008ZM43.424 16.32L41.2094 17.48L41.2205 17.5012L41.232 17.5221L43.424 16.32ZM37.6 10.112L36.3357 12.2687L36.3357 12.2687L37.6 10.112ZM20.704 10.112L21.9683 12.2687L21.9683 12.2687L20.704 10.112ZM14.816 16.32L12.6159 15.1327L12.6125 15.139L12.6091 15.1454L14.816 16.32ZM14.816 35.008L12.6014 36.168L12.6086 36.1817L12.6159 36.1953L14.816 35.008ZM20.704 41.216L19.4397 43.3727L19.4477 43.3774L19.4558 43.3821L20.704 41.216ZM29.152 45.948C25.4174 45.948 22.0674 45.0865 19.0497 43.3891L16.5983 47.7469C20.4073 49.8895 24.6093 50.948 29.152 50.948V45.948ZM19.0702 43.4007C16.0428 41.66 13.647 39.2679 11.8583 36.1853L7.53365 38.6947C9.75564 42.5241 12.7785 45.5506 16.5778 47.7353L19.0702 43.4007ZM11.8764 36.2169C10.1408 33.1231 9.252 29.625 9.252 25.664H4.252C4.252 30.407 5.32584 34.7596 7.51564 38.6631L11.8764 36.2169ZM9.252 25.664C9.252 21.7026 10.1409 18.2311 11.8699 15.1866L7.5221 12.7174C5.32577 16.5849 4.252 20.9214 4.252 25.664H9.252ZM11.865 15.1952C13.653 12.0756 16.0415 9.69503 19.0497 8.00294L16.5983 3.64506C12.7799 5.79296 9.74965 8.83103 7.52702 12.7088L11.865 15.1952ZM19.0702 7.99126C22.0847 6.2579 25.4274 5.38 29.152 5.38V0.379997C24.5992 0.379997 20.3899 1.46476 16.5778 3.65673L19.0702 7.99126ZM29.152 5.38C32.9241 5.38 36.2873 6.26019 39.2978 7.99126L41.7902 3.65673C37.9741 1.46247 33.7426 0.379997 29.152 0.379997V5.38ZM39.3183 8.00294C42.3295 9.69671 44.6923 12.0555 46.4341 15.1226L50.7819 12.6534C48.5984 8.8085 45.5852 5.79129 41.7697 3.64506L39.3183 8.00294ZM46.4341 15.1226C48.161 18.1634 49.052 21.6553 49.052 25.664H54.052C54.052 20.8834 52.9803 16.5246 50.7819 12.6534L46.4341 15.1226ZM49.052 25.664C49.052 29.6727 48.161 33.1646 46.4341 36.2054L50.7819 38.6746C52.9803 34.8034 54.052 30.4446 54.052 25.664H49.052ZM46.4341 36.2054C44.6897 39.2771 42.3204 41.6628 39.2978 43.4007L41.7902 47.7353C45.5943 45.5479 48.601 42.5149 50.7819 38.6746L46.4341 36.2054ZM39.3183 43.3891C36.3045 45.0843 32.934 45.948 29.152 45.948V50.948C33.7326 50.948 37.9568 49.8917 41.7697 47.7469L39.3183 43.3891ZM29.152 45.892C32.6718 45.892 35.9096 45.0673 38.8003 43.3727L36.2717 39.0593C34.2131 40.266 31.8616 40.892 29.152 40.892V45.892ZM38.7843 43.3821C41.7314 41.6837 44.0207 39.2566 45.6386 36.168L41.2094 33.848C40.0113 36.1354 38.3753 37.8469 36.2878 39.0499L38.7843 43.3821ZM45.6241 36.1953C47.3009 33.0882 48.1 29.5534 48.1 25.664H43.1C43.1 28.8573 42.4484 31.5518 41.2239 33.8207L45.6241 36.1953ZM48.1 25.664C48.1 21.7387 47.3036 18.1952 45.616 15.1179L41.232 17.5221C42.4457 19.7354 43.1 22.4212 43.1 25.664H48.1ZM45.6386 15.16C44.0265 12.0824 41.7665 9.65657 38.8643 7.95525L36.3357 12.2687C38.3828 13.4688 40.0055 15.1816 41.2094 17.48L45.6386 15.16ZM38.8643 7.95525C35.9684 6.25763 32.7078 5.436 29.152 5.436V10.436C31.9109 10.436 34.2823 11.065 36.3357 12.2687L38.8643 7.95525ZM29.152 5.436C25.5962 5.436 22.3356 6.25763 19.4397 7.95526L21.9683 12.2687C24.0217 11.065 26.3931 10.436 29.152 10.436V5.436ZM19.4397 7.95525C16.5445 9.65247 14.2693 12.0692 12.6159 15.1327L17.0161 17.5073C18.2641 15.1948 19.9142 13.4729 21.9683 12.2687L19.4397 7.95525ZM12.6091 15.1454C10.9743 18.2168 10.204 21.7503 10.204 25.664H15.204C15.204 22.4097 15.8417 19.7138 17.0229 17.4946L12.6091 15.1454ZM10.204 25.664C10.204 29.5418 10.9769 33.0666 12.6014 36.168L17.0306 33.848C15.8391 31.5733 15.204 28.8689 15.204 25.664H10.204ZM12.6159 36.1953C14.2693 39.2588 16.5445 41.6755 19.4397 43.3727L21.9683 39.0593C19.9142 37.8551 18.2641 36.1332 17.0161 33.8207L12.6159 36.1953ZM19.4558 43.3821C22.38 45.0673 25.6318 45.892 29.152 45.892V40.892C26.4428 40.892 24.0626 40.2661 21.9522 39.0499L19.4558 43.3821ZM82.7285 48L80.5682 49.2583L81.2915 50.5H82.7285V48ZM72.1045 29.76L74.2648 28.5017L73.5415 27.26H72.1045V29.76ZM65.0645 29.76V27.26H62.5645V29.76H65.0645ZM65.0645 48V50.5H67.5645V48H65.0645ZM59.2405 48H56.7405V50.5H59.2405V48ZM59.2405 3.392V0.891998H56.7405V3.392H59.2405ZM82.1525 5.12L81.0345 7.35607L81.0426 7.36015L81.0508 7.36417L82.1525 5.12ZM86.4405 24.64L84.4536 23.1227L84.4448 23.1342L84.4361 23.1458L86.4405 24.64ZM78.5045 29.312L77.9747 26.8688L74.5684 27.6075L76.3601 30.5972L78.5045 29.312ZM89.7045 48V50.5H94.1174L91.8489 46.7148L89.7045 48ZM65.0645 25.088H62.5645V27.588H65.0645V25.088ZM80.7445 22.784L82.4879 24.5758L82.5002 24.5639L82.5123 24.5518L80.7445 22.784ZM80.7445 10.368L79.0279 12.1855L79.0404 12.1973L79.0529 12.2088L80.7445 10.368ZM65.0645 8.192V5.692H62.5645V8.192H65.0645ZM84.8888 46.7417L74.2648 28.5017L69.9442 31.0183L80.5682 49.2583L84.8888 46.7417ZM72.1045 27.26H65.0645V32.26H72.1045V27.26ZM62.5645 29.76V48H67.5645V29.76H62.5645ZM65.0645 45.5H59.2405V50.5H65.0645V45.5ZM61.7405 48V3.392H56.7405V48H61.7405ZM59.2405 5.892H73.6405V0.891998H59.2405V5.892ZM73.6405 5.892C76.7383 5.892 79.1677 6.42271 81.0345 7.35607L83.2705 2.88393C80.5293 1.51329 77.2841 0.891998 73.6405 0.891998V5.892ZM81.0508 7.36417C83.0249 8.33328 84.3758 9.57754 85.2445 11.0575L89.5565 8.5265C88.1212 6.08112 85.9734 4.21072 83.2542 2.87583L81.0508 7.36417ZM85.2445 11.0575C86.1479 12.5967 86.6285 14.3911 86.6285 16.512H91.6285C91.6285 13.5982 90.9571 10.9126 89.5565 8.5265L85.2445 11.0575ZM86.6285 16.512C86.6285 19.0595 85.8986 21.2304 84.4536 23.1227L88.4274 26.1573C90.5664 23.3563 91.6285 20.1085 91.6285 16.512H86.6285ZM84.4361 23.1458C83.1278 24.901 81.0718 26.1971 77.9747 26.8688L79.0344 31.7552C83.0199 30.8909 86.2546 29.0724 88.4449 26.1342L84.4361 23.1458ZM76.3601 30.5972L87.5601 49.2852L91.8489 46.7148L80.6489 28.0268L76.3601 30.5972ZM89.7045 45.5H82.7285V50.5H89.7045V45.5ZM65.0645 27.588H73.6405V22.588H65.0645V27.588ZM73.6405 27.588C77.1663 27.588 80.273 26.7309 82.4879 24.5758L79.0011 20.9922C78.0587 21.9091 76.4294 22.588 73.6405 22.588V27.588ZM82.5123 24.5518C84.6375 22.4265 85.6125 19.659 85.6125 16.512H80.6125C80.6125 18.5703 80.0088 19.9842 78.9767 21.0162L82.5123 24.5518ZM85.6125 16.512C85.6125 13.3429 84.6466 10.5585 82.4361 8.52718L79.0529 12.2088C79.9997 13.0788 80.6125 14.3904 80.6125 16.512H85.6125ZM82.4611 8.55047C80.2711 6.48217 77.1582 5.692 73.6405 5.692V10.692C76.5228 10.692 78.1459 11.3525 79.0279 12.1855L82.4611 8.55047ZM73.6405 5.692H65.0645V10.692H73.6405V5.692ZM62.5645 8.192V25.088H67.5645V8.192H62.5645ZM125.634 3.392H128.134V0.891998H125.634V3.392ZM125.634 8.128V10.628H128.134V8.128H125.634ZM113.474 8.128V5.628H110.974V8.128H113.474ZM113.474 48V50.5H115.974V48H113.474ZM107.65 48H105.15V50.5H107.65V48ZM107.65 8.128H110.15V5.628H107.65V8.128ZM95.426 8.128H92.926V10.628H95.426V8.128ZM95.426 3.392V0.891998H92.926V3.392H95.426ZM123.134 3.392V8.128H128.134V3.392H123.134ZM125.634 5.628H113.474V10.628H125.634V5.628ZM110.974 8.128V48H115.974V8.128H110.974ZM113.474 45.5H107.65V50.5H113.474V45.5ZM110.15 48V8.128H105.15V48H110.15ZM107.65 5.628H95.426V10.628H107.65V5.628ZM97.926 8.128V3.392H92.926V8.128H97.926ZM95.426 5.892H125.634V0.891998H95.426V5.892ZM167.171 3.392H169.671V0.891998H167.171V3.392ZM167.171 48V50.5H169.671V48H167.171ZM161.347 48H158.847V50.5H161.347V48ZM161.347 27.776H163.847V25.276H161.347V27.776ZM138.627 27.776V25.276H136.127V27.776H138.627ZM138.627 48V50.5H141.127V48H138.627ZM132.803 48H130.303V50.5H132.803V48ZM132.803 3.392V0.891998H130.303V3.392H132.803ZM138.627 3.392H141.127V0.891998H138.627V3.392ZM138.627 22.976H136.127V25.476H138.627V22.976ZM161.347 22.976V25.476H163.847V22.976H161.347ZM161.347 3.392V0.891998H158.847V3.392H161.347ZM164.671 3.392V48H169.671V3.392H164.671ZM167.171 45.5H161.347V50.5H167.171V45.5ZM163.847 48V27.776H158.847V48H163.847ZM161.347 25.276H138.627V30.276H161.347V25.276ZM136.127 27.776V48H141.127V27.776H136.127ZM138.627 45.5H132.803V50.5H138.627V45.5ZM135.303 48V3.392H130.303V48H135.303ZM132.803 5.892H138.627V0.891998H132.803V5.892ZM136.127 3.392V22.976H141.127V3.392H136.127ZM138.627 25.476H161.347V20.476H138.627V25.476ZM163.847 22.976V3.392H158.847V22.976H163.847ZM161.347 5.892H167.171V0.891998H161.347V5.892ZM186.012 45.568L184.765 47.7353L184.776 47.7412L184.786 47.7469L186.012 45.568ZM177.884 37.44L175.703 38.6631L175.712 38.679L175.721 38.6947L177.884 37.44ZM177.884 13.952L175.715 12.7088L175.71 12.7174L177.884 13.952ZM186.012 5.824L187.237 8.00294L187.247 7.99715L187.258 7.99126L186.012 5.824ZM208.732 5.824L207.485 7.99126L207.496 7.99715L207.506 8.00294L208.732 5.824ZM216.796 13.888L218.969 12.6534L218.969 12.6534L216.796 13.888ZM208.732 45.568L209.957 47.7469L209.967 47.7412L209.978 47.7353L208.732 45.568ZM205.724 41.216L204.475 39.0499L204.467 39.0546L204.459 39.0593L205.724 41.216ZM211.612 35.008L209.411 33.8207L209.404 33.8343L209.397 33.848L211.612 35.008ZM211.612 16.32L209.397 17.48L209.408 17.5012L209.419 17.5221L211.612 16.32ZM205.788 10.112L204.523 12.2687L204.523 12.2687L205.788 10.112ZM188.892 10.112L190.156 12.2687L190.156 12.2687L188.892 10.112ZM183.004 16.32L180.803 15.1327L180.8 15.139L180.797 15.1454L183.004 16.32ZM183.004 35.008L180.789 36.168L180.796 36.1817L180.803 36.1953L183.004 35.008ZM188.892 41.216L187.627 43.3727L187.635 43.3774L187.643 43.3821L188.892 41.216ZM197.34 45.948C193.605 45.948 190.255 45.0865 187.237 43.3891L184.786 47.7469C188.595 49.8895 192.797 50.948 197.34 50.948V45.948ZM187.258 43.4007C184.23 41.66 181.835 39.2679 180.046 36.1853L175.721 38.6947C177.943 42.5241 180.966 45.5506 184.765 47.7353L187.258 43.4007ZM180.064 36.2169C178.328 33.1231 177.44 29.625 177.44 25.664H172.44C172.44 30.407 173.513 34.7596 175.703 38.6631L180.064 36.2169ZM177.44 25.664C177.44 21.7026 178.328 18.2311 180.057 15.1866L175.71 12.7174C173.513 16.5849 172.44 20.9214 172.44 25.664H177.44ZM180.052 15.1952C181.841 12.0756 184.229 9.69503 187.237 8.00294L184.786 3.64506C180.967 5.79296 177.937 8.83103 175.715 12.7088L180.052 15.1952ZM187.258 7.99126C190.272 6.2579 193.615 5.38 197.34 5.38V0.379997C192.787 0.379997 188.577 1.46476 184.765 3.65673L187.258 7.99126ZM197.34 5.38C201.112 5.38 204.475 6.26019 207.485 7.99126L209.978 3.65673C206.162 1.46247 201.93 0.379997 197.34 0.379997V5.38ZM207.506 8.00294C210.517 9.69671 212.88 12.0555 214.622 15.1226L218.969 12.6534C216.786 8.8085 213.773 5.79129 209.957 3.64506L207.506 8.00294ZM214.622 15.1226C216.349 18.1634 217.24 21.6553 217.24 25.664H222.24C222.24 20.8834 221.168 16.5246 218.969 12.6534L214.622 15.1226ZM217.24 25.664C217.24 29.6727 216.349 33.1646 214.622 36.2054L218.969 38.6746C221.168 34.8034 222.24 30.4446 222.24 25.664H217.24ZM214.622 36.2054C212.877 39.2771 210.508 41.6628 207.485 43.4007L209.978 47.7353C213.782 45.5479 216.788 42.5149 218.969 38.6746L214.622 36.2054ZM207.506 43.3891C204.492 45.0843 201.122 45.948 197.34 45.948V50.948C201.92 50.948 206.144 49.8917 209.957 47.7469L207.506 43.3891ZM197.34 45.892C200.859 45.892 204.097 45.0673 206.988 43.3727L204.459 39.0593C202.401 40.266 200.049 40.892 197.34 40.892V45.892ZM206.972 43.3821C209.919 41.6837 212.208 39.2566 213.826 36.168L209.397 33.848C208.199 36.1354 206.563 37.8469 204.475 39.0499L206.972 43.3821ZM213.812 36.1953C215.488 33.0882 216.288 29.5534 216.288 25.664H211.288C211.288 28.8573 210.636 31.5518 209.411 33.8207L213.812 36.1953ZM216.288 25.664C216.288 21.7387 215.491 18.1952 213.804 15.1179L209.419 17.5221C210.633 19.7354 211.288 22.4212 211.288 25.664H216.288ZM213.826 15.16C212.214 12.0824 209.954 9.65657 207.052 7.95525L204.523 12.2687C206.57 13.4688 208.193 15.1816 209.397 17.48L213.826 15.16ZM207.052 7.95525C204.156 6.25763 200.895 5.436 197.34 5.436V10.436C200.098 10.436 202.47 11.065 204.523 12.2687L207.052 7.95525ZM197.34 5.436C193.784 5.436 190.523 6.25763 187.627 7.95526L190.156 12.2687C192.209 11.065 194.581 10.436 197.34 10.436V5.436ZM187.627 7.95525C184.732 9.65247 182.457 12.0692 180.803 15.1327L185.204 17.5073C186.452 15.1948 188.102 13.4729 190.156 12.2687L187.627 7.95525ZM180.797 15.1454C179.162 18.2168 178.392 21.7503 178.392 25.664H183.392C183.392 22.4097 184.029 19.7138 185.21 17.4946L180.797 15.1454ZM178.392 25.664C178.392 29.5418 179.164 33.0666 180.789 36.168L185.218 33.848C184.027 31.5733 183.392 28.8689 183.392 25.664H178.392ZM180.803 36.1953C182.457 39.2588 184.732 41.6755 187.627 43.3727L190.156 39.0593C188.102 37.8551 186.452 36.1332 185.204 33.8207L180.803 36.1953ZM187.643 43.3821C190.568 45.0673 193.819 45.892 197.34 45.892V40.892C194.63 40.892 192.25 40.2661 190.14 39.0499L187.643 43.3821ZM245.259 13.952L247.432 15.1866L247.439 15.1751L245.259 13.952ZM253.259 5.76L252.012 3.5927L252.001 3.59956L253.259 5.76ZM277.323 6.336L278.681 4.23707L278.681 4.23707L277.323 6.336ZM285.259 16.32V18.82H288.904L287.591 15.4195L285.259 16.32ZM278.283 16.32L276.012 17.3654L276.681 18.82H278.283V16.32ZM272.907 10.112L271.574 12.2276L271.583 12.2331L271.592 12.2385L272.907 10.112ZM256.203 10.112L257.467 12.2687L257.467 12.2687L256.203 10.112ZM250.379 16.32L252.585 17.4946L252.589 17.4873L252.593 17.48L250.379 16.32ZM250.379 35.008L248.164 36.168L248.168 36.1753L248.172 36.1826L250.379 35.008ZM256.203 41.152L257.467 38.9953L257.467 38.9953L256.203 41.152ZM272.907 41.216L274.21 43.3492L274.221 43.3425L272.907 41.216ZM278.283 35.008V32.508H276.681L276.012 33.9626L278.283 35.008ZM285.259 35.008L287.588 35.9164L288.917 32.508H285.259V35.008ZM277.323 44.928L278.663 47.0382L278.672 47.0326L278.681 47.0269L277.323 44.928ZM253.259 45.504L252.001 47.6644L252.017 47.6738L252.033 47.6829L253.259 45.504ZM245.259 37.376L247.432 36.1414L245.259 37.376ZM244.815 25.664C244.815 21.7026 245.703 18.2311 247.432 15.1866L243.085 12.7174C240.888 16.5849 239.815 20.9214 239.815 25.664H244.815ZM247.439 15.1751C249.19 12.054 251.543 9.65197 254.516 7.92044L252.001 3.59956C248.233 5.79336 245.253 8.85267 243.078 12.7289L247.439 15.1751ZM254.505 7.92726C257.519 6.1939 260.862 5.316 264.587 5.316V0.315998C260.034 0.315998 255.824 1.40076 252.012 3.59273L254.505 7.92726ZM264.587 5.316C269.031 5.316 272.792 6.38212 275.964 8.43492L278.681 4.23707C274.6 1.59655 269.87 0.315998 264.587 0.315998V5.316ZM275.964 8.43492C279.117 10.4745 281.438 13.3673 282.926 17.2205L287.591 15.4195C285.751 10.6541 282.782 6.89078 278.681 4.23707L275.964 8.43492ZM285.259 13.82H278.283V18.82H285.259V13.82ZM280.553 15.2746C279.126 12.174 277.017 9.71367 274.221 7.98551L271.592 12.2385C273.49 13.4117 274.964 15.0899 276.012 17.3654L280.553 15.2746ZM274.239 7.99642C271.465 6.25013 268.209 5.436 264.587 5.436V10.436C267.449 10.436 269.74 11.0725 271.574 12.2276L274.239 7.99642ZM264.587 5.436C261.067 5.436 257.829 6.26071 254.938 7.95526L257.467 12.2687C259.525 11.062 261.877 10.436 264.587 10.436V5.436ZM254.938 7.95525C252.036 9.65657 249.776 12.0824 248.164 15.16L252.593 17.48C253.797 15.1816 255.42 13.4688 257.467 12.2687L254.938 7.95525ZM248.172 15.1454C246.537 18.2168 245.767 21.7503 245.767 25.664H250.767C250.767 22.4097 251.404 19.7138 252.585 17.4946L248.172 15.1454ZM245.767 25.664C245.767 29.5418 246.539 33.0666 248.164 36.168L252.593 33.848C251.402 31.5733 250.767 28.8689 250.767 25.664H245.767ZM248.172 36.1826C249.787 39.2171 252.046 41.6135 254.938 43.3087L257.467 38.9953C255.409 37.7892 253.786 36.0896 252.585 33.8334L248.172 36.1826ZM254.938 43.3087C257.829 45.0033 261.067 45.828 264.587 45.828V40.828C261.877 40.828 259.525 40.202 257.467 38.9953L254.938 43.3087ZM264.587 45.828C268.196 45.828 271.441 45.0413 274.21 43.3492L271.603 39.0828C269.764 40.2067 267.462 40.828 264.587 40.828V45.828ZM274.221 43.3425C277.017 41.6143 279.126 39.154 280.553 36.0534L276.012 33.9626C274.964 36.238 273.49 37.9163 271.592 39.0895L274.221 43.3425ZM278.283 37.508H285.259V32.508H278.283V37.508ZM282.929 34.0996C281.444 37.9086 279.123 40.7852 275.964 42.8291L278.681 47.0269C282.775 44.3775 285.745 40.6407 287.588 35.9164L282.929 34.0996ZM275.982 42.8178C272.807 44.8347 269.04 45.884 264.587 45.884V50.884C269.861 50.884 274.585 49.6293 278.663 47.0382L275.982 42.8178ZM264.587 45.884C260.852 45.884 257.502 45.0225 254.484 43.3251L252.033 47.6829C255.842 49.8255 260.044 50.884 264.587 50.884V45.884ZM254.516 43.3436C251.535 41.6076 249.181 39.221 247.432 36.1414L243.085 38.6106C245.261 42.443 248.241 45.4751 252.001 47.6644L254.516 43.3436ZM247.432 36.1414C245.703 33.0969 244.815 29.6254 244.815 25.664H239.815C239.815 30.4066 240.888 34.7431 243.085 38.6106L247.432 36.1414ZM302.824 45.568L301.578 47.7353L301.588 47.7412L301.598 47.7469L302.824 45.568ZM294.696 37.44L292.516 38.6631L292.525 38.679L292.534 38.6947L294.696 37.44ZM294.696 13.952L292.527 12.7088L292.522 12.7174L294.696 13.952ZM302.824 5.824L304.05 8.00294L304.06 7.99715L304.07 7.99126L302.824 5.824ZM325.544 5.824L324.298 7.99126L324.308 7.99715L324.318 8.00294L325.544 5.824ZM333.608 13.888L335.782 12.6534L335.782 12.6534L333.608 13.888ZM325.544 45.568L326.77 47.7469L326.78 47.7412L326.79 47.7353L325.544 45.568ZM322.536 41.216L321.288 39.0499L321.28 39.0546L321.272 39.0593L322.536 41.216ZM328.424 35.008L326.224 33.8207L326.217 33.8343L326.209 33.848L328.424 35.008ZM328.424 16.32L326.209 17.48L326.22 17.5012L326.232 17.5221L328.424 16.32ZM322.6 10.112L321.336 12.2687L321.336 12.2687L322.6 10.112ZM305.704 10.112L306.968 12.2687L306.968 12.2687L305.704 10.112ZM299.816 16.32L297.616 15.1327L297.613 15.139L297.609 15.1454L299.816 16.32ZM299.816 35.008L297.601 36.168L297.609 36.1817L297.616 36.1953L299.816 35.008ZM305.704 41.216L304.44 43.3727L304.448 43.3774L304.456 43.3821L305.704 41.216ZM314.152 45.948C310.417 45.948 307.067 45.0865 304.05 43.3891L301.598 47.7469C305.407 49.8895 309.609 50.948 314.152 50.948V45.948ZM304.07 43.4007C301.043 41.66 298.647 39.2679 296.858 36.1853L292.534 38.6947C294.756 42.5241 297.778 45.5506 301.578 47.7353L304.07 43.4007ZM296.876 36.2169C295.141 33.1231 294.252 29.625 294.252 25.664H289.252C289.252 30.407 290.326 34.7596 292.516 38.6631L296.876 36.2169ZM294.252 25.664C294.252 21.7026 295.141 18.2311 296.87 15.1866L292.522 12.7174C290.326 16.5849 289.252 20.9214 289.252 25.664H294.252ZM296.865 15.1952C298.653 12.0756 301.041 9.69503 304.05 8.00294L301.598 3.64506C297.78 5.79296 294.75 8.83103 292.527 12.7088L296.865 15.1952ZM304.07 7.99126C307.085 6.2579 310.427 5.38 314.152 5.38V0.379997C309.599 0.379997 305.39 1.46476 301.578 3.65673L304.07 7.99126ZM314.152 5.38C317.924 5.38 321.287 6.26019 324.298 7.99126L326.79 3.65673C322.974 1.46247 318.743 0.379997 314.152 0.379997V5.38ZM324.318 8.00294C327.33 9.69671 329.692 12.0555 331.434 15.1226L335.782 12.6534C333.598 8.8085 330.585 5.79129 326.77 3.64506L324.318 8.00294ZM331.434 15.1226C333.161 18.1634 334.052 21.6553 334.052 25.664H339.052C339.052 20.8834 337.98 16.5246 335.782 12.6534L331.434 15.1226ZM334.052 25.664C334.052 29.6727 333.161 33.1646 331.434 36.2054L335.782 38.6746C337.98 34.8034 339.052 30.4446 339.052 25.664H334.052ZM331.434 36.2054C329.69 39.2771 327.32 41.6628 324.298 43.4007L326.79 47.7353C330.594 45.5479 333.601 42.5149 335.782 38.6746L331.434 36.2054ZM324.318 43.3891C321.305 45.0843 317.934 45.948 314.152 45.948V50.948C318.733 50.948 322.957 49.8917 326.77 47.7469L324.318 43.3891ZM314.152 45.892C317.672 45.892 320.91 45.0673 323.8 43.3727L321.272 39.0593C319.213 40.266 316.862 40.892 314.152 40.892V45.892ZM323.784 43.3821C326.731 41.6837 329.021 39.2566 330.639 36.168L326.209 33.848C325.011 36.1354 323.375 37.8469 321.288 39.0499L323.784 43.3821ZM330.624 36.1953C332.301 33.0882 333.1 29.5534 333.1 25.664H328.1C328.1 28.8573 327.448 31.5518 326.224 33.8207L330.624 36.1953ZM333.1 25.664C333.1 21.7387 332.304 18.1952 330.616 15.1179L326.232 17.5221C327.446 19.7354 328.1 22.4212 328.1 25.664H333.1ZM330.639 15.16C329.027 12.0824 326.767 9.65657 323.864 7.95525L321.336 12.2687C323.383 13.4688 325.005 15.1816 326.209 17.48L330.639 15.16ZM323.864 7.95525C320.968 6.25763 317.708 5.436 314.152 5.436V10.436C316.911 10.436 319.282 11.065 321.336 12.2687L323.864 7.95525ZM314.152 5.436C310.596 5.436 307.336 6.25763 304.44 7.95526L306.968 12.2687C309.022 11.065 311.393 10.436 314.152 10.436V5.436ZM304.44 7.95525C301.544 9.65247 299.269 12.0692 297.616 15.1327L302.016 17.5073C303.264 15.1948 304.914 13.4729 306.968 12.2687L304.44 7.95525ZM297.609 15.1454C295.974 18.2168 295.204 21.7503 295.204 25.664H300.204C300.204 22.4097 300.842 19.7138 302.023 17.4946L297.609 15.1454ZM295.204 25.664C295.204 29.5418 295.977 33.0666 297.601 36.168L302.031 33.848C300.839 31.5733 300.204 28.8689 300.204 25.664H295.204ZM297.616 36.1953C299.269 39.2588 301.544 41.6755 304.44 43.3727L306.968 39.0593C304.914 37.8551 303.264 36.1332 302.016 33.8207L297.616 36.1953ZM304.456 43.3821C307.38 45.0673 310.632 45.892 314.152 45.892V40.892C311.443 40.892 309.063 40.2661 306.952 39.0499L304.456 43.3821ZM379.312 48V50.5H381.812V48H379.312ZM373.489 48L371.401 49.3763L372.142 50.5H373.489V48ZM350.065 12.48L352.152 11.1037L347.565 4.14792V12.48H350.065ZM350.065 48V50.5H352.565V48H350.065ZM344.241 48H341.741V50.5H344.241V48ZM344.241 3.328V0.827999H341.741V3.328H344.241ZM350.065 3.328L352.15 1.94995L351.409 0.827999H350.065V3.328ZM373.489 38.784L371.403 40.162L375.989 47.1035V38.784H373.489ZM373.489 3.328V0.827999H370.989V3.328H373.489ZM379.312 3.328H381.812V0.827999H379.312V3.328ZM379.312 45.5H373.489V50.5H379.312V45.5ZM375.576 46.6237L352.152 11.1037L347.977 13.8563L371.401 49.3763L375.576 46.6237ZM347.565 12.48V48H352.565V12.48H347.565ZM350.065 45.5H344.241V50.5H350.065V45.5ZM346.741 48V3.328H341.741V48H346.741ZM344.241 5.828H350.065V0.827999H344.241V5.828ZM347.979 4.70605L371.403 40.162L375.574 37.4059L352.15 1.94995L347.979 4.70605ZM375.989 38.784V3.328H370.989V38.784H375.989ZM373.489 5.828H379.312V0.827999H373.489V5.828ZM376.812 3.328V48H381.812V3.328H376.812ZM395.449 46.912L394.398 49.1807L394.423 49.1923L394.449 49.2033L395.449 46.912ZM390.009 42.56L387.965 43.9999L387.973 44.011L387.981 44.022L390.009 42.56ZM387.961 36.096V33.596H385.416L385.461 36.1399L387.961 36.096ZM394.169 36.096L396.656 35.8422L396.426 33.596H394.169V36.096ZM396.729 41.408L394.987 43.2012L395.013 43.2264L395.039 43.2509L396.729 41.408ZM409.913 41.472L411.548 43.3629L411.552 43.3596L409.913 41.472ZM410.937 31.936L409.06 33.5876L409.06 33.5876L410.937 31.936ZM407.417 29.504L406.5 31.83L406.5 31.83L407.417 29.504ZM401.721 27.712L402.367 25.2971L402.359 25.295L402.352 25.293L401.721 27.712ZM394.617 25.408L393.612 27.6971L393.622 27.7015L393.632 27.7059L394.617 25.408ZM390.073 21.824L388.066 23.3158L388.088 23.3448L388.11 23.3731L390.073 21.824ZM390.073 8.704L392.16 10.0798L392.16 10.0798L390.073 8.704ZM395.257 4.352L394.225 2.07461L394.217 2.07833L394.209 2.0821L395.257 4.352ZM413.241 5.952L411.69 7.9134L411.698 7.91942L411.706 7.92538L413.241 5.952ZM417.785 14.272V16.772H420.544L420.272 14.0263L417.785 14.272ZM411.385 14.272L408.904 14.5821L409.178 16.772H411.385V14.272ZM408.697 9.792L407.091 11.7083L407.106 11.7212L407.122 11.7339L408.697 9.792ZM396.473 9.728L398.041 11.6749L398.057 11.6618L398.073 11.6486L396.473 9.728ZM395.513 18.944L393.631 20.5903L393.65 20.612L393.67 20.6333L395.513 18.944ZM398.905 21.312L397.938 23.6175L397.982 23.636L398.027 23.6528L398.905 21.312ZM404.601 23.104L403.925 25.511L403.937 25.5143L404.601 23.104ZM411.705 25.536L410.674 27.8138L410.697 27.824L410.72 27.8339L411.705 25.536ZM416.312 29.184L414.331 30.7083L414.341 30.7208L414.35 30.7331L416.312 29.184ZM416.505 41.984L418.648 43.2702L418.648 43.2702L416.505 41.984ZM411.385 46.656L410.217 44.4455L411.385 46.656ZM403.385 45.948C400.733 45.948 398.436 45.4879 396.448 44.6207L394.449 49.2033C397.154 50.3841 400.148 50.948 403.385 50.948V45.948ZM396.499 44.6433C394.536 43.7346 393.078 42.5432 392.036 41.098L387.981 44.022C389.584 46.2461 391.753 47.9561 394.398 49.1807L396.499 44.6433ZM392.052 41.1201C391.035 39.6768 390.495 38.0149 390.46 36.0521L385.461 36.1399C385.512 39.0411 386.336 41.6885 387.965 43.9999L392.052 41.1201ZM387.961 38.596H394.169V33.596H387.961V38.596ZM391.681 36.3498C391.954 39.0192 393.067 41.3367 394.987 43.2012L398.47 39.6148C397.403 38.5779 396.81 37.3541 396.656 35.8422L391.681 36.3498ZM395.039 43.2509C397.19 45.2228 400.104 46.02 403.385 46.02V41.02C400.862 41.02 399.339 40.4092 398.418 39.5651L395.039 43.2509ZM403.385 46.02C406.558 46.02 409.384 45.2347 411.548 43.3629L408.277 39.5811C407.284 40.44 405.757 41.02 403.385 41.02V46.02ZM411.552 43.3596C413.728 41.4695 414.845 38.9851 414.845 36.096H409.845C409.845 37.5589 409.34 38.6585 408.273 39.5844L411.552 43.3596ZM414.845 36.096C414.845 33.9097 414.231 31.8955 412.813 30.2844L409.06 33.5876C409.519 34.1098 409.845 34.8689 409.845 36.096H414.845ZM412.813 30.2844C411.596 28.9006 410.085 27.8684 408.333 27.178L406.5 31.83C407.564 32.249 408.4 32.838 409.06 33.5876L412.813 30.2844ZM408.333 27.178C406.799 26.5739 404.799 25.9484 402.367 25.2971L401.074 30.1269C403.421 30.7556 405.218 31.3248 406.5 31.83L408.333 27.178ZM402.352 25.293C399.469 24.5411 397.234 23.8097 395.601 23.1101L393.632 27.7059C395.583 28.5423 398.084 29.3469 401.089 30.131L402.352 25.293ZM395.621 23.1189C394.277 22.5286 393.082 21.6017 392.035 20.2749L388.11 23.3731C389.623 25.289 391.457 26.7514 393.612 27.6971L395.621 23.1189ZM392.079 20.3322C391.255 19.2243 390.717 17.5836 390.717 15.168H385.717C385.717 18.299 386.416 21.0957 388.066 23.3158L392.079 20.3322ZM390.717 15.168C390.717 13.1833 391.214 11.5152 392.16 10.0798L387.985 7.32821C386.457 9.64742 385.717 12.2887 385.717 15.168H390.717ZM392.16 10.0798C393.119 8.62519 394.471 7.46818 396.304 6.6219L394.209 2.0821C391.605 3.28381 389.501 5.02814 387.985 7.32822L392.16 10.0798ZM396.288 6.62938C398.175 5.77481 400.395 5.316 403.001 5.316V0.315998C399.803 0.315998 396.861 0.881185 394.225 2.07461L396.288 6.62938ZM403.001 5.316C406.758 5.316 409.584 6.24864 411.69 7.9134L414.791 3.9906C411.606 1.47403 407.606 0.315998 403.001 0.315998V5.316ZM411.706 7.92538C413.841 9.58584 415.021 11.7286 415.297 14.5177L420.272 14.0263C419.865 9.90337 418.016 6.49949 414.775 3.97862L411.706 7.92538ZM417.785 11.772H411.385V16.772H417.785V11.772ZM413.865 13.9619C413.557 11.5003 412.254 9.45772 410.271 7.85011L407.122 11.7339C408.297 12.6863 408.785 13.6304 408.904 14.5821L413.865 13.9619ZM410.302 7.8757C408.165 6.0852 405.455 5.308 402.425 5.308V10.308C404.599 10.308 406.071 10.8535 407.091 11.7083L410.302 7.8757ZM402.425 5.308C399.539 5.308 396.949 6.07679 394.872 7.80744L398.073 11.6486C399.068 10.8192 400.446 10.308 402.425 10.308V5.308ZM394.904 7.78111C392.688 9.56611 391.669 12.0829 391.669 14.976H396.669C396.669 13.3464 397.185 12.3645 398.041 11.6749L394.904 7.78111ZM391.669 14.976C391.669 17.0809 392.263 19.0264 393.631 20.5903L397.394 17.2977C396.97 16.8136 396.669 16.1138 396.669 14.976H391.669ZM393.67 20.6333C394.86 21.9323 396.293 22.9278 397.938 23.6175L399.871 19.0065C398.871 18.5869 398.042 18.0037 397.355 17.2547L393.67 20.6333ZM398.027 23.6528C399.489 24.2013 401.466 24.8208 403.925 25.511L405.276 20.697C402.871 20.0219 401.05 19.4467 399.782 18.9712L398.027 23.6528ZM403.937 25.5143C406.816 26.3071 409.047 27.0776 410.674 27.8138L412.735 23.2582C410.778 22.3731 408.273 21.5223 405.264 20.6937L403.937 25.5143ZM410.72 27.8339C412.089 28.4206 413.291 29.3563 414.331 30.7083L418.294 27.6597C416.774 25.6837 414.904 24.1874 412.689 23.2381L410.72 27.8339ZM414.35 30.7331C415.174 31.777 415.733 33.3837 415.733 35.84H420.733C420.733 32.6643 420.011 29.8337 418.275 27.6349L414.35 30.7331ZM415.733 35.84C415.733 37.5493 415.287 39.1545 414.361 40.6978L418.648 43.2702C420.026 40.9735 420.733 38.4827 420.733 35.84H415.733ZM414.361 40.6978C413.475 42.1732 412.133 43.4331 410.217 44.4455L412.552 48.8665C415.159 47.4895 417.23 45.6348 418.648 43.2702L414.361 40.6978ZM410.217 44.4455C408.381 45.4154 406.131 45.948 403.385 45.948V50.948C406.782 50.948 409.865 50.286 412.552 48.8665L410.217 44.4455ZM432.499 3.392H434.999V0.891998H432.499V3.392ZM435.379 40.448L433.611 42.2158L433.621 42.2255L433.631 42.2351L435.379 40.448ZM451.507 40.448L449.759 38.6609L449.749 38.6705L449.739 38.6802L451.507 40.448ZM454.451 3.392V0.891998H451.951V3.392H454.451ZM460.275 3.392H462.775V0.891998H460.275V3.392ZM458.035 40.96L460.185 42.2355L460.19 42.2276L460.194 42.2197L458.035 40.96ZM451.955 46.592L450.867 44.3411L450.86 44.3447L450.852 44.3484L451.955 46.592ZM434.867 46.592L433.764 48.8356L433.772 48.8393L433.779 48.8429L434.867 46.592ZM428.851 40.96L426.676 42.1925L426.688 42.2141L426.701 42.2355L428.851 40.96ZM426.675 3.392V0.891998H424.175V3.392H426.675ZM429.999 3.392V31.616H434.999V3.392H429.999ZM429.999 31.616C429.999 35.9416 431.043 39.6479 433.611 42.2158L437.147 38.6802C435.875 37.4081 434.999 35.2264 434.999 31.616H429.999ZM433.631 42.2351C436.174 44.7228 439.575 45.828 443.507 45.828V40.828C440.527 40.828 438.51 40.0132 437.127 38.6609L433.631 42.2351ZM443.507 45.828C447.404 45.828 450.773 44.718 453.275 42.2158L449.739 38.6802C448.401 40.018 446.437 40.828 443.507 40.828V45.828ZM453.255 42.2351C455.878 39.6692 456.951 35.9553 456.951 31.616H451.951C451.951 35.2127 451.061 37.3868 449.759 38.6609L453.255 42.2351ZM456.951 31.616V3.392H451.951V31.616H456.951ZM454.451 5.892H460.275V0.891998H454.451V5.892ZM457.775 3.392V31.552H462.775V3.392H457.775ZM457.775 31.552C457.775 34.9318 457.096 37.6079 455.876 39.7003L460.194 42.2197C461.961 39.1921 462.775 35.5962 462.775 31.552H457.775ZM455.885 39.6845C454.634 41.7926 452.971 43.3241 450.867 44.3411L453.043 48.8429C456.059 47.3852 458.449 45.1621 460.185 42.2355L455.885 39.6845ZM450.852 44.3484C448.719 45.3969 446.266 45.948 443.443 45.948V50.948C446.934 50.948 450.156 50.2617 453.058 48.8356L450.852 44.3484ZM443.443 45.948C440.62 45.948 438.14 45.3971 435.955 44.3411L433.779 48.8429C436.714 50.2615 439.951 50.948 443.443 50.948V45.948ZM435.97 44.3484C433.908 43.3348 432.258 41.8034 431.001 39.6845L426.701 42.2355C428.431 45.1513 430.792 47.3745 433.764 48.8356L435.97 44.3484ZM431.026 39.7275C429.837 37.6294 429.175 34.9431 429.175 31.552H424.175C424.175 35.5849 424.963 39.1706 426.676 42.1925L431.026 39.7275ZM429.175 31.552V3.392H424.175V31.552H429.175ZM426.675 5.892H432.499V0.891998H426.675V5.892ZM475.815 43.264H473.315V45.764H475.815V43.264ZM491.431 43.264H493.931V40.764H491.431V43.264ZM491.431 48V50.5H493.931V48H491.431ZM469.991 48H467.491V50.5H469.991V48ZM469.991 3.392V0.891998H467.491V3.392H469.991ZM475.815 3.392H478.315V0.891998H475.815V3.392ZM475.815 45.764H491.431V40.764H475.815V45.764ZM488.931 43.264V48H493.931V43.264H488.931ZM491.431 45.5H469.991V50.5H491.431V45.5ZM472.491 48V3.392H467.491V48H472.491ZM469.991 5.892H475.815V0.891998H469.991V5.892ZM473.315 3.392V43.264H478.315V3.392H473.315ZM525.072 3.392H527.572V0.891998H525.072V3.392ZM525.072 8.128V10.628H527.572V8.128H525.072ZM512.912 8.128V5.628H510.412V8.128H512.912ZM512.912 48V50.5H515.412V48H512.912ZM507.088 48H504.588V50.5H507.088V48ZM507.088 8.128H509.588V5.628H507.088V8.128ZM494.864 8.128H492.364V10.628H494.864V8.128ZM494.864 3.392V0.891998H492.364V3.392H494.864ZM522.572 3.392V8.128H527.572V3.392H522.572ZM525.072 5.628H512.912V10.628H525.072V5.628ZM510.412 8.128V48H515.412V8.128H510.412ZM512.912 45.5H507.088V50.5H512.912V45.5ZM509.588 48V8.128H504.588V48H509.588ZM507.088 5.628H494.864V10.628H507.088V5.628ZM497.364 8.128V3.392H492.364V8.128H497.364ZM494.864 5.892H525.072V0.891998H494.864V5.892Z" fill="black"/>
</g>
<defs>
<filter id="filter0_d" x="0.252014" y="0.315994" width="531.32" height="58.632" filterUnits="userSpaceOnUse" color-interpolation-filters="sRGB">
<feFlood flood-opacity="0" result="BackgroundImageFix"/>
<feColorMatrix in="SourceAlpha" type="matrix" values="0 0 0 0 0 0 0 0 0 0 0 0 0 0 0 0 0 0 127 0"/>
<feOffset dy="4"/>
<feGaussianBlur stdDeviation="2"/>
<feColorMatrix type="matrix" values="0 0 0 0 0 0 0 0 0 0 0 0 0 0 0 0 0 0 0.25 0"/>
<feBlend mode="normal" in2="BackgroundImageFix" result="effect1_dropShadow"/>
<feBlend mode="normal" in="SourceGraphic" in2="effect1_dropShadow" result="shape"/>
</filter>
</defs>
</svg>
