<svg width="548" height="59" viewBox="0 0 548 59" fill="none" xmlns="http://www.w3.org/2000/svg">
<g filter="url(#filter0_d)">
<path d="M29.3158 48.448C25.1771 48.448 21.4011 47.488 17.9878 45.568C14.5744 43.6053 11.8651 40.896 9.85976 37.44C7.89709 33.9413 6.91576 30.016 6.91576 25.664C6.91576 21.312 7.89709 17.408 9.85976 13.952C11.8651 10.4533 14.5744 7.744 17.9878 5.824C21.4011 3.86133 25.1771 2.88 29.3158 2.88C33.4971 2.88 37.2944 3.86133 40.7078 5.824C44.1211 7.744 46.8091 10.432 48.7718 13.888C50.7344 17.344 51.7158 21.2693 51.7158 25.664C51.7158 30.0587 50.7344 33.984 48.7718 37.44C46.8091 40.896 44.1211 43.6053 40.7078 45.568C37.2944 47.488 33.4971 48.448 29.3158 48.448ZM29.3158 43.392C32.4304 43.392 35.2251 42.6667 37.6998 41.216C40.2171 39.7653 42.1798 37.696 43.5878 35.008C45.0384 32.32 45.7638 29.2053 45.7638 25.664C45.7638 22.08 45.0384 18.9653 43.5878 16.32C42.1798 13.632 40.2384 11.5627 37.7638 10.112C35.2891 8.66133 32.4731 7.936 29.3158 7.936C26.1584 7.936 23.3424 8.66133 20.8678 10.112C18.3931 11.5627 16.4304 13.632 14.9798 16.32C13.5718 18.9653 12.8678 22.08 12.8678 25.664C12.8678 29.2053 13.5718 32.32 14.9798 35.008C16.4304 37.696 18.3931 39.7653 20.8678 41.216C23.3851 42.6667 26.2011 43.392 29.3158 43.392ZM84.1723 48L73.5483 29.76H66.5083V48H60.6843V3.392H75.0843C78.4549 3.392 81.2923 3.968 83.5963 5.12C85.9429 6.272 87.6923 7.82933 88.8443 9.792C89.9963 11.7547 90.5723 13.9947 90.5723 16.512C90.5723 19.584 89.6763 22.2933 87.8843 24.64C86.1349 26.9867 83.4896 28.544 79.9483 29.312L91.1483 48H84.1723ZM66.5083 25.088H75.0843C78.2416 25.088 80.6096 24.32 82.1883 22.784C83.7669 21.2053 84.5563 19.1147 84.5563 16.512C84.5563 13.8667 83.7669 11.8187 82.1883 10.368C80.6523 8.91733 78.2843 8.192 75.0843 8.192H66.5083V25.088ZM128.358 3.392V8.128H116.198V48H110.374V8.128H98.1498V3.392H128.358ZM171.175 3.392V48H165.351V27.776H142.631V48H136.807V3.392H142.631V22.976H165.351V3.392H171.175ZM202.623 48.448C198.485 48.448 194.709 47.488 191.295 45.568C187.882 43.6053 185.173 40.896 183.167 37.44C181.205 33.9413 180.223 30.016 180.223 25.664C180.223 21.312 181.205 17.408 183.167 13.952C185.173 10.4533 187.882 7.744 191.295 5.824C194.709 3.86133 198.485 2.88 202.623 2.88C206.805 2.88 210.602 3.86133 214.015 5.824C217.429 7.744 220.117 10.432 222.079 13.888C224.042 17.344 225.023 21.2693 225.023 25.664C225.023 30.0587 224.042 33.984 222.079 37.44C220.117 40.896 217.429 43.6053 214.015 45.568C210.602 47.488 206.805 48.448 202.623 48.448ZM202.623 43.392C205.738 43.392 208.533 42.6667 211.007 41.216C213.525 39.7653 215.487 37.696 216.895 35.008C218.346 32.32 219.071 29.2053 219.071 25.664C219.071 22.08 218.346 18.9653 216.895 16.32C215.487 13.632 213.546 11.5627 211.071 10.112C208.597 8.66133 205.781 7.936 202.623 7.936C199.466 7.936 196.65 8.66133 194.175 10.112C191.701 11.5627 189.738 13.632 188.287 16.32C186.879 18.9653 186.175 22.08 186.175 25.664C186.175 29.2053 186.879 32.32 188.287 35.008C189.738 37.696 191.701 39.7653 194.175 41.216C196.693 42.6667 199.509 43.392 202.623 43.392ZM250.158 25.664C250.158 21.312 251.14 17.408 253.102 13.952C255.065 10.4533 257.732 7.72267 261.102 5.76C264.516 3.79733 268.292 2.816 272.43 2.816C277.294 2.816 281.54 3.98933 285.166 6.336C288.793 8.68267 291.438 12.0107 293.102 16.32H286.126C284.889 13.632 283.097 11.5627 280.75 10.112C278.446 8.66133 275.673 7.936 272.43 7.936C269.316 7.936 266.521 8.66133 264.046 10.112C261.572 11.5627 259.63 13.632 258.222 16.32C256.814 18.9653 256.11 22.08 256.11 25.664C256.11 29.2053 256.814 32.32 258.222 35.008C259.63 37.6533 261.572 39.7013 264.046 41.152C266.521 42.6027 269.316 43.328 272.43 43.328C275.673 43.328 278.446 42.624 280.75 41.216C283.097 39.7653 284.889 37.696 286.126 35.008H293.102C291.438 39.2747 288.793 42.5813 285.166 44.928C281.54 47.232 277.294 48.384 272.43 48.384C268.292 48.384 264.516 47.424 261.102 45.504C257.732 43.5413 255.065 40.832 253.102 37.376C251.14 33.92 250.158 30.016 250.158 25.664ZM323.276 48.448C319.137 48.448 315.361 47.488 311.948 45.568C308.534 43.6053 305.825 40.896 303.82 37.44C301.857 33.9413 300.876 30.016 300.876 25.664C300.876 21.312 301.857 17.408 303.82 13.952C305.825 10.4533 308.534 7.744 311.948 5.824C315.361 3.86133 319.137 2.88 323.276 2.88C327.457 2.88 331.254 3.86133 334.668 5.824C338.081 7.744 340.769 10.432 342.732 13.888C344.694 17.344 345.676 21.2693 345.676 25.664C345.676 30.0587 344.694 33.984 342.732 37.44C340.769 40.896 338.081 43.6053 334.668 45.568C331.254 47.488 327.457 48.448 323.276 48.448ZM323.276 43.392C326.39 43.392 329.185 42.6667 331.66 41.216C334.177 39.7653 336.14 37.696 337.548 35.008C338.998 32.32 339.724 29.2053 339.724 25.664C339.724 22.08 338.998 18.9653 337.548 16.32C336.14 13.632 334.198 11.5627 331.724 10.112C329.249 8.66133 326.433 7.936 323.276 7.936C320.118 7.936 317.302 8.66133 314.828 10.112C312.353 11.5627 310.39 13.632 308.94 16.32C307.532 18.9653 306.828 22.08 306.828 25.664C306.828 29.2053 307.532 32.32 308.94 35.008C310.39 37.696 312.353 39.7653 314.828 41.216C317.345 42.6667 320.161 43.392 323.276 43.392ZM389.716 48H383.892L360.468 12.48V48H354.644V3.328H360.468L383.892 38.784V3.328H389.716V48ZM415.068 48.448C412.124 48.448 409.479 47.936 407.132 46.912C404.828 45.8453 403.015 44.3947 401.692 42.56C400.37 40.6827 399.687 38.528 399.644 36.096H405.852C406.066 38.1867 406.919 39.9573 408.412 41.408C409.948 42.816 412.167 43.52 415.068 43.52C417.842 43.52 420.018 42.8373 421.596 41.472C423.218 40.064 424.028 38.272 424.028 36.096C424.028 34.3893 423.559 33.0027 422.62 31.936C421.682 30.8693 420.508 30.0587 419.1 29.504C417.692 28.9493 415.794 28.352 413.404 27.712C410.46 26.944 408.092 26.176 406.3 25.408C404.551 24.64 403.036 23.4453 401.756 21.824C400.519 20.16 399.9 17.9413 399.9 15.168C399.9 12.736 400.519 10.5813 401.756 8.704C402.994 6.82666 404.722 5.376 406.94 4.352C409.202 3.328 411.783 2.816 414.684 2.816C418.866 2.816 422.279 3.86133 424.924 5.952C427.612 8.04266 429.127 10.816 429.468 14.272H423.068C422.855 12.5653 421.959 11.072 420.38 9.792C418.802 8.46933 416.711 7.808 414.108 7.808C411.676 7.808 409.692 8.448 408.156 9.728C406.62 10.9653 405.852 12.7147 405.852 14.976C405.852 16.5973 406.3 17.92 407.196 18.944C408.135 19.968 409.266 20.7573 410.588 21.312C411.954 21.824 413.852 22.4213 416.284 23.104C419.228 23.9147 421.596 24.7253 423.388 25.536C425.18 26.304 426.716 27.52 427.996 29.184C429.276 30.8053 429.916 33.024 429.916 35.84C429.916 38.016 429.34 40.064 428.188 41.984C427.036 43.904 425.33 45.4613 423.068 46.656C420.807 47.8507 418.14 48.448 415.068 48.448ZM445.463 3.392V31.616C445.463 35.584 446.423 38.528 448.343 40.448C450.305 42.368 453.015 43.328 456.471 43.328C459.884 43.328 462.551 42.368 464.471 40.448C466.433 38.528 467.415 35.584 467.415 31.616V3.392H473.239V31.552C473.239 35.264 472.492 38.4 470.999 40.96C469.505 43.4773 467.479 45.3547 464.919 46.592C462.401 47.8293 459.564 48.448 456.407 48.448C453.249 48.448 450.391 47.8293 447.831 46.592C445.313 45.3547 443.308 43.4773 441.815 40.96C440.364 38.4 439.639 35.264 439.639 31.552V3.392H445.463ZM490.058 43.264H505.674V48H484.234V3.392H490.058V43.264ZM540.595 3.392V8.128H528.435V48H522.611V8.128H510.387V3.392H540.595Z" fill="#AF3434" fill-opacity="0.25"/>
<path d="M17.9878 45.568L16.7416 47.7353L16.7518 47.7412L16.7621 47.7469L17.9878 45.568ZM9.85976 37.44L7.6794 38.6631L7.68829 38.679L7.69741 38.6947L9.85976 37.44ZM9.85976 13.952L7.69076 12.7088L7.68585 12.7174L9.85976 13.952ZM17.9878 5.824L19.2134 8.00294L19.2237 7.99715L19.2339 7.99126L17.9878 5.824ZM40.7078 5.824L39.4616 7.99126L39.4718 7.99715L39.4821 8.00294L40.7078 5.824ZM48.7718 13.888L50.9457 12.6534L50.9457 12.6534L48.7718 13.888ZM40.7078 45.568L41.9334 47.7469L41.9437 47.7412L41.9539 47.7353L40.7078 45.568ZM37.6998 41.216L36.4515 39.0499L36.4435 39.0546L36.4355 39.0593L37.6998 41.216ZM43.5878 35.008L41.3877 33.8207L41.3804 33.8343L41.3732 33.848L43.5878 35.008ZM43.5878 16.32L41.3732 17.48L41.3843 17.5012L41.3957 17.5221L43.5878 16.32ZM37.7638 10.112L36.4995 12.2687L36.4995 12.2687L37.7638 10.112ZM20.8678 10.112L22.1321 12.2687L22.1321 12.2687L20.8678 10.112ZM14.9798 16.32L12.7797 15.1327L12.7763 15.139L12.7729 15.1454L14.9798 16.32ZM14.9798 35.008L12.7652 36.168L12.7724 36.1817L12.7797 36.1953L14.9798 35.008ZM20.8678 41.216L19.6035 43.3727L19.6115 43.3774L19.6195 43.3821L20.8678 41.216ZM29.3158 45.948C25.5812 45.948 22.2311 45.0865 19.2134 43.3891L16.7621 47.7469C20.5711 49.8895 24.773 50.948 29.3158 50.948V45.948ZM19.2339 43.4007C16.2066 41.66 13.8108 39.2679 12.0221 36.1853L7.69741 38.6947C9.9194 42.5241 12.9422 45.5506 16.7416 47.7353L19.2339 43.4007ZM12.0401 36.2169C10.3046 33.1231 9.41576 29.625 9.41576 25.664H4.41576C4.41576 30.407 5.48959 34.7596 7.6794 38.6631L12.0401 36.2169ZM9.41576 25.664C9.41576 21.7026 10.3047 18.2311 12.0337 15.1866L7.68585 12.7174C5.48953 16.5849 4.41576 20.9214 4.41576 25.664H9.41576ZM12.0287 15.1952C13.8168 12.0756 16.2052 9.69503 19.2134 8.00294L16.7621 3.64506C12.9436 5.79296 9.9134 8.83103 7.69078 12.7088L12.0287 15.1952ZM19.2339 7.99126C22.2485 6.2579 25.5912 5.38 29.3158 5.38V0.379997C24.763 0.379997 20.5537 1.46476 16.7416 3.65673L19.2339 7.99126ZM29.3158 5.38C33.0878 5.38 36.451 6.26019 39.4616 7.99126L41.9539 3.65673C38.1378 1.46247 33.9063 0.379997 29.3158 0.379997V5.38ZM39.4821 8.00294C42.4933 9.69671 44.8561 12.0555 46.5979 15.1226L50.9457 12.6534C48.7621 8.8085 45.7489 5.79129 41.9334 3.64506L39.4821 8.00294ZM46.5979 15.1226C48.3248 18.1634 49.2158 21.6553 49.2158 25.664H54.2158C54.2158 20.8834 53.1441 16.5246 50.9457 12.6534L46.5979 15.1226ZM49.2158 25.664C49.2158 29.6727 48.3248 33.1646 46.5979 36.2054L50.9457 38.6746C53.1441 34.8034 54.2158 30.4446 54.2158 25.664H49.2158ZM46.5979 36.2054C44.8534 39.2771 42.4841 41.6628 39.4616 43.4007L41.9539 47.7353C45.758 45.5479 48.7647 42.5149 50.9457 38.6746L46.5979 36.2054ZM39.4821 43.3891C36.4683 45.0843 33.0978 45.948 29.3158 45.948V50.948C33.8964 50.948 38.1205 49.8917 41.9334 47.7469L39.4821 43.3891ZM29.3158 45.892C32.8355 45.892 36.0734 45.0673 38.9641 43.3727L36.4355 39.0593C34.3768 40.266 32.0253 40.892 29.3158 40.892V45.892ZM38.948 43.3821C41.8952 41.6837 44.1845 39.2566 45.8023 36.168L41.3732 33.848C40.175 36.1354 38.539 37.8469 36.4515 39.0499L38.948 43.3821ZM45.7878 36.1953C47.4647 33.0882 48.2638 29.5534 48.2638 25.664H43.2638C43.2638 28.8573 42.6122 31.5518 41.3877 33.8207L45.7878 36.1953ZM48.2638 25.664C48.2638 21.7387 47.4673 18.1952 45.7798 15.1179L41.3957 17.5221C42.6095 19.7354 43.2638 22.4212 43.2638 25.664H48.2638ZM45.8023 15.16C44.1903 12.0824 41.9303 9.65657 39.0281 7.95525L36.4995 12.2687C38.5465 13.4688 40.1692 15.1816 41.3732 17.48L45.8023 15.16ZM39.0281 7.95525C36.1321 6.25763 32.8715 5.436 29.3158 5.436V10.436C32.0747 10.436 34.4461 11.065 36.4995 12.2687L39.0281 7.95525ZM29.3158 5.436C25.76 5.436 22.4994 6.25763 19.6035 7.95526L22.1321 12.2687C24.1855 11.065 26.5569 10.436 29.3158 10.436V5.436ZM19.6035 7.95525C16.7082 9.65247 14.433 12.0692 12.7797 15.1327L17.1798 17.5073C18.4278 15.1948 20.078 13.4729 22.1321 12.2687L19.6035 7.95525ZM12.7729 15.1454C11.1381 18.2168 10.3678 21.7503 10.3678 25.664H15.3678C15.3678 22.4097 16.0054 19.7138 17.1866 17.4946L12.7729 15.1454ZM10.3678 25.664C10.3678 29.5418 11.1407 33.0666 12.7652 36.168L17.1943 33.848C16.0029 31.5733 15.3678 28.8689 15.3678 25.664H10.3678ZM12.7797 36.1953C14.433 39.2588 16.7082 41.6755 19.6035 43.3727L22.1321 39.0593C20.078 37.8551 18.4278 36.1332 17.1798 33.8207L12.7797 36.1953ZM19.6195 43.3821C22.5438 45.0673 25.7956 45.892 29.3158 45.892V40.892C26.6066 40.892 24.2264 40.2661 22.116 39.0499L19.6195 43.3821ZM84.1723 48L82.012 49.2583L82.7352 50.5H84.1723V48ZM73.5483 29.76L75.7085 28.5017L74.9853 27.26H73.5483V29.76ZM66.5083 29.76V27.26H64.0083V29.76H66.5083ZM66.5083 48V50.5H69.0083V48H66.5083ZM60.6843 48H58.1843V50.5H60.6843V48ZM60.6843 3.392V0.891998H58.1843V3.392H60.6843ZM83.5963 5.12L82.4782 7.35607L82.4864 7.36015L82.4946 7.36417L83.5963 5.12ZM87.8843 24.64L85.8973 23.1227L85.8885 23.1342L85.8799 23.1458L87.8843 24.64ZM79.9483 29.312L79.4184 26.8688L76.0121 27.6075L77.8039 30.5972L79.9483 29.312ZM91.1483 48V50.5H95.5611L93.2926 46.7148L91.1483 48ZM66.5083 25.088H64.0083V27.588H66.5083V25.088ZM82.1883 22.784L83.9316 24.5758L83.9439 24.5639L83.956 24.5518L82.1883 22.784ZM82.1883 10.368L80.4717 12.1855L80.4841 12.1973L80.4967 12.2088L82.1883 10.368ZM66.5083 8.192V5.692H64.0083V8.192H66.5083ZM86.3325 46.7417L75.7085 28.5017L71.388 31.0183L82.012 49.2583L86.3325 46.7417ZM73.5483 27.26H66.5083V32.26H73.5483V27.26ZM64.0083 29.76V48H69.0083V29.76H64.0083ZM66.5083 45.5H60.6843V50.5H66.5083V45.5ZM63.1843 48V3.392H58.1843V48H63.1843ZM60.6843 5.892H75.0843V0.891998H60.6843V5.892ZM75.0843 5.892C78.182 5.892 80.6115 6.42271 82.4782 7.35607L84.7143 2.88393C81.973 1.51329 78.7278 0.891998 75.0843 0.891998V5.892ZM82.4946 7.36417C84.4687 8.33328 85.8195 9.57754 86.6882 11.0575L91.0003 8.5265C89.565 6.08112 87.4172 4.21072 84.6979 2.87583L82.4946 7.36417ZM86.6882 11.0575C87.5917 12.5967 88.0723 14.3911 88.0723 16.512H93.0723C93.0723 13.5982 92.4009 10.9126 91.0003 8.5265L86.6882 11.0575ZM88.0723 16.512C88.0723 19.0595 87.3424 21.2304 85.8973 23.1227L89.8712 26.1573C92.0101 23.3563 93.0723 20.1085 93.0723 16.512H88.0723ZM85.8799 23.1458C84.5715 24.901 82.5156 26.1971 79.4184 26.8688L80.4781 31.7552C84.4636 30.8909 87.6983 29.0724 89.8886 26.1342L85.8799 23.1458ZM77.8039 30.5972L89.0039 49.2852L93.2926 46.7148L82.0926 28.0268L77.8039 30.5972ZM91.1483 45.5H84.1723V50.5H91.1483V45.5ZM66.5083 27.588H75.0843V22.588H66.5083V27.588ZM75.0843 27.588C78.61 27.588 81.7167 26.7309 83.9316 24.5758L80.4449 20.9922C79.5025 21.9091 77.8731 22.588 75.0843 22.588V27.588ZM83.956 24.5518C86.0813 22.4265 87.0563 19.659 87.0563 16.512H82.0563C82.0563 18.5703 81.4526 19.9842 80.4205 21.0162L83.956 24.5518ZM87.0563 16.512C87.0563 13.3429 86.0904 10.5585 83.8798 8.52718L80.4967 12.2088C81.4435 13.0788 82.0563 14.3904 82.0563 16.512H87.0563ZM83.9048 8.55047C81.7149 6.48217 78.602 5.692 75.0843 5.692V10.692C77.9665 10.692 79.5897 11.3525 80.4717 12.1855L83.9048 8.55047ZM75.0843 5.692H66.5083V10.692H75.0843V5.692ZM64.0083 8.192V25.088H69.0083V8.192H64.0083ZM128.358 3.392H130.858V0.891998H128.358V3.392ZM128.358 8.128V10.628H130.858V8.128H128.358ZM116.198 8.128V5.628H113.698V8.128H116.198ZM116.198 48V50.5H118.698V48H116.198ZM110.374 48H107.874V50.5H110.374V48ZM110.374 8.128H112.874V5.628H110.374V8.128ZM98.1498 8.128H95.6498V10.628H98.1498V8.128ZM98.1498 3.392V0.891998H95.6498V3.392H98.1498ZM125.858 3.392V8.128H130.858V3.392H125.858ZM128.358 5.628H116.198V10.628H128.358V5.628ZM113.698 8.128V48H118.698V8.128H113.698ZM116.198 45.5H110.374V50.5H116.198V45.5ZM112.874 48V8.128H107.874V48H112.874ZM110.374 5.628H98.1498V10.628H110.374V5.628ZM100.65 8.128V3.392H95.6498V8.128H100.65ZM98.1498 5.892H128.358V0.891998H98.1498V5.892ZM171.175 3.392H173.675V0.891998H171.175V3.392ZM171.175 48V50.5H173.675V48H171.175ZM165.351 48H162.851V50.5H165.351V48ZM165.351 27.776H167.851V25.276H165.351V27.776ZM142.631 27.776V25.276H140.131V27.776H142.631ZM142.631 48V50.5H145.131V48H142.631ZM136.807 48H134.307V50.5H136.807V48ZM136.807 3.392V0.891998H134.307V3.392H136.807ZM142.631 3.392H145.131V0.891998H142.631V3.392ZM142.631 22.976H140.131V25.476H142.631V22.976ZM165.351 22.976V25.476H167.851V22.976H165.351ZM165.351 3.392V0.891998H162.851V3.392H165.351ZM168.675 3.392V48H173.675V3.392H168.675ZM171.175 45.5H165.351V50.5H171.175V45.5ZM167.851 48V27.776H162.851V48H167.851ZM165.351 25.276H142.631V30.276H165.351V25.276ZM140.131 27.776V48H145.131V27.776H140.131ZM142.631 45.5H136.807V50.5H142.631V45.5ZM139.307 48V3.392H134.307V48H139.307ZM136.807 5.892H142.631V0.891998H136.807V5.892ZM140.131 3.392V22.976H145.131V3.392H140.131ZM142.631 25.476H165.351V20.476H142.631V25.476ZM167.851 22.976V3.392H162.851V22.976H167.851ZM165.351 5.892H171.175V0.891998H165.351V5.892ZM191.295 45.568L190.049 47.7353L190.059 47.7412L190.07 47.7469L191.295 45.568ZM183.167 37.44L180.987 38.6631L180.996 38.679L181.005 38.6947L183.167 37.44ZM183.167 13.952L180.998 12.7088L180.993 12.7174L183.167 13.952ZM191.295 5.824L192.521 8.00294L192.531 7.99715L192.541 7.99126L191.295 5.824ZM214.015 5.824L212.769 7.99126L212.779 7.99715L212.79 8.00294L214.015 5.824ZM222.079 13.888L224.253 12.6534L224.253 12.6534L222.079 13.888ZM214.015 45.568L215.241 47.7469L215.251 47.7412L215.261 47.7353L214.015 45.568ZM211.007 41.216L209.759 39.0499L209.751 39.0546L209.743 39.0593L211.007 41.216ZM216.895 35.008L214.695 33.8207L214.688 33.8343L214.681 33.848L216.895 35.008ZM216.895 16.32L214.681 17.48L214.692 17.5012L214.703 17.5221L216.895 16.32ZM211.071 10.112L209.807 12.2687L209.807 12.2687L211.071 10.112ZM194.175 10.112L195.44 12.2687L195.44 12.2687L194.175 10.112ZM188.287 16.32L186.087 15.1327L186.084 15.139L186.08 15.1454L188.287 16.32ZM188.287 35.008L186.073 36.168L186.08 36.1817L186.087 36.1953L188.287 35.008ZM194.175 41.216L192.911 43.3727L192.919 43.3774L192.927 43.3821L194.175 41.216ZM202.623 45.948C198.889 45.948 195.539 45.0865 192.521 43.3891L190.07 47.7469C193.879 49.8895 198.081 50.948 202.623 50.948V45.948ZM192.541 43.4007C189.514 41.66 187.118 39.2679 185.33 36.1853L181.005 38.6947C183.227 42.5241 186.25 45.5506 190.049 47.7353L192.541 43.4007ZM185.348 36.2169C183.612 33.1231 182.723 29.625 182.723 25.664H177.723C177.723 30.407 178.797 34.7596 180.987 38.6631L185.348 36.2169ZM182.723 25.664C182.723 21.7026 183.612 18.2311 185.341 15.1866L180.993 12.7174C178.797 16.5849 177.723 20.9214 177.723 25.664H182.723ZM185.336 15.1952C187.124 12.0756 189.513 9.69503 192.521 8.00294L190.07 3.64506C186.251 5.79296 183.221 8.83103 180.998 12.7088L185.336 15.1952ZM192.541 7.99126C195.556 6.2579 198.899 5.38 202.623 5.38V0.379997C198.07 0.379997 193.861 1.46476 190.049 3.65673L192.541 7.99126ZM202.623 5.38C206.395 5.38 209.759 6.26019 212.769 7.99126L215.261 3.65673C211.445 1.46247 207.214 0.379997 202.623 0.379997V5.38ZM212.79 8.00294C215.801 9.69671 218.164 12.0555 219.905 15.1226L224.253 12.6534C222.07 8.8085 219.056 5.79129 215.241 3.64506L212.79 8.00294ZM219.905 15.1226C221.632 18.1634 222.523 21.6553 222.523 25.664H227.523C227.523 20.8834 226.452 16.5246 224.253 12.6534L219.905 15.1226ZM222.523 25.664C222.523 29.6727 221.632 33.1646 219.905 36.2054L224.253 38.6746C226.452 34.8034 227.523 30.4446 227.523 25.664H222.523ZM219.905 36.2054C218.161 39.2771 215.792 41.6628 212.769 43.4007L215.261 47.7353C219.066 45.5479 222.072 42.5149 224.253 38.6746L219.905 36.2054ZM212.79 43.3891C209.776 45.0843 206.405 45.948 202.623 45.948V50.948C207.204 50.948 211.428 49.8917 215.241 47.7469L212.79 43.3891ZM202.623 45.892C206.143 45.892 209.381 45.0673 212.272 43.3727L209.743 39.0593C207.684 40.266 205.333 40.892 202.623 40.892V45.892ZM212.256 43.3821C215.203 41.6837 217.492 39.2566 219.11 36.168L214.681 33.848C213.483 36.1354 211.847 37.8469 209.759 39.0499L212.256 43.3821ZM219.095 36.1953C220.772 33.0882 221.571 29.5534 221.571 25.664H216.571C216.571 28.8573 215.92 31.5518 214.695 33.8207L219.095 36.1953ZM221.571 25.664C221.571 21.7387 220.775 18.1952 219.087 15.1179L214.703 17.5221C215.917 19.7354 216.571 22.4212 216.571 25.664H221.571ZM219.11 15.16C217.498 12.0824 215.238 9.65657 212.336 7.95525L209.807 12.2687C211.854 13.4688 213.477 15.1816 214.681 17.48L219.11 15.16ZM212.336 7.95525C209.44 6.25763 206.179 5.436 202.623 5.436V10.436C205.382 10.436 207.754 11.065 209.807 12.2687L212.336 7.95525ZM202.623 5.436C199.067 5.436 195.807 6.25763 192.911 7.95526L195.44 12.2687C197.493 11.065 199.864 10.436 202.623 10.436V5.436ZM192.911 7.95525C190.016 9.65247 187.741 12.0692 186.087 15.1327L190.487 17.5073C191.735 15.1948 193.385 13.4729 195.44 12.2687L192.911 7.95525ZM186.08 15.1454C184.446 18.2168 183.675 21.7503 183.675 25.664H188.675C188.675 22.4097 189.313 19.7138 190.494 17.4946L186.08 15.1454ZM183.675 25.664C183.675 29.5418 184.448 33.0666 186.073 36.168L190.502 33.848C189.31 31.5733 188.675 28.8689 188.675 25.664H183.675ZM186.087 36.1953C187.741 39.2588 190.016 41.6755 192.911 43.3727L195.44 39.0593C193.385 37.8551 191.735 36.1332 190.487 33.8207L186.087 36.1953ZM192.927 43.3821C195.851 45.0673 199.103 45.892 202.623 45.892V40.892C199.914 40.892 197.534 40.2661 195.423 39.0499L192.927 43.3821ZM253.102 13.952L255.276 15.1866L255.283 15.1751L253.102 13.952ZM261.102 5.76L259.856 3.5927L259.844 3.59956L261.102 5.76ZM285.166 6.336L286.524 4.23707L286.524 4.23707L285.166 6.336ZM293.102 16.32V18.82H296.748L295.434 15.4195L293.102 16.32ZM286.126 16.32L283.855 17.3654L284.525 18.82H286.126V16.32ZM280.75 10.112L279.418 12.2276L279.427 12.2331L279.436 12.2385L280.75 10.112ZM264.046 10.112L265.311 12.2687L265.311 12.2687L264.046 10.112ZM258.222 16.32L260.429 17.4946L260.433 17.4873L260.437 17.48L258.222 16.32ZM258.222 35.008L256.008 36.168L256.012 36.1753L256.015 36.1826L258.222 35.008ZM264.046 41.152L265.311 38.9953L265.311 38.9953L264.046 41.152ZM280.75 41.216L282.054 43.3492L282.065 43.3425L280.75 41.216ZM286.126 35.008V32.508H284.525L283.855 33.9626L286.126 35.008ZM293.102 35.008L295.431 35.9164L296.761 32.508H293.102V35.008ZM285.166 44.928L286.507 47.0382L286.516 47.0326L286.524 47.0269L285.166 44.928ZM261.102 45.504L259.844 47.6644L259.86 47.6738L259.877 47.6829L261.102 45.504ZM253.102 37.376L255.276 36.1414L253.102 37.376ZM252.658 25.664C252.658 21.7026 253.547 18.2311 255.276 15.1866L250.928 12.7174C248.732 16.5849 247.658 20.9214 247.658 25.664H252.658ZM255.283 15.1751C257.033 12.054 259.387 9.65197 262.36 7.92044L259.844 3.59956C256.077 5.79336 253.096 8.85267 250.922 12.7289L255.283 15.1751ZM262.348 7.92726C265.363 6.1939 268.706 5.316 272.43 5.316V0.315998C267.877 0.315998 263.668 1.40076 259.856 3.59273L262.348 7.92726ZM272.43 5.316C276.875 5.316 280.636 6.38212 283.808 8.43492L286.524 4.23707C282.444 1.59655 277.714 0.315998 272.43 0.315998V5.316ZM283.808 8.43492C286.96 10.4745 289.282 13.3673 290.77 17.2205L295.434 15.4195C293.594 10.6541 290.626 6.89078 286.524 4.23707L283.808 8.43492ZM293.102 13.82H286.126V18.82H293.102V13.82ZM288.397 15.2746C286.97 12.174 284.86 9.71367 282.065 7.98551L279.436 12.2385C281.333 13.4117 282.808 15.0899 283.855 17.3654L288.397 15.2746ZM282.082 7.99642C279.309 6.25013 276.053 5.436 272.43 5.436V10.436C275.293 10.436 277.584 11.0725 279.418 12.2276L282.082 7.99642ZM272.43 5.436C268.911 5.436 265.673 6.26071 262.782 7.95526L265.311 12.2687C267.369 11.062 269.721 10.436 272.43 10.436V5.436ZM262.782 7.95525C259.88 9.65657 257.62 12.0824 256.008 15.16L260.437 17.48C261.641 15.1816 263.263 13.4688 265.311 12.2687L262.782 7.95525ZM256.015 15.1454C254.381 18.2168 253.61 21.7503 253.61 25.664H258.61C258.61 22.4097 259.248 19.7138 260.429 17.4946L256.015 15.1454ZM253.61 25.664C253.61 29.5418 254.383 33.0666 256.008 36.168L260.437 33.848C259.245 31.5733 258.61 28.8689 258.61 25.664H253.61ZM256.015 36.1826C257.631 39.2171 259.89 41.6135 262.782 43.3087L265.311 38.9953C263.253 37.7892 261.63 36.0896 260.429 33.8334L256.015 36.1826ZM262.782 43.3087C265.673 45.0033 268.911 45.828 272.43 45.828V40.828C269.721 40.828 267.369 40.202 265.311 38.9953L262.782 43.3087ZM272.43 45.828C276.04 45.828 279.285 45.0413 282.054 43.3492L279.447 39.0828C277.608 40.2067 275.306 40.828 272.43 40.828V45.828ZM282.065 43.3425C284.86 41.6143 286.97 39.154 288.397 36.0534L283.855 33.9626C282.808 36.238 281.333 37.9163 279.436 39.0895L282.065 43.3425ZM286.126 37.508H293.102V32.508H286.126V37.508ZM290.773 34.0996C289.288 37.9086 286.967 40.7852 283.808 42.8291L286.524 47.0269C290.619 44.3775 293.589 40.6407 295.431 35.9164L290.773 34.0996ZM283.826 42.8178C280.651 44.8347 276.884 45.884 272.43 45.884V50.884C277.705 50.884 282.428 49.6293 286.507 47.0382L283.826 42.8178ZM272.43 45.884C268.696 45.884 265.346 45.0225 262.328 43.3251L259.877 47.6829C263.686 49.8255 267.888 50.884 272.43 50.884V45.884ZM262.36 43.3436C259.379 41.6076 257.025 39.221 255.276 36.1414L250.928 38.6106C253.105 42.443 256.084 45.4751 259.844 47.6644L262.36 43.3436ZM255.276 36.1414C253.547 33.0969 252.658 29.6254 252.658 25.664H247.658C247.658 30.4066 248.732 34.7431 250.928 38.6106L255.276 36.1414ZM311.948 45.568L310.702 47.7353L310.712 47.7412L310.722 47.7469L311.948 45.568ZM303.82 37.44L301.639 38.6631L301.648 38.679L301.657 38.6947L303.82 37.44ZM303.82 13.952L301.651 12.7088L301.646 12.7174L303.82 13.952ZM311.948 5.824L313.173 8.00294L313.184 7.99715L313.194 7.99126L311.948 5.824ZM334.668 5.824L333.422 7.99126L333.432 7.99715L333.442 8.00294L334.668 5.824ZM342.732 13.888L344.906 12.6534L344.906 12.6534L342.732 13.888ZM334.668 45.568L335.893 47.7469L335.904 47.7412L335.914 47.7353L334.668 45.568ZM331.66 41.216L330.412 39.0499L330.403 39.0546L330.395 39.0593L331.66 41.216ZM337.548 35.008L335.348 33.8207L335.34 33.8343L335.333 33.848L337.548 35.008ZM337.548 16.32L335.333 17.48L335.344 17.5012L335.356 17.5221L337.548 16.32ZM331.724 10.112L330.459 12.2687L330.459 12.2687L331.724 10.112ZM314.828 10.112L316.092 12.2687L316.092 12.2687L314.828 10.112ZM308.94 16.32L306.74 15.1327L306.736 15.139L306.733 15.1454L308.94 16.32ZM308.94 35.008L306.725 36.168L306.732 36.1817L306.74 36.1953L308.94 35.008ZM314.828 41.216L313.563 43.3727L313.571 43.3774L313.58 43.3821L314.828 41.216ZM323.276 45.948C319.541 45.948 316.191 45.0865 313.173 43.3891L310.722 47.7469C314.531 49.8895 318.733 50.948 323.276 50.948V45.948ZM313.194 43.4007C310.167 41.66 307.771 39.2679 305.982 36.1853L301.657 38.6947C303.879 42.5241 306.902 45.5506 310.702 47.7353L313.194 43.4007ZM306 36.2169C304.265 33.1231 303.376 29.625 303.376 25.664H298.376C298.376 30.407 299.45 34.7596 301.639 38.6631L306 36.2169ZM303.376 25.664C303.376 21.7026 304.265 18.2311 305.994 15.1866L301.646 12.7174C299.45 16.5849 298.376 20.9214 298.376 25.664H303.376ZM305.989 15.1952C307.777 12.0756 310.165 9.69503 313.173 8.00294L310.722 3.64506C306.904 5.79296 303.873 8.83103 301.651 12.7088L305.989 15.1952ZM313.194 7.99126C316.208 6.2579 319.551 5.38 323.276 5.38V0.379997C318.723 0.379997 314.514 1.46476 310.702 3.65673L313.194 7.99126ZM323.276 5.38C327.048 5.38 330.411 6.26019 333.422 7.99126L335.914 3.65673C332.098 1.46247 327.866 0.379997 323.276 0.379997V5.38ZM333.442 8.00294C336.453 9.69671 338.816 12.0555 340.558 15.1226L344.906 12.6534C342.722 8.8085 339.709 5.79129 335.893 3.64506L333.442 8.00294ZM340.558 15.1226C342.285 18.1634 343.176 21.6553 343.176 25.664H348.176C348.176 20.8834 347.104 16.5246 344.906 12.6534L340.558 15.1226ZM343.176 25.664C343.176 29.6727 342.285 33.1646 340.558 36.2054L344.906 38.6746C347.104 34.8034 348.176 30.4446 348.176 25.664H343.176ZM340.558 36.2054C338.813 39.2771 336.444 41.6628 333.422 43.4007L335.914 47.7353C339.718 45.5479 342.725 42.5149 344.906 38.6746L340.558 36.2054ZM333.442 43.3891C330.428 45.0843 327.058 45.948 323.276 45.948V50.948C327.856 50.948 332.081 49.8917 335.893 47.7469L333.442 43.3891ZM323.276 45.892C326.795 45.892 330.033 45.0673 332.924 43.3727L330.395 39.0593C328.337 40.266 325.985 40.892 323.276 40.892V45.892ZM332.908 43.3821C335.855 41.6837 338.144 39.2566 339.762 36.168L335.333 33.848C334.135 36.1354 332.499 37.8469 330.412 39.0499L332.908 43.3821ZM339.748 36.1953C341.425 33.0882 342.224 29.5534 342.224 25.664H337.224C337.224 28.8573 336.572 31.5518 335.348 33.8207L339.748 36.1953ZM342.224 25.664C342.224 21.7387 341.427 18.1952 339.74 15.1179L335.356 17.5221C336.569 19.7354 337.224 22.4212 337.224 25.664H342.224ZM339.762 15.16C338.15 12.0824 335.89 9.65657 332.988 7.95525L330.459 12.2687C332.507 13.4688 334.129 15.1816 335.333 17.48L339.762 15.16ZM332.988 7.95525C330.092 6.25763 326.832 5.436 323.276 5.436V10.436C326.035 10.436 328.406 11.065 330.459 12.2687L332.988 7.95525ZM323.276 5.436C319.72 5.436 316.459 6.25763 313.563 7.95526L316.092 12.2687C318.145 11.065 320.517 10.436 323.276 10.436V5.436ZM313.563 7.95525C310.668 9.65247 308.393 12.0692 306.74 15.1327L311.14 17.5073C312.388 15.1948 314.038 13.4729 316.092 12.2687L313.563 7.95525ZM306.733 15.1454C305.098 18.2168 304.328 21.7503 304.328 25.664H309.328C309.328 22.4097 309.965 19.7138 311.147 17.4946L306.733 15.1454ZM304.328 25.664C304.328 29.5418 305.101 33.0666 306.725 36.168L311.154 33.848C309.963 31.5733 309.328 28.8689 309.328 25.664H304.328ZM306.74 36.1953C308.393 39.2588 310.668 41.6755 313.563 43.3727L316.092 39.0593C314.038 37.8551 312.388 36.1332 311.14 33.8207L306.74 36.1953ZM313.58 43.3821C316.504 45.0673 319.756 45.892 323.276 45.892V40.892C320.567 40.892 318.186 40.2661 316.076 39.0499L313.58 43.3821ZM389.716 48V50.5H392.216V48H389.716ZM383.892 48L381.805 49.3763L382.546 50.5H383.892V48ZM360.468 12.48L362.555 11.1037L357.968 4.14792V12.48H360.468ZM360.468 48V50.5H362.968V48H360.468ZM354.644 48H352.144V50.5H354.644V48ZM354.644 3.328V0.827999H352.144V3.328H354.644ZM360.468 3.328L362.554 1.94995L361.813 0.827999H360.468V3.328ZM383.892 38.784L381.806 40.162L386.392 47.1035V38.784H383.892ZM383.892 3.328V0.827999H381.392V3.328H383.892ZM389.716 3.328H392.216V0.827999H389.716V3.328ZM389.716 45.5H383.892V50.5H389.716V45.5ZM385.979 46.6237L362.555 11.1037L358.381 13.8563L381.805 49.3763L385.979 46.6237ZM357.968 12.48V48H362.968V12.48H357.968ZM360.468 45.5H354.644V50.5H360.468V45.5ZM357.144 48V3.328H352.144V48H357.144ZM354.644 5.828H360.468V0.827999H354.644V5.828ZM358.382 4.70605L381.806 40.162L385.978 37.4059L362.554 1.94995L358.382 4.70605ZM386.392 38.784V3.328H381.392V38.784H386.392ZM383.892 5.828H389.716V0.827999H383.892V5.828ZM387.216 3.328V48H392.216V3.328H387.216ZM407.132 46.912L406.082 49.1807L406.107 49.1923L406.132 49.2033L407.132 46.912ZM401.692 42.56L399.649 43.9999L399.656 44.011L399.664 44.022L401.692 42.56ZM399.644 36.096V33.596H397.1L397.145 36.1399L399.644 36.096ZM405.852 36.096L408.339 35.8422L408.11 33.596H405.852V36.096ZM408.412 41.408L406.67 43.2012L406.696 43.2264L406.723 43.2509L408.412 41.408ZM421.596 41.472L423.232 43.3629L423.235 43.3596L421.596 41.472ZM422.62 31.936L420.743 33.5876L420.743 33.5876L422.62 31.936ZM419.1 29.504L418.184 31.83L418.184 31.83L419.1 29.504ZM413.404 27.712L414.051 25.2971L414.043 25.295L414.035 25.293L413.404 27.712ZM406.3 25.408L405.295 27.6971L405.305 27.7015L405.315 27.7059L406.3 25.408ZM401.756 21.824L399.75 23.3158L399.772 23.3448L399.794 23.3731L401.756 21.824ZM401.756 8.704L403.844 10.0798L403.844 10.0798L401.756 8.704ZM406.94 4.352L405.909 2.07461L405.901 2.07833L405.893 2.0821L406.94 4.352ZM424.924 5.952L423.374 7.9134L423.382 7.91942L423.389 7.92538L424.924 5.952ZM429.468 14.272V16.772H432.227L431.956 14.0263L429.468 14.272ZM423.068 14.272L420.588 14.5821L420.861 16.772H423.068V14.272ZM420.38 9.792L418.775 11.7083L418.79 11.7212L418.806 11.7339L420.38 9.792ZM408.156 9.728L409.725 11.6749L409.741 11.6618L409.757 11.6486L408.156 9.728ZM407.196 18.944L405.315 20.5903L405.334 20.612L405.353 20.6333L407.196 18.944ZM410.588 21.312L409.621 23.6175L409.666 23.636L409.71 23.6528L410.588 21.312ZM416.284 23.104L415.609 25.511L415.621 25.5143L416.284 23.104ZM423.388 25.536L422.358 27.8138L422.381 27.824L422.403 27.8339L423.388 25.536ZM427.996 29.184L426.015 30.7083L426.024 30.7208L426.034 30.7331L427.996 29.184ZM428.188 41.984L430.332 43.2702L430.332 43.2702L428.188 41.984ZM423.068 46.656L421.9 44.4455L423.068 46.656ZM415.068 45.948C412.417 45.948 410.12 45.4879 408.132 44.6207L406.132 49.2033C408.838 50.3841 411.831 50.948 415.068 50.948V45.948ZM408.183 44.6433C406.22 43.7346 404.762 42.5432 403.72 41.098L399.664 44.022C401.268 46.2461 403.437 47.9561 406.082 49.1807L408.183 44.6433ZM403.736 41.1201C402.719 39.6768 402.178 38.0149 402.144 36.0521L397.145 36.1399C397.196 39.0411 398.02 41.6885 399.649 43.9999L403.736 41.1201ZM399.644 38.596H405.852V33.596H399.644V38.596ZM403.365 36.3498C403.638 39.0192 404.751 41.3367 406.67 43.2012L410.154 39.6148C409.087 38.5779 408.494 37.3541 408.339 35.8422L403.365 36.3498ZM406.723 43.2509C408.874 45.2228 411.788 46.02 415.068 46.02V41.02C412.546 41.02 411.022 40.4092 410.102 39.5651L406.723 43.2509ZM415.068 46.02C418.242 46.02 421.067 45.2347 423.232 43.3629L419.961 39.5811C418.968 40.44 417.441 41.02 415.068 41.02V46.02ZM423.235 43.3596C425.412 41.4695 426.528 38.9851 426.528 36.096H421.528C421.528 37.5589 421.023 38.6585 419.957 39.5844L423.235 43.3596ZM426.528 36.096C426.528 33.9097 425.915 31.8955 424.497 30.2844L420.743 33.5876C421.203 34.1098 421.528 34.8689 421.528 36.096H426.528ZM424.497 30.2844C423.279 28.9006 421.769 27.8684 420.017 27.178L418.184 31.83C419.247 32.249 420.084 32.838 420.743 33.5876L424.497 30.2844ZM420.017 27.178C418.483 26.5739 416.482 25.9484 414.051 25.2971L412.757 30.1269C415.105 30.7556 416.901 31.3248 418.184 31.83L420.017 27.178ZM414.035 25.293C411.153 24.5411 408.917 23.8097 407.285 23.1101L405.315 27.7059C407.267 28.5423 409.767 29.3469 412.773 30.131L414.035 25.293ZM407.305 23.1189C405.961 22.5286 404.766 21.6017 403.718 20.2749L399.794 23.3731C401.307 25.289 403.141 26.7514 405.295 27.6971L407.305 23.1189ZM403.762 20.3322C402.939 19.2243 402.4 17.5836 402.4 15.168H397.4C397.4 18.299 398.099 21.0957 399.75 23.3158L403.762 20.3322ZM402.4 15.168C402.4 13.1833 402.898 11.5152 403.844 10.0798L399.669 7.32821C398.14 9.64742 397.4 12.2887 397.4 15.168H402.4ZM403.844 10.0798C404.802 8.62519 406.154 7.46818 407.988 6.6219L405.893 2.0821C403.289 3.28381 401.185 5.02814 399.669 7.32822L403.844 10.0798ZM407.972 6.62938C409.859 5.77481 412.079 5.316 414.684 5.316V0.315998C411.487 0.315998 408.544 0.881185 405.909 2.07461L407.972 6.62938ZM414.684 5.316C418.441 5.316 421.268 6.24864 423.374 7.9134L426.474 3.9906C423.29 1.47403 419.29 0.315998 414.684 0.315998V5.316ZM423.389 7.92538C425.524 9.58584 426.705 11.7286 426.98 14.5177L431.956 14.0263C431.549 9.90337 429.7 6.49949 426.459 3.97862L423.389 7.92538ZM429.468 11.772H423.068V16.772H429.468V11.772ZM425.549 13.9619C425.241 11.5003 423.937 9.45772 421.955 7.85011L418.806 11.7339C419.98 12.6863 420.469 13.6304 420.588 14.5821L425.549 13.9619ZM421.986 7.8757C419.849 6.0852 417.139 5.308 414.108 5.308V10.308C416.283 10.308 417.754 10.8535 418.775 11.7083L421.986 7.8757ZM414.108 5.308C411.223 5.308 408.633 6.07679 406.556 7.80744L409.757 11.6486C410.752 10.8192 412.13 10.308 414.108 10.308V5.308ZM406.588 7.78111C404.372 9.56611 403.352 12.0829 403.352 14.976H408.352C408.352 13.3464 408.868 12.3645 409.725 11.6749L406.588 7.78111ZM403.352 14.976C403.352 17.0809 403.946 19.0264 405.315 20.5903L409.078 17.2977C408.654 16.8136 408.352 16.1138 408.352 14.976H403.352ZM405.353 20.6333C406.544 21.9323 407.977 22.9278 409.621 23.6175L411.555 19.0065C410.554 18.5869 409.726 18.0037 409.039 17.2547L405.353 20.6333ZM409.71 23.6528C411.173 24.2013 413.15 24.8208 415.609 25.511L416.96 20.697C414.555 20.0219 412.734 19.4467 411.466 18.9712L409.71 23.6528ZM415.621 25.5143C418.5 26.3071 420.73 27.0776 422.358 27.8138L424.419 23.2582C422.462 22.3731 419.957 21.5223 416.948 20.6937L415.621 25.5143ZM422.403 27.8339C423.773 28.4206 424.975 29.3563 426.015 30.7083L429.978 27.6597C428.458 25.6837 426.588 24.1874 424.373 23.2381L422.403 27.8339ZM426.034 30.7331C426.858 31.777 427.416 33.3837 427.416 35.84H432.416C432.416 32.6643 431.694 29.8337 429.958 27.6349L426.034 30.7331ZM427.416 35.84C427.416 37.5493 426.97 39.1545 426.045 40.6978L430.332 43.2702C431.71 40.9735 432.416 38.4827 432.416 35.84H427.416ZM426.045 40.6978C425.159 42.1732 423.817 43.4331 421.9 44.4455L424.236 48.8665C426.842 47.4895 428.913 45.6348 430.332 43.2702L426.045 40.6978ZM421.9 44.4455C420.065 45.4154 417.815 45.948 415.068 45.948V50.948C418.466 50.948 421.549 50.286 424.236 48.8665L421.9 44.4455ZM445.463 3.392H447.963V0.891998H445.463V3.392ZM448.343 40.448L446.575 42.2158L446.585 42.2255L446.595 42.2351L448.343 40.448ZM464.471 40.448L462.723 38.6609L462.713 38.6705L462.703 38.6802L464.471 40.448ZM467.415 3.392V0.891998H464.915V3.392H467.415ZM473.239 3.392H475.739V0.891998H473.239V3.392ZM470.999 40.96L473.149 42.2355L473.154 42.2276L473.158 42.2197L470.999 40.96ZM464.919 46.592L463.831 44.3411L463.823 44.3447L463.816 44.3484L464.919 46.592ZM447.831 46.592L446.728 48.8356L446.735 48.8393L446.743 48.8429L447.831 46.592ZM441.815 40.96L439.64 42.1925L439.652 42.2141L439.665 42.2355L441.815 40.96ZM439.639 3.392V0.891998H437.139V3.392H439.639ZM442.963 3.392V31.616H447.963V3.392H442.963ZM442.963 31.616C442.963 35.9416 444.007 39.6479 446.575 42.2158L450.111 38.6802C448.838 37.4081 447.963 35.2264 447.963 31.616H442.963ZM446.595 42.2351C449.138 44.7228 452.539 45.828 456.471 45.828V40.828C453.491 40.828 451.473 40.0132 450.091 38.6609L446.595 42.2351ZM456.471 45.828C460.367 45.828 463.736 44.718 466.239 42.2158L462.703 38.6802C461.365 40.018 459.401 40.828 456.471 40.828V45.828ZM466.219 42.2351C468.842 39.6692 469.915 35.9553 469.915 31.616H464.915C464.915 35.2127 464.025 37.3868 462.723 38.6609L466.219 42.2351ZM469.915 31.616V3.392H464.915V31.616H469.915ZM467.415 5.892H473.239V0.891998H467.415V5.892ZM470.739 3.392V31.552H475.739V3.392H470.739ZM470.739 31.552C470.739 34.9318 470.06 37.6079 468.839 39.7003L473.158 42.2197C474.924 39.1921 475.739 35.5962 475.739 31.552H470.739ZM468.849 39.6845C467.598 41.7926 465.935 43.3241 463.831 44.3411L466.007 48.8429C469.022 47.3852 471.413 45.1621 473.149 42.2355L468.849 39.6845ZM463.816 44.3484C461.683 45.3969 459.23 45.948 456.407 45.948V50.948C459.898 50.948 463.12 50.2617 466.022 48.8356L463.816 44.3484ZM456.407 45.948C453.584 45.948 451.104 45.3971 448.919 44.3411L446.743 48.8429C449.678 50.2615 452.915 50.948 456.407 50.948V45.948ZM448.934 44.3484C446.871 43.3348 445.222 41.8034 443.965 39.6845L439.665 42.2355C441.394 45.1513 443.755 47.3745 446.728 48.8356L448.934 44.3484ZM443.99 39.7275C442.801 37.6294 442.139 34.9431 442.139 31.552H437.139C437.139 35.5849 437.927 39.1706 439.64 42.1925L443.99 39.7275ZM442.139 31.552V3.392H437.139V31.552H442.139ZM439.639 5.892H445.463V0.891998H439.639V5.892ZM490.058 43.264H487.558V45.764H490.058V43.264ZM505.674 43.264H508.174V40.764H505.674V43.264ZM505.674 48V50.5H508.174V48H505.674ZM484.234 48H481.734V50.5H484.234V48ZM484.234 3.392V0.891998H481.734V3.392H484.234ZM490.058 3.392H492.558V0.891998H490.058V3.392ZM490.058 45.764H505.674V40.764H490.058V45.764ZM503.174 43.264V48H508.174V43.264H503.174ZM505.674 45.5H484.234V50.5H505.674V45.5ZM486.734 48V3.392H481.734V48H486.734ZM484.234 5.892H490.058V0.891998H484.234V5.892ZM487.558 3.392V43.264H492.558V3.392H487.558ZM540.595 3.392H543.095V0.891998H540.595V3.392ZM540.595 8.128V10.628H543.095V8.128H540.595ZM528.435 8.128V5.628H525.935V8.128H528.435ZM528.435 48V50.5H530.935V48H528.435ZM522.611 48H520.111V50.5H522.611V48ZM522.611 8.128H525.111V5.628H522.611V8.128ZM510.387 8.128H507.887V10.628H510.387V8.128ZM510.387 3.392V0.891998H507.887V3.392H510.387ZM538.095 3.392V8.128H543.095V3.392H538.095ZM540.595 5.628H528.435V10.628H540.595V5.628ZM525.935 8.128V48H530.935V8.128H525.935ZM528.435 45.5H522.611V50.5H528.435V45.5ZM525.111 48V8.128H520.111V48H525.111ZM522.611 5.628H510.387V10.628H522.611V5.628ZM512.887 8.128V3.392H507.887V8.128H512.887ZM510.387 5.892H540.595V0.891998H510.387V5.892Z" fill="#E5E5E5"/>
</g>
<defs>
<filter id="filter0_d" x="0.415771" y="0.315994" width="546.68" height="58.632" filterUnits="userSpaceOnUse" color-interpolation-filters="sRGB">
<feFlood flood-opacity="0" result="BackgroundImageFix"/>
<feColorMatrix in="SourceAlpha" type="matrix" values="0 0 0 0 0 0 0 0 0 0 0 0 0 0 0 0 0 0 127 0"/>
<feOffset dy="4"/>
<feGaussianBlur stdDeviation="2"/>
<feColorMatrix type="matrix" values="0 0 0 0 0 0 0 0 0 0 0 0 0 0 0 0 0 0 0.25 0"/>
<feBlend mode="normal" in2="BackgroundImageFix" result="effect1_dropShadow"/>
<feBlend mode="normal" in="SourceGraphic" in2="effect1_dropShadow" result="shape"/>
</filter>
</defs>
</svg>
