<svg width="548" height="59" viewBox="0 0 548 59" fill="none" xmlns="http://www.w3.org/2000/svg">
<g filter="url(#filter0_d)">
<path d="M29.4 48.632C25.2613 48.632 21.4853 47.672 18.072 45.752C14.6587 43.7893 11.9493 41.08 9.944 37.624C7.98133 34.1253 7 30.2 7 25.848C7 21.496 7.98133 17.592 9.944 14.136C11.9493 10.6373 14.6587 7.928 18.072 6.008C21.4853 4.04533 25.2613 3.064 29.4 3.064C33.5813 3.064 37.3787 4.04533 40.792 6.008C44.2053 7.928 46.8933 10.616 48.856 14.072C50.8187 17.528 51.8 21.4533 51.8 25.848C51.8 30.2427 50.8187 34.168 48.856 37.624C46.8933 41.08 44.2053 43.7893 40.792 45.752C37.3787 47.672 33.5813 48.632 29.4 48.632ZM29.4 43.576C32.5147 43.576 35.3093 42.8507 37.784 41.4C40.3013 39.9493 42.264 37.88 43.672 35.192C45.1227 32.504 45.848 29.3893 45.848 25.848C45.848 22.264 45.1227 19.1493 43.672 16.504C42.264 13.816 40.3227 11.7467 37.848 10.296C35.3733 8.84533 32.5573 8.12 29.4 8.12C26.2427 8.12 23.4267 8.84533 20.952 10.296C18.4773 11.7467 16.5147 13.816 15.064 16.504C13.656 19.1493 12.952 22.264 12.952 25.848C12.952 29.3893 13.656 32.504 15.064 35.192C16.5147 37.88 18.4773 39.9493 20.952 41.4C23.4693 42.8507 26.2853 43.576 29.4 43.576Z" fill="url(#paint0_linear)" style="mix-blend-mode:soft-light"/>
<path d="M84.2565 48.184L73.6325 29.944H66.5925V48.184H60.7685V3.576H75.1685C78.5392 3.576 81.3765 4.152 83.6805 5.304C86.0272 6.456 87.7765 8.01333 88.9285 9.976C90.0805 11.9387 90.6565 14.1787 90.6565 16.696C90.6565 19.768 89.7605 22.4773 87.9685 24.824C86.2192 27.1707 83.5738 28.728 80.0325 29.496L91.2325 48.184H84.2565ZM66.5925 25.272H75.1685C78.3258 25.272 80.6938 24.504 82.2725 22.968C83.8512 21.3893 84.6405 19.2987 84.6405 16.696C84.6405 14.0507 83.8512 12.0027 82.2725 10.552C80.7365 9.10133 78.3685 8.376 75.1685 8.376H66.5925V25.272Z" fill="url(#paint1_linear)" style="mix-blend-mode:soft-light"/>
<path d="M128.442 3.576V8.312H116.282V48.184H110.458V8.312H98.234V3.576H128.442Z" fill="url(#paint2_linear)" style="mix-blend-mode:soft-light"/>
<path d="M171.259 3.576V48.184H165.435V27.96H142.715V48.184H136.891V3.576H142.715V23.16H165.435V3.576H171.259Z" fill="url(#paint3_linear)" style="mix-blend-mode:soft-light"/>
<path d="M202.707 48.632C198.569 48.632 194.793 47.672 191.38 45.752C187.966 43.7893 185.257 41.08 183.251 37.624C181.289 34.1253 180.307 30.2 180.307 25.848C180.307 21.496 181.289 17.592 183.251 14.136C185.257 10.6373 187.966 7.928 191.38 6.008C194.793 4.04533 198.569 3.064 202.707 3.064C206.889 3.064 210.686 4.04533 214.1 6.008C217.513 7.928 220.201 10.616 222.163 14.072C224.126 17.528 225.107 21.4533 225.107 25.848C225.107 30.2427 224.126 34.168 222.163 37.624C220.201 41.08 217.513 43.7893 214.1 45.752C210.686 47.672 206.889 48.632 202.707 48.632ZM202.707 43.576C205.822 43.576 208.617 42.8507 211.091 41.4C213.609 39.9493 215.571 37.88 216.979 35.192C218.43 32.504 219.156 29.3893 219.156 25.848C219.156 22.264 218.43 19.1493 216.979 16.504C215.571 13.816 213.63 11.7467 211.156 10.296C208.681 8.84533 205.865 8.12 202.707 8.12C199.55 8.12 196.734 8.84533 194.259 10.296C191.785 11.7467 189.822 13.816 188.371 16.504C186.963 19.1493 186.259 22.264 186.259 25.848C186.259 29.3893 186.963 32.504 188.371 35.192C189.822 37.88 191.785 39.9493 194.259 41.4C196.777 42.8507 199.593 43.576 202.707 43.576Z" fill="url(#paint4_linear)" style="mix-blend-mode:soft-light"/>
<path d="M250.242 25.848C250.242 21.496 251.224 17.592 253.186 14.136C255.149 10.6373 257.816 7.90667 261.186 5.944C264.6 3.98133 268.376 3 272.514 3C277.378 3 281.624 4.17333 285.25 6.52C288.877 8.86667 291.522 12.1947 293.186 16.504H286.21C284.973 13.816 283.181 11.7467 280.835 10.296C278.531 8.84533 275.757 8.12 272.514 8.12C269.4 8.12 266.605 8.84533 264.13 10.296C261.656 11.7467 259.714 13.816 258.306 16.504C256.898 19.1493 256.194 22.264 256.194 25.848C256.194 29.3893 256.898 32.504 258.306 35.192C259.714 37.8373 261.656 39.8853 264.13 41.336C266.605 42.7867 269.4 43.512 272.514 43.512C275.757 43.512 278.531 42.808 280.835 41.4C283.181 39.9493 284.973 37.88 286.21 35.192H293.186C291.522 39.4587 288.877 42.7653 285.25 45.112C281.624 47.416 277.378 48.568 272.514 48.568C268.376 48.568 264.6 47.608 261.186 45.688C257.816 43.7253 255.149 41.016 253.186 37.56C251.224 34.104 250.242 30.2 250.242 25.848Z" fill="url(#paint5_linear)" style="mix-blend-mode:soft-light"/>
<path d="M323.36 48.632C319.221 48.632 315.445 47.672 312.032 45.752C308.619 43.7893 305.909 41.08 303.904 37.624C301.941 34.1253 300.96 30.2 300.96 25.848C300.96 21.496 301.941 17.592 303.904 14.136C305.909 10.6373 308.619 7.928 312.032 6.008C315.445 4.04533 319.221 3.064 323.36 3.064C327.541 3.064 331.339 4.04533 334.752 6.008C338.165 7.928 340.853 10.616 342.816 14.072C344.779 17.528 345.76 21.4533 345.76 25.848C345.76 30.2427 344.779 34.168 342.816 37.624C340.853 41.08 338.165 43.7893 334.752 45.752C331.339 47.672 327.541 48.632 323.36 48.632ZM323.36 43.576C326.475 43.576 329.269 42.8507 331.744 41.4C334.261 39.9493 336.224 37.88 337.632 35.192C339.083 32.504 339.808 29.3893 339.808 25.848C339.808 22.264 339.083 19.1493 337.632 16.504C336.224 13.816 334.283 11.7467 331.808 10.296C329.333 8.84533 326.517 8.12 323.36 8.12C320.203 8.12 317.387 8.84533 314.912 10.296C312.437 11.7467 310.475 13.816 309.024 16.504C307.616 19.1493 306.912 22.264 306.912 25.848C306.912 29.3893 307.616 32.504 309.024 35.192C310.475 37.88 312.437 39.9493 314.912 41.4C317.429 42.8507 320.245 43.576 323.36 43.576Z" fill="url(#paint6_linear)" style="mix-blend-mode:soft-light"/>
<path d="M389.8 48.184H383.977L360.552 12.664V48.184H354.728V3.512H360.552L383.977 38.968V3.512H389.8V48.184Z" fill="url(#paint7_linear)" style="mix-blend-mode:soft-light"/>
<path d="M415.152 48.632C412.208 48.632 409.563 48.12 407.216 47.096C404.912 46.0293 403.099 44.5787 401.776 42.744C400.454 40.8667 399.771 38.712 399.728 36.28H405.936C406.15 38.3707 407.003 40.1413 408.496 41.592C410.032 43 412.251 43.704 415.152 43.704C417.926 43.704 420.102 43.0213 421.68 41.656C423.302 40.248 424.112 38.456 424.112 36.28C424.112 34.5733 423.643 33.1867 422.704 32.12C421.766 31.0533 420.592 30.2427 419.184 29.688C417.776 29.1333 415.878 28.536 413.488 27.896C410.544 27.128 408.176 26.36 406.384 25.592C404.635 24.824 403.12 23.6293 401.84 22.008C400.603 20.344 399.984 18.1253 399.984 15.352C399.984 12.92 400.603 10.7653 401.84 8.888C403.078 7.01067 404.806 5.56 407.024 4.536C409.286 3.512 411.867 3 414.768 3C418.95 3 422.363 4.04533 425.008 6.136C427.696 8.22667 429.211 11 429.552 14.456H423.152C422.939 12.7493 422.043 11.256 420.464 9.976C418.886 8.65333 416.795 7.992 414.193 7.992C411.761 7.992 409.776 8.632 408.24 9.912C406.704 11.1493 405.936 12.8987 405.936 15.16C405.936 16.7813 406.384 18.104 407.28 19.128C408.219 20.152 409.35 20.9413 410.672 21.496C412.038 22.008 413.937 22.6053 416.368 23.288C419.312 24.0987 421.681 24.9093 423.473 25.72C425.265 26.488 426.8 27.704 428.08 29.368C429.36 30.9893 430 33.208 430 36.024C430 38.2 429.424 40.248 428.272 42.168C427.12 44.088 425.414 45.6453 423.152 46.84C420.891 48.0347 418.224 48.632 415.152 48.632Z" fill="url(#paint8_linear)" style="mix-blend-mode:soft-light"/>
<path d="M445.547 3.576V31.8C445.547 35.768 446.507 38.712 448.427 40.632C450.39 42.552 453.099 43.512 456.555 43.512C459.968 43.512 462.635 42.552 464.555 40.632C466.518 38.712 467.499 35.768 467.499 31.8V3.576H473.323V31.736C473.323 35.448 472.576 38.584 471.083 41.144C469.59 43.6613 467.563 45.5387 465.003 46.776C462.486 48.0133 459.648 48.632 456.491 48.632C453.334 48.632 450.475 48.0133 447.915 46.776C445.398 45.5387 443.392 43.6613 441.899 41.144C440.448 38.584 439.723 35.448 439.723 31.736V3.576H445.547Z" fill="url(#paint9_linear)" style="mix-blend-mode:soft-light"/>
<path d="M490.142 43.448H505.758V48.184H484.318V3.576H490.142V43.448Z" fill="url(#paint10_linear)" style="mix-blend-mode:soft-light"/>
<path d="M540.68 3.576V8.312H528.519V48.184H522.695V8.312H510.471V3.576H540.68Z" fill="url(#paint11_linear)" style="mix-blend-mode:soft-light"/>
<path d="M29.4 48.632C25.2613 48.632 21.4853 47.672 18.072 45.752C14.6587 43.7893 11.9493 41.08 9.944 37.624C7.98133 34.1253 7 30.2 7 25.848C7 21.496 7.98133 17.592 9.944 14.136C11.9493 10.6373 14.6587 7.928 18.072 6.008C21.4853 4.04533 25.2613 3.064 29.4 3.064C33.5813 3.064 37.3787 4.04533 40.792 6.008C44.2053 7.928 46.8933 10.616 48.856 14.072C50.8187 17.528 51.8 21.4533 51.8 25.848C51.8 30.2427 50.8187 34.168 48.856 37.624C46.8933 41.08 44.2053 43.7893 40.792 45.752C37.3787 47.672 33.5813 48.632 29.4 48.632ZM29.4 43.576C32.5147 43.576 35.3093 42.8507 37.784 41.4C40.3013 39.9493 42.264 37.88 43.672 35.192C45.1227 32.504 45.848 29.3893 45.848 25.848C45.848 22.264 45.1227 19.1493 43.672 16.504C42.264 13.816 40.3227 11.7467 37.848 10.296C35.3733 8.84533 32.5573 8.12 29.4 8.12C26.2427 8.12 23.4267 8.84533 20.952 10.296C18.4773 11.7467 16.5147 13.816 15.064 16.504C13.656 19.1493 12.952 22.264 12.952 25.848C12.952 29.3893 13.656 32.504 15.064 35.192C16.5147 37.88 18.4773 39.9493 20.952 41.4C23.4693 42.8507 26.2853 43.576 29.4 43.576Z" stroke="url(#paint12_linear)" stroke-width="5"/>
<path d="M84.2565 48.184L73.6325 29.944H66.5925V48.184H60.7685V3.576H75.1685C78.5392 3.576 81.3765 4.152 83.6805 5.304C86.0272 6.456 87.7765 8.01333 88.9285 9.976C90.0805 11.9387 90.6565 14.1787 90.6565 16.696C90.6565 19.768 89.7605 22.4773 87.9685 24.824C86.2192 27.1707 83.5738 28.728 80.0325 29.496L91.2325 48.184H84.2565ZM66.5925 25.272H75.1685C78.3258 25.272 80.6938 24.504 82.2725 22.968C83.8512 21.3893 84.6405 19.2987 84.6405 16.696C84.6405 14.0507 83.8512 12.0027 82.2725 10.552C80.7365 9.10133 78.3685 8.376 75.1685 8.376H66.5925V25.272Z" stroke="url(#paint13_linear)" stroke-width="5"/>
<path d="M128.442 3.576V8.312H116.282V48.184H110.458V8.312H98.234V3.576H128.442Z" stroke="url(#paint14_linear)" stroke-width="5"/>
<path d="M171.259 3.576V48.184H165.435V27.96H142.715V48.184H136.891V3.576H142.715V23.16H165.435V3.576H171.259Z" stroke="url(#paint15_linear)" stroke-width="5"/>
<path d="M202.707 48.632C198.569 48.632 194.793 47.672 191.38 45.752C187.966 43.7893 185.257 41.08 183.251 37.624C181.289 34.1253 180.307 30.2 180.307 25.848C180.307 21.496 181.289 17.592 183.251 14.136C185.257 10.6373 187.966 7.928 191.38 6.008C194.793 4.04533 198.569 3.064 202.707 3.064C206.889 3.064 210.686 4.04533 214.1 6.008C217.513 7.928 220.201 10.616 222.163 14.072C224.126 17.528 225.107 21.4533 225.107 25.848C225.107 30.2427 224.126 34.168 222.163 37.624C220.201 41.08 217.513 43.7893 214.1 45.752C210.686 47.672 206.889 48.632 202.707 48.632ZM202.707 43.576C205.822 43.576 208.617 42.8507 211.091 41.4C213.609 39.9493 215.571 37.88 216.979 35.192C218.43 32.504 219.156 29.3893 219.156 25.848C219.156 22.264 218.43 19.1493 216.979 16.504C215.571 13.816 213.63 11.7467 211.156 10.296C208.681 8.84533 205.865 8.12 202.707 8.12C199.55 8.12 196.734 8.84533 194.259 10.296C191.785 11.7467 189.822 13.816 188.371 16.504C186.963 19.1493 186.259 22.264 186.259 25.848C186.259 29.3893 186.963 32.504 188.371 35.192C189.822 37.88 191.785 39.9493 194.259 41.4C196.777 42.8507 199.593 43.576 202.707 43.576Z" stroke="url(#paint16_linear)" stroke-width="5"/>
<path d="M250.242 25.848C250.242 21.496 251.224 17.592 253.186 14.136C255.149 10.6373 257.816 7.90667 261.186 5.944C264.6 3.98133 268.376 3 272.514 3C277.378 3 281.624 4.17333 285.25 6.52C288.877 8.86667 291.522 12.1947 293.186 16.504H286.21C284.973 13.816 283.181 11.7467 280.835 10.296C278.531 8.84533 275.757 8.12 272.514 8.12C269.4 8.12 266.605 8.84533 264.13 10.296C261.656 11.7467 259.714 13.816 258.306 16.504C256.898 19.1493 256.194 22.264 256.194 25.848C256.194 29.3893 256.898 32.504 258.306 35.192C259.714 37.8373 261.656 39.8853 264.13 41.336C266.605 42.7867 269.4 43.512 272.514 43.512C275.757 43.512 278.531 42.808 280.835 41.4C283.181 39.9493 284.973 37.88 286.21 35.192H293.186C291.522 39.4587 288.877 42.7653 285.25 45.112C281.624 47.416 277.378 48.568 272.514 48.568C268.376 48.568 264.6 47.608 261.186 45.688C257.816 43.7253 255.149 41.016 253.186 37.56C251.224 34.104 250.242 30.2 250.242 25.848Z" stroke="url(#paint17_linear)" stroke-width="5"/>
<path d="M323.36 48.632C319.221 48.632 315.445 47.672 312.032 45.752C308.619 43.7893 305.909 41.08 303.904 37.624C301.941 34.1253 300.96 30.2 300.96 25.848C300.96 21.496 301.941 17.592 303.904 14.136C305.909 10.6373 308.619 7.928 312.032 6.008C315.445 4.04533 319.221 3.064 323.36 3.064C327.541 3.064 331.339 4.04533 334.752 6.008C338.165 7.928 340.853 10.616 342.816 14.072C344.779 17.528 345.76 21.4533 345.76 25.848C345.76 30.2427 344.779 34.168 342.816 37.624C340.853 41.08 338.165 43.7893 334.752 45.752C331.339 47.672 327.541 48.632 323.36 48.632ZM323.36 43.576C326.475 43.576 329.269 42.8507 331.744 41.4C334.261 39.9493 336.224 37.88 337.632 35.192C339.083 32.504 339.808 29.3893 339.808 25.848C339.808 22.264 339.083 19.1493 337.632 16.504C336.224 13.816 334.283 11.7467 331.808 10.296C329.333 8.84533 326.517 8.12 323.36 8.12C320.203 8.12 317.387 8.84533 314.912 10.296C312.437 11.7467 310.475 13.816 309.024 16.504C307.616 19.1493 306.912 22.264 306.912 25.848C306.912 29.3893 307.616 32.504 309.024 35.192C310.475 37.88 312.437 39.9493 314.912 41.4C317.429 42.8507 320.245 43.576 323.36 43.576Z" stroke="url(#paint18_linear)" stroke-width="5"/>
<path d="M389.8 48.184H383.977L360.552 12.664V48.184H354.728V3.512H360.552L383.977 38.968V3.512H389.8V48.184Z" stroke="url(#paint19_linear)" stroke-width="5"/>
<path d="M415.152 48.632C412.208 48.632 409.563 48.12 407.216 47.096C404.912 46.0293 403.099 44.5787 401.776 42.744C400.454 40.8667 399.771 38.712 399.728 36.28H405.936C406.15 38.3707 407.003 40.1413 408.496 41.592C410.032 43 412.251 43.704 415.152 43.704C417.926 43.704 420.102 43.0213 421.68 41.656C423.302 40.248 424.112 38.456 424.112 36.28C424.112 34.5733 423.643 33.1867 422.704 32.12C421.766 31.0533 420.592 30.2427 419.184 29.688C417.776 29.1333 415.878 28.536 413.488 27.896C410.544 27.128 408.176 26.36 406.384 25.592C404.635 24.824 403.12 23.6293 401.84 22.008C400.603 20.344 399.984 18.1253 399.984 15.352C399.984 12.92 400.603 10.7653 401.84 8.888C403.078 7.01067 404.806 5.56 407.024 4.536C409.286 3.512 411.867 3 414.768 3C418.95 3 422.363 4.04533 425.008 6.136C427.696 8.22667 429.211 11 429.552 14.456H423.152C422.939 12.7493 422.043 11.256 420.464 9.976C418.886 8.65333 416.795 7.992 414.193 7.992C411.761 7.992 409.776 8.632 408.24 9.912C406.704 11.1493 405.936 12.8987 405.936 15.16C405.936 16.7813 406.384 18.104 407.28 19.128C408.219 20.152 409.35 20.9413 410.672 21.496C412.038 22.008 413.937 22.6053 416.368 23.288C419.312 24.0987 421.681 24.9093 423.473 25.72C425.265 26.488 426.8 27.704 428.08 29.368C429.36 30.9893 430 33.208 430 36.024C430 38.2 429.424 40.248 428.272 42.168C427.12 44.088 425.414 45.6453 423.152 46.84C420.891 48.0347 418.224 48.632 415.152 48.632Z" stroke="url(#paint20_linear)" stroke-width="5"/>
<path d="M445.547 3.576V31.8C445.547 35.768 446.507 38.712 448.427 40.632C450.39 42.552 453.099 43.512 456.555 43.512C459.968 43.512 462.635 42.552 464.555 40.632C466.518 38.712 467.499 35.768 467.499 31.8V3.576H473.323V31.736C473.323 35.448 472.576 38.584 471.083 41.144C469.59 43.6613 467.563 45.5387 465.003 46.776C462.486 48.0133 459.648 48.632 456.491 48.632C453.334 48.632 450.475 48.0133 447.915 46.776C445.398 45.5387 443.392 43.6613 441.899 41.144C440.448 38.584 439.723 35.448 439.723 31.736V3.576H445.547Z" stroke="url(#paint21_linear)" stroke-width="5"/>
<path d="M490.142 43.448H505.758V48.184H484.318V3.576H490.142V43.448Z" stroke="url(#paint22_linear)" stroke-width="5"/>
<path d="M540.68 3.576V8.312H528.519V48.184H522.695V8.312H510.471V3.576H540.68Z" stroke="url(#paint23_linear)" stroke-width="5"/>
</g>
<defs>
<filter id="filter0_d" x="0.5" y="0.5" width="546.68" height="58.632" filterUnits="userSpaceOnUse" color-interpolation-filters="sRGB">
<feFlood flood-opacity="0" result="BackgroundImageFix"/>
<feColorMatrix in="SourceAlpha" type="matrix" values="0 0 0 0 0 0 0 0 0 0 0 0 0 0 0 0 0 0 127 0"/>
<feOffset dy="4"/>
<feGaussianBlur stdDeviation="2"/>
<feColorMatrix type="matrix" values="0 0 0 0 0 0 0 0 0 0 0 0 0 0 0 0 0 0 0.25 0"/>
<feBlend mode="normal" in2="BackgroundImageFix" result="effect1_dropShadow"/>
<feBlend mode="normal" in="SourceGraphic" in2="effect1_dropShadow" result="shape"/>
</filter>
<linearGradient id="paint0_linear" x1="272.584" y1="-21.816" x2="272.584" y2="74.184" gradientUnits="userSpaceOnUse">
<stop stop-color="#E5E5E5"/>
<stop offset="0.0001" stop-color="white" stop-opacity="0.0416667"/>
<stop offset="0.197917" stop-color="#F31010" stop-opacity="0"/>
<stop offset="0.9999" stop-color="white" stop-opacity="0.0416667"/>
<stop offset="1" stop-color="#F31010" stop-opacity="0"/>
</linearGradient>
<linearGradient id="paint1_linear" x1="272.584" y1="-21.816" x2="272.584" y2="74.184" gradientUnits="userSpaceOnUse">
<stop stop-color="#E5E5E5"/>
<stop offset="0.0001" stop-color="white" stop-opacity="0.0416667"/>
<stop offset="0.197917" stop-color="#F31010" stop-opacity="0"/>
<stop offset="0.9999" stop-color="white" stop-opacity="0.0416667"/>
<stop offset="1" stop-color="#F31010" stop-opacity="0"/>
</linearGradient>
<linearGradient id="paint2_linear" x1="272.584" y1="-21.816" x2="272.584" y2="74.184" gradientUnits="userSpaceOnUse">
<stop stop-color="#E5E5E5"/>
<stop offset="0.0001" stop-color="white" stop-opacity="0.0416667"/>
<stop offset="0.197917" stop-color="#F31010" stop-opacity="0"/>
<stop offset="0.9999" stop-color="white" stop-opacity="0.0416667"/>
<stop offset="1" stop-color="#F31010" stop-opacity="0"/>
</linearGradient>
<linearGradient id="paint3_linear" x1="272.584" y1="-21.816" x2="272.584" y2="74.184" gradientUnits="userSpaceOnUse">
<stop stop-color="#E5E5E5"/>
<stop offset="0.0001" stop-color="white" stop-opacity="0.0416667"/>
<stop offset="0.197917" stop-color="#F31010" stop-opacity="0"/>
<stop offset="0.9999" stop-color="white" stop-opacity="0.0416667"/>
<stop offset="1" stop-color="#F31010" stop-opacity="0"/>
</linearGradient>
<linearGradient id="paint4_linear" x1="272.584" y1="-21.816" x2="272.584" y2="74.184" gradientUnits="userSpaceOnUse">
<stop stop-color="#E5E5E5"/>
<stop offset="0.0001" stop-color="white" stop-opacity="0.0416667"/>
<stop offset="0.197917" stop-color="#F31010" stop-opacity="0"/>
<stop offset="0.9999" stop-color="white" stop-opacity="0.0416667"/>
<stop offset="1" stop-color="#F31010" stop-opacity="0"/>
</linearGradient>
<linearGradient id="paint5_linear" x1="272.584" y1="-21.816" x2="272.584" y2="74.184" gradientUnits="userSpaceOnUse">
<stop stop-color="#E5E5E5"/>
<stop offset="0.0001" stop-color="white" stop-opacity="0.0416667"/>
<stop offset="0.197917" stop-color="#F31010" stop-opacity="0"/>
<stop offset="0.9999" stop-color="white" stop-opacity="0.0416667"/>
<stop offset="1" stop-color="#F31010" stop-opacity="0"/>
</linearGradient>
<linearGradient id="paint6_linear" x1="272.584" y1="-21.816" x2="272.584" y2="74.184" gradientUnits="userSpaceOnUse">
<stop stop-color="#E5E5E5"/>
<stop offset="0.0001" stop-color="white" stop-opacity="0.0416667"/>
<stop offset="0.197917" stop-color="#F31010" stop-opacity="0"/>
<stop offset="0.9999" stop-color="white" stop-opacity="0.0416667"/>
<stop offset="1" stop-color="#F31010" stop-opacity="0"/>
</linearGradient>
<linearGradient id="paint7_linear" x1="272.584" y1="-21.816" x2="272.584" y2="74.184" gradientUnits="userSpaceOnUse">
<stop stop-color="#E5E5E5"/>
<stop offset="0.0001" stop-color="white" stop-opacity="0.0416667"/>
<stop offset="0.197917" stop-color="#F31010" stop-opacity="0"/>
<stop offset="0.9999" stop-color="white" stop-opacity="0.0416667"/>
<stop offset="1" stop-color="#F31010" stop-opacity="0"/>
</linearGradient>
<linearGradient id="paint8_linear" x1="272.584" y1="-21.816" x2="272.584" y2="74.184" gradientUnits="userSpaceOnUse">
<stop stop-color="#E5E5E5"/>
<stop offset="0.0001" stop-color="white" stop-opacity="0.0416667"/>
<stop offset="0.197917" stop-color="#F31010" stop-opacity="0"/>
<stop offset="0.9999" stop-color="white" stop-opacity="0.0416667"/>
<stop offset="1" stop-color="#F31010" stop-opacity="0"/>
</linearGradient>
<linearGradient id="paint9_linear" x1="272.584" y1="-21.816" x2="272.584" y2="74.184" gradientUnits="userSpaceOnUse">
<stop stop-color="#E5E5E5"/>
<stop offset="0.0001" stop-color="white" stop-opacity="0.0416667"/>
<stop offset="0.197917" stop-color="#F31010" stop-opacity="0"/>
<stop offset="0.9999" stop-color="white" stop-opacity="0.0416667"/>
<stop offset="1" stop-color="#F31010" stop-opacity="0"/>
</linearGradient>
<linearGradient id="paint10_linear" x1="272.584" y1="-21.816" x2="272.584" y2="74.184" gradientUnits="userSpaceOnUse">
<stop stop-color="#E5E5E5"/>
<stop offset="0.0001" stop-color="white" stop-opacity="0.0416667"/>
<stop offset="0.197917" stop-color="#F31010" stop-opacity="0"/>
<stop offset="0.9999" stop-color="white" stop-opacity="0.0416667"/>
<stop offset="1" stop-color="#F31010" stop-opacity="0"/>
</linearGradient>
<linearGradient id="paint11_linear" x1="272.584" y1="-21.816" x2="272.584" y2="74.184" gradientUnits="userSpaceOnUse">
<stop stop-color="#E5E5E5"/>
<stop offset="0.0001" stop-color="white" stop-opacity="0.0416667"/>
<stop offset="0.197917" stop-color="#F31010" stop-opacity="0"/>
<stop offset="0.9999" stop-color="white" stop-opacity="0.0416667"/>
<stop offset="1" stop-color="#F31010" stop-opacity="0"/>
</linearGradient>
<linearGradient id="paint12_linear" x1="272.584" y1="-21.816" x2="272.584" y2="74.184" gradientUnits="userSpaceOnUse">
<stop stop-color="#E5E5E5"/>
<stop offset="0.9998" stop-color="#E5E5E5"/>
<stop offset="0.9999" stop-color="#E5E5E5"/>
<stop offset="1" stop-color="#E5E5E5"/>
</linearGradient>
<linearGradient id="paint13_linear" x1="272.584" y1="-21.816" x2="272.584" y2="74.184" gradientUnits="userSpaceOnUse">
<stop stop-color="#E5E5E5"/>
<stop offset="0.9998" stop-color="#E5E5E5"/>
<stop offset="0.9999" stop-color="#E5E5E5"/>
<stop offset="1" stop-color="#E5E5E5"/>
</linearGradient>
<linearGradient id="paint14_linear" x1="272.584" y1="-21.816" x2="272.584" y2="74.184" gradientUnits="userSpaceOnUse">
<stop stop-color="#E5E5E5"/>
<stop offset="0.9998" stop-color="#E5E5E5"/>
<stop offset="0.9999" stop-color="#E5E5E5"/>
<stop offset="1" stop-color="#E5E5E5"/>
</linearGradient>
<linearGradient id="paint15_linear" x1="272.584" y1="-21.816" x2="272.584" y2="74.184" gradientUnits="userSpaceOnUse">
<stop stop-color="#E5E5E5"/>
<stop offset="0.9998" stop-color="#E5E5E5"/>
<stop offset="0.9999" stop-color="#E5E5E5"/>
<stop offset="1" stop-color="#E5E5E5"/>
</linearGradient>
<linearGradient id="paint16_linear" x1="272.584" y1="-21.816" x2="272.584" y2="74.184" gradientUnits="userSpaceOnUse">
<stop stop-color="#E5E5E5"/>
<stop offset="0.9998" stop-color="#E5E5E5"/>
<stop offset="0.9999" stop-color="#E5E5E5"/>
<stop offset="1" stop-color="#E5E5E5"/>
</linearGradient>
<linearGradient id="paint17_linear" x1="272.584" y1="-21.816" x2="272.584" y2="74.184" gradientUnits="userSpaceOnUse">
<stop stop-color="#E5E5E5"/>
<stop offset="0.9998" stop-color="#E5E5E5"/>
<stop offset="0.9999" stop-color="#E5E5E5"/>
<stop offset="1" stop-color="#E5E5E5"/>
</linearGradient>
<linearGradient id="paint18_linear" x1="272.584" y1="-21.816" x2="272.584" y2="74.184" gradientUnits="userSpaceOnUse">
<stop stop-color="#E5E5E5"/>
<stop offset="0.9998" stop-color="#E5E5E5"/>
<stop offset="0.9999" stop-color="#E5E5E5"/>
<stop offset="1" stop-color="#E5E5E5"/>
</linearGradient>
<linearGradient id="paint19_linear" x1="272.584" y1="-21.816" x2="272.584" y2="74.184" gradientUnits="userSpaceOnUse">
<stop stop-color="#E5E5E5"/>
<stop offset="0.9998" stop-color="#E5E5E5"/>
<stop offset="0.9999" stop-color="#E5E5E5"/>
<stop offset="1" stop-color="#E5E5E5"/>
</linearGradient>
<linearGradient id="paint20_linear" x1="272.584" y1="-21.816" x2="272.584" y2="74.184" gradientUnits="userSpaceOnUse">
<stop stop-color="#E5E5E5"/>
<stop offset="0.9998" stop-color="#E5E5E5"/>
<stop offset="0.9999" stop-color="#E5E5E5"/>
<stop offset="1" stop-color="#E5E5E5"/>
</linearGradient>
<linearGradient id="paint21_linear" x1="272.584" y1="-21.816" x2="272.584" y2="74.184" gradientUnits="userSpaceOnUse">
<stop stop-color="#E5E5E5"/>
<stop offset="0.9998" stop-color="#E5E5E5"/>
<stop offset="0.9999" stop-color="#E5E5E5"/>
<stop offset="1" stop-color="#E5E5E5"/>
</linearGradient>
<linearGradient id="paint22_linear" x1="272.584" y1="-21.816" x2="272.584" y2="74.184" gradientUnits="userSpaceOnUse">
<stop stop-color="#E5E5E5"/>
<stop offset="0.9998" stop-color="#E5E5E5"/>
<stop offset="0.9999" stop-color="#E5E5E5"/>
<stop offset="1" stop-color="#E5E5E5"/>
</linearGradient>
<linearGradient id="paint23_linear" x1="272.584" y1="-21.816" x2="272.584" y2="74.184" gradientUnits="userSpaceOnUse">
<stop stop-color="#E5E5E5"/>
<stop offset="0.9998" stop-color="#E5E5E5"/>
<stop offset="0.9999" stop-color="#E5E5E5"/>
<stop offset="1" stop-color="#E5E5E5"/>
</linearGradient>
</defs>
</svg>
