<svg width="436" height="77" viewBox="0 0 436 77" fill="none" xmlns="http://www.w3.org/2000/svg">
<g filter="url(#filter0_i)">
<path d="M19.2162 77C15.8505 77 12.7798 75.3801 10.004 72.1402C7.2282 68.8284 5.02491 64.2567 3.39413 58.425C1.79804 52.5213 1 45.8976 1 38.554C1 31.2104 1.79804 24.6227 3.39413 18.791C5.02491 12.8873 7.2282 8.31557 10.004 5.07573C12.7798 1.76391 15.8505 0.107993 19.2162 0.107993C22.6165 0.107993 25.7046 1.76391 28.4804 5.07573C31.2562 8.31557 33.4421 12.8513 35.0382 18.683C36.6343 24.5147 37.4324 31.1384 37.4324 38.554C37.4324 45.9696 36.6343 52.5933 35.0382 58.425C33.4421 64.2567 31.2562 68.8284 28.4804 72.1402C25.7046 75.3801 22.6165 77 19.2162 77ZM19.2162 68.4684C21.7491 68.4684 24.0218 67.2445 26.0342 64.7966C28.0814 62.3488 29.6775 58.8569 30.8225 54.3212C32.0022 49.7854 32.5921 44.5297 32.5921 38.554C32.5921 32.5063 32.0022 27.2506 30.8225 22.7868C29.6775 18.251 28.0987 14.7592 26.0863 12.3114C24.0738 9.86349 21.7838 8.63955 19.2162 8.63955C16.6486 8.63955 14.3585 9.86349 12.3461 12.3114C10.3336 14.7592 8.73754 18.251 7.55782 22.7868C6.41281 27.2506 5.8403 32.5063 5.8403 38.554C5.8403 44.5297 6.41281 49.7854 7.55782 54.3212C8.73754 58.8569 10.3336 62.3488 12.3461 64.7966C14.3932 67.2445 16.6833 68.4684 19.2162 68.4684Z" fill="url(#paint0_linear)" style="mix-blend-mode:soft-light"/>
<path d="M63.8267 76.244L55.187 45.4656H49.4619V76.244H44.7257V0.97195H56.4361C59.1772 0.97195 61.4846 1.9439 63.3583 3.8878C65.2666 5.8317 66.6892 8.45956 67.6261 11.7714C68.5629 15.0832 69.0313 18.863 69.0313 23.1108C69.0313 28.2945 68.3027 32.8663 66.8454 36.8261C65.4228 40.7859 63.2715 43.4137 60.3916 44.7097L69.4997 76.244H63.8267ZM49.4619 37.582H56.4361C59.0038 37.582 60.9295 36.2861 62.2133 33.6942C63.4971 31.0304 64.139 27.5026 64.139 23.1108C64.139 18.647 63.4971 15.1912 62.2133 12.7433C60.9642 10.2955 59.0384 9.07153 56.4361 9.07153H49.4619V37.582Z" fill="url(#paint1_linear)" style="mix-blend-mode:soft-light"/>
<path d="M99.7593 0.97195V8.96353H89.8705V76.244H85.1343V8.96353H75.1935V0.97195H99.7593Z" fill="url(#paint2_linear)" style="mix-blend-mode:soft-light"/>
<path d="M134.579 0.97195V76.244H129.843V42.1178H111.366V76.244H106.63V0.97195H111.366V34.0182H129.843V0.97195H134.579Z" fill="url(#paint3_linear)" style="mix-blend-mode:soft-light"/>
<path d="M160.154 77C156.788 77 153.717 75.3801 150.941 72.1402C148.166 68.8284 145.962 64.2567 144.332 58.425C142.736 52.5213 141.937 45.8976 141.937 38.554C141.937 31.2104 142.736 24.6227 144.332 18.791C145.962 12.8873 148.166 8.31557 150.941 5.07573C153.717 1.76391 156.788 0.107993 160.154 0.107993C163.554 0.107993 166.642 1.76391 169.418 5.07573C172.194 8.31557 174.38 12.8513 175.976 18.683C177.572 24.5147 178.37 31.1384 178.37 38.554C178.37 45.9696 177.572 52.5933 175.976 58.425C174.38 64.2567 172.194 68.8284 169.418 72.1402C166.642 75.3801 163.554 77 160.154 77ZM160.154 68.4684C162.687 68.4684 164.959 67.2445 166.972 64.7966C169.019 62.3488 170.615 58.8569 171.76 54.3212C172.94 49.7854 173.53 44.5297 173.53 38.554C173.53 32.5063 172.94 27.2506 171.76 22.7868C170.615 18.251 169.036 14.7592 167.024 12.3114C165.011 9.86349 162.721 8.63955 160.154 8.63955C157.586 8.63955 155.296 9.86349 153.284 12.3114C151.271 14.7592 149.675 18.251 148.495 22.7868C147.35 27.2506 146.778 32.5063 146.778 38.554C146.778 44.5297 147.35 49.7854 148.495 54.3212C149.675 58.8569 151.271 62.3488 153.284 64.7966C155.331 67.2445 157.621 68.4684 160.154 68.4684Z" fill="url(#paint4_linear)" style="mix-blend-mode:soft-light"/>
<path d="M198.81 38.554C198.81 31.2104 199.608 24.6227 201.204 18.791C202.8 12.8873 204.969 8.27957 207.71 4.96774C210.486 1.65591 213.557 0 216.922 0C220.878 0 224.33 1.9799 227.279 5.93969C230.229 9.89949 232.38 15.5152 233.733 22.7868H228.06C227.054 18.251 225.597 14.7592 223.688 12.3114C221.815 9.86349 219.559 8.63955 216.922 8.63955C214.389 8.63955 212.117 9.86349 210.104 12.3114C208.092 14.7592 206.513 18.251 205.368 22.7868C204.223 27.2506 203.65 32.5063 203.65 38.554C203.65 44.5297 204.223 49.7854 205.368 54.3212C206.513 58.7849 208.092 62.2408 210.104 64.6886C212.117 67.1365 214.389 68.3604 216.922 68.3604C219.559 68.3604 221.815 67.1725 223.688 64.7966C225.597 62.3488 227.054 58.8569 228.06 54.3212H233.733C232.38 61.5208 230.229 67.1005 227.279 71.0603C224.33 74.9481 220.878 76.892 216.922 76.892C213.557 76.892 210.486 75.2721 207.71 72.0323C204.969 68.7204 202.8 64.1487 201.204 58.317C199.608 52.4853 198.81 45.8976 198.81 38.554Z" fill="url(#paint5_linear)" style="mix-blend-mode:soft-light"/>
<path d="M258.271 77C254.905 77 251.835 75.3801 249.059 72.1402C246.283 68.8284 244.08 64.2567 242.449 58.425C240.853 52.5213 240.055 45.8976 240.055 38.554C240.055 31.2104 240.853 24.6227 242.449 18.791C244.08 12.8873 246.283 8.31557 249.059 5.07573C251.835 1.76391 254.905 0.107993 258.271 0.107993C261.671 0.107993 264.759 1.76391 267.535 5.07573C270.311 8.31557 272.497 12.8513 274.093 18.683C275.689 24.5147 276.487 31.1384 276.487 38.554C276.487 45.9696 275.689 52.5933 274.093 58.425C272.497 64.2567 270.311 68.8284 267.535 72.1402C264.759 75.3801 261.671 77 258.271 77ZM258.271 68.4684C260.804 68.4684 263.077 67.2445 265.089 64.7966C267.136 62.3488 268.732 58.8569 269.877 54.3212C271.057 49.7854 271.647 44.5297 271.647 38.554C271.647 32.5063 271.057 27.2506 269.877 22.7868C268.732 18.251 267.154 14.7592 265.141 12.3114C263.129 9.86349 260.839 8.63955 258.271 8.63955C255.703 8.63955 253.413 9.86349 251.401 12.3114C249.388 14.7592 247.792 18.251 246.613 22.7868C245.468 27.2506 244.895 32.5063 244.895 38.554C244.895 44.5297 245.468 49.7854 246.613 54.3212C247.792 58.8569 249.388 62.3488 251.401 64.7966C253.448 67.2445 255.738 68.4684 258.271 68.4684Z" fill="url(#paint6_linear)" style="mix-blend-mode:soft-light"/>
<path d="M312.302 76.244H307.566L288.517 16.3072V76.244H283.781V0.863957H288.517L307.566 60.6928V0.863957H312.302V76.244Z" fill="url(#paint7_linear)" style="mix-blend-mode:soft-light"/>
<path d="M332.919 77C330.525 77 328.373 76.136 326.465 74.4081C324.591 72.6082 323.117 70.1604 322.041 67.0645C320.965 63.8967 320.41 60.2609 320.376 56.1571H325.424C325.598 59.6849 326.291 62.6727 327.506 65.1206C328.755 67.4965 330.559 68.6844 332.919 68.6844C335.174 68.6844 336.944 67.5325 338.227 65.2286C339.546 62.8527 340.205 59.8289 340.205 56.1571C340.205 53.2772 339.823 50.9374 339.06 49.1374C338.297 47.3375 337.343 45.9696 336.198 45.0337C335.053 44.0977 333.509 43.0898 331.565 42.0098C329.171 40.7139 327.246 39.4179 325.788 38.122C324.366 36.8261 323.134 34.8102 322.093 32.0743C321.087 29.2665 320.584 25.5227 320.584 20.8429C320.584 16.7391 321.087 13.1033 322.093 9.93548C323.099 6.76765 324.505 4.31977 326.309 2.59186C328.148 0.863955 330.247 0 332.606 0C336.007 0 338.783 1.76391 340.934 5.29173C343.12 8.81954 344.351 13.4993 344.629 19.331H339.424C339.251 16.4511 338.522 13.9313 337.238 11.7714C335.955 9.5395 334.255 8.42356 332.138 8.42356C330.16 8.42356 328.547 9.50351 327.298 11.6634C326.049 13.7513 325.424 16.7031 325.424 20.5189C325.424 23.2548 325.788 25.4867 326.517 27.2146C327.28 28.9425 328.2 30.2744 329.275 31.2104C330.386 32.0743 331.93 33.0823 333.908 34.2342C336.302 35.6021 338.227 36.9701 339.685 38.338C341.142 39.6339 342.391 41.6858 343.432 44.4937C344.473 47.2295 344.993 50.9733 344.993 55.7251C344.993 59.3969 344.525 62.8527 343.588 66.0926C342.651 69.3324 341.263 71.9603 339.424 73.9761C337.585 75.992 335.417 77 332.919 77Z" fill="url(#paint8_linear)" style="mix-blend-mode:soft-light"/>
<path d="M357.636 0.97195V48.5975C357.636 55.2931 358.417 60.2609 359.978 63.5007C361.574 66.7405 363.778 68.3604 366.588 68.3604C369.364 68.3604 371.532 66.7405 373.094 63.5007C374.69 60.2609 375.488 55.2931 375.488 48.5975V0.97195H380.224V48.4895C380.224 54.7532 379.617 60.0449 378.403 64.3647C377.188 68.6124 375.54 71.7803 373.458 73.8682C371.411 75.9561 369.104 77 366.536 77C363.968 77 361.644 75.9561 359.562 73.8682C357.515 71.7803 355.884 68.6124 354.669 64.3647C353.49 60.0449 352.9 54.7532 352.9 48.4895V0.97195H357.636Z" fill="url(#paint9_linear)" style="mix-blend-mode:soft-light"/>
<path d="M393.902 68.2524H406.601V76.244H389.166V0.97195H393.902V68.2524Z" fill="url(#paint10_linear)" style="mix-blend-mode:soft-light"/>
<path d="M435 0.97195V8.96353H425.111V76.244H420.375V8.96353H410.434V0.97195H435Z" fill="url(#paint11_linear)" style="mix-blend-mode:soft-light"/>
</g>
<path d="M19.2162 77C15.8505 77 12.7798 75.3801 10.004 72.1402C7.2282 68.8284 5.02491 64.2567 3.39413 58.425C1.79804 52.5213 1 45.8976 1 38.554C1 31.2104 1.79804 24.6227 3.39413 18.791C5.02491 12.8873 7.2282 8.31557 10.004 5.07573C12.7798 1.76391 15.8505 0.107993 19.2162 0.107993C22.6165 0.107993 25.7046 1.76391 28.4804 5.07573C31.2562 8.31557 33.4421 12.8513 35.0382 18.683C36.6343 24.5147 37.4324 31.1384 37.4324 38.554C37.4324 45.9696 36.6343 52.5933 35.0382 58.425C33.4421 64.2567 31.2562 68.8284 28.4804 72.1402C25.7046 75.3801 22.6165 77 19.2162 77ZM19.2162 68.4684C21.7491 68.4684 24.0218 67.2445 26.0342 64.7966C28.0814 62.3488 29.6775 58.8569 30.8225 54.3212C32.0022 49.7854 32.5921 44.5297 32.5921 38.554C32.5921 32.5063 32.0022 27.2506 30.8225 22.7868C29.6775 18.251 28.0987 14.7592 26.0863 12.3114C24.0738 9.86349 21.7838 8.63955 19.2162 8.63955C16.6486 8.63955 14.3585 9.86349 12.3461 12.3114C10.3336 14.7592 8.73754 18.251 7.55782 22.7868C6.41281 27.2506 5.8403 32.5063 5.8403 38.554C5.8403 44.5297 6.41281 49.7854 7.55782 54.3212C8.73754 58.8569 10.3336 62.3488 12.3461 64.7966C14.3932 67.2445 16.6833 68.4684 19.2162 68.4684Z" stroke="url(#paint12_linear)"/>
<path d="M63.8267 76.244L55.187 45.4656H49.4619V76.244H44.7257V0.97195H56.4361C59.1772 0.97195 61.4846 1.9439 63.3583 3.8878C65.2666 5.8317 66.6892 8.45956 67.6261 11.7714C68.5629 15.0832 69.0313 18.863 69.0313 23.1108C69.0313 28.2945 68.3027 32.8663 66.8454 36.8261C65.4228 40.7859 63.2715 43.4137 60.3916 44.7097L69.4997 76.244H63.8267ZM49.4619 37.582H56.4361C59.0038 37.582 60.9295 36.2861 62.2133 33.6942C63.4971 31.0304 64.139 27.5026 64.139 23.1108C64.139 18.647 63.4971 15.1912 62.2133 12.7433C60.9642 10.2955 59.0384 9.07153 56.4361 9.07153H49.4619V37.582Z" stroke="url(#paint13_linear)"/>
<path d="M99.7593 0.97195V8.96353H89.8705V76.244H85.1343V8.96353H75.1935V0.97195H99.7593Z" stroke="url(#paint14_linear)"/>
<path d="M134.579 0.97195V76.244H129.843V42.1178H111.366V76.244H106.63V0.97195H111.366V34.0182H129.843V0.97195H134.579Z" stroke="url(#paint15_linear)"/>
<path d="M160.154 77C156.788 77 153.717 75.3801 150.941 72.1402C148.166 68.8284 145.962 64.2567 144.332 58.425C142.736 52.5213 141.937 45.8976 141.937 38.554C141.937 31.2104 142.736 24.6227 144.332 18.791C145.962 12.8873 148.166 8.31557 150.941 5.07573C153.717 1.76391 156.788 0.107993 160.154 0.107993C163.554 0.107993 166.642 1.76391 169.418 5.07573C172.194 8.31557 174.38 12.8513 175.976 18.683C177.572 24.5147 178.37 31.1384 178.37 38.554C178.37 45.9696 177.572 52.5933 175.976 58.425C174.38 64.2567 172.194 68.8284 169.418 72.1402C166.642 75.3801 163.554 77 160.154 77ZM160.154 68.4684C162.687 68.4684 164.959 67.2445 166.972 64.7966C169.019 62.3488 170.615 58.8569 171.76 54.3212C172.94 49.7854 173.53 44.5297 173.53 38.554C173.53 32.5063 172.94 27.2506 171.76 22.7868C170.615 18.251 169.036 14.7592 167.024 12.3114C165.011 9.86349 162.721 8.63955 160.154 8.63955C157.586 8.63955 155.296 9.86349 153.284 12.3114C151.271 14.7592 149.675 18.251 148.495 22.7868C147.35 27.2506 146.778 32.5063 146.778 38.554C146.778 44.5297 147.35 49.7854 148.495 54.3212C149.675 58.8569 151.271 62.3488 153.284 64.7966C155.331 67.2445 157.621 68.4684 160.154 68.4684Z" stroke="url(#paint16_linear)"/>
<path d="M198.81 38.554C198.81 31.2104 199.608 24.6227 201.204 18.791C202.8 12.8873 204.969 8.27957 207.71 4.96774C210.486 1.65591 213.557 0 216.922 0C220.878 0 224.33 1.9799 227.279 5.93969C230.229 9.89949 232.38 15.5152 233.733 22.7868H228.06C227.054 18.251 225.597 14.7592 223.688 12.3114C221.815 9.86349 219.559 8.63955 216.922 8.63955C214.389 8.63955 212.117 9.86349 210.104 12.3114C208.092 14.7592 206.513 18.251 205.368 22.7868C204.223 27.2506 203.65 32.5063 203.65 38.554C203.65 44.5297 204.223 49.7854 205.368 54.3212C206.513 58.7849 208.092 62.2408 210.104 64.6886C212.117 67.1365 214.389 68.3604 216.922 68.3604C219.559 68.3604 221.815 67.1725 223.688 64.7966C225.597 62.3488 227.054 58.8569 228.06 54.3212H233.733C232.38 61.5208 230.229 67.1005 227.279 71.0603C224.33 74.9481 220.878 76.892 216.922 76.892C213.557 76.892 210.486 75.2721 207.71 72.0323C204.969 68.7204 202.8 64.1487 201.204 58.317C199.608 52.4853 198.81 45.8976 198.81 38.554Z" stroke="url(#paint17_linear)"/>
<path d="M258.271 77C254.905 77 251.835 75.3801 249.059 72.1402C246.283 68.8284 244.08 64.2567 242.449 58.425C240.853 52.5213 240.055 45.8976 240.055 38.554C240.055 31.2104 240.853 24.6227 242.449 18.791C244.08 12.8873 246.283 8.31557 249.059 5.07573C251.835 1.76391 254.905 0.107993 258.271 0.107993C261.671 0.107993 264.759 1.76391 267.535 5.07573C270.311 8.31557 272.497 12.8513 274.093 18.683C275.689 24.5147 276.487 31.1384 276.487 38.554C276.487 45.9696 275.689 52.5933 274.093 58.425C272.497 64.2567 270.311 68.8284 267.535 72.1402C264.759 75.3801 261.671 77 258.271 77ZM258.271 68.4684C260.804 68.4684 263.077 67.2445 265.089 64.7966C267.136 62.3488 268.732 58.8569 269.877 54.3212C271.057 49.7854 271.647 44.5297 271.647 38.554C271.647 32.5063 271.057 27.2506 269.877 22.7868C268.732 18.251 267.154 14.7592 265.141 12.3114C263.129 9.86349 260.839 8.63955 258.271 8.63955C255.703 8.63955 253.413 9.86349 251.401 12.3114C249.388 14.7592 247.792 18.251 246.613 22.7868C245.468 27.2506 244.895 32.5063 244.895 38.554C244.895 44.5297 245.468 49.7854 246.613 54.3212C247.792 58.8569 249.388 62.3488 251.401 64.7966C253.448 67.2445 255.738 68.4684 258.271 68.4684Z" stroke="url(#paint18_linear)"/>
<path d="M312.302 76.244H307.566L288.517 16.3072V76.244H283.781V0.863957H288.517L307.566 60.6928V0.863957H312.302V76.244Z" stroke="url(#paint19_linear)"/>
<path d="M332.919 77C330.525 77 328.373 76.136 326.465 74.4081C324.591 72.6082 323.117 70.1604 322.041 67.0645C320.965 63.8967 320.41 60.2609 320.376 56.1571H325.424C325.598 59.6849 326.291 62.6727 327.506 65.1206C328.755 67.4965 330.559 68.6844 332.919 68.6844C335.174 68.6844 336.944 67.5325 338.227 65.2286C339.546 62.8527 340.205 59.8289 340.205 56.1571C340.205 53.2772 339.823 50.9374 339.06 49.1374C338.297 47.3375 337.343 45.9696 336.198 45.0337C335.053 44.0977 333.509 43.0898 331.565 42.0098C329.171 40.7139 327.246 39.4179 325.788 38.122C324.366 36.8261 323.134 34.8102 322.093 32.0743C321.087 29.2665 320.584 25.5227 320.584 20.8429C320.584 16.7391 321.087 13.1033 322.093 9.93548C323.099 6.76765 324.505 4.31977 326.309 2.59186C328.148 0.863955 330.247 0 332.606 0C336.007 0 338.783 1.76391 340.934 5.29173C343.12 8.81954 344.351 13.4993 344.629 19.331H339.424C339.251 16.4511 338.522 13.9313 337.238 11.7714C335.955 9.5395 334.255 8.42356 332.138 8.42356C330.16 8.42356 328.547 9.50351 327.298 11.6634C326.049 13.7513 325.424 16.7031 325.424 20.5189C325.424 23.2548 325.788 25.4867 326.517 27.2146C327.28 28.9425 328.2 30.2744 329.275 31.2104C330.386 32.0743 331.93 33.0823 333.908 34.2342C336.302 35.6021 338.227 36.9701 339.685 38.338C341.142 39.6339 342.391 41.6858 343.432 44.4937C344.473 47.2295 344.993 50.9733 344.993 55.7251C344.993 59.3969 344.525 62.8527 343.588 66.0926C342.651 69.3324 341.263 71.9603 339.424 73.9761C337.585 75.992 335.417 77 332.919 77Z" stroke="url(#paint20_linear)"/>
<path d="M357.636 0.97195V48.5975C357.636 55.2931 358.417 60.2609 359.978 63.5007C361.574 66.7405 363.778 68.3604 366.588 68.3604C369.364 68.3604 371.532 66.7405 373.094 63.5007C374.69 60.2609 375.488 55.2931 375.488 48.5975V0.97195H380.224V48.4895C380.224 54.7532 379.617 60.0449 378.403 64.3647C377.188 68.6124 375.54 71.7803 373.458 73.8682C371.411 75.9561 369.104 77 366.536 77C363.968 77 361.644 75.9561 359.562 73.8682C357.515 71.7803 355.884 68.6124 354.669 64.3647C353.49 60.0449 352.9 54.7532 352.9 48.4895V0.97195H357.636Z" stroke="url(#paint21_linear)"/>
<path d="M393.902 68.2524H406.601V76.244H389.166V0.97195H393.902V68.2524Z" stroke="url(#paint22_linear)"/>
<path d="M435 0.97195V8.96353H425.111V76.244H420.375V8.96353H410.434V0.97195H435Z" stroke="url(#paint23_linear)"/>
<defs>
<filter id="filter0_i" x="0.5" y="-0.5" width="435" height="82" filterUnits="userSpaceOnUse" color-interpolation-filters="sRGB">
<feFlood flood-opacity="0" result="BackgroundImageFix"/>
<feBlend mode="normal" in="SourceGraphic" in2="BackgroundImageFix" result="shape"/>
<feColorMatrix in="SourceAlpha" type="matrix" values="0 0 0 0 0 0 0 0 0 0 0 0 0 0 0 0 0 0 127 0" result="hardAlpha"/>
<feOffset dy="4"/>
<feGaussianBlur stdDeviation="2"/>
<feComposite in2="hardAlpha" operator="arithmetic" k2="-1" k3="1"/>
<feColorMatrix type="matrix" values="0 0 0 0 0 0 0 0 0 0 0 0 0 0 0 0 0 0 0.25 0"/>
<feBlend mode="normal" in2="shape" result="effect1_innerShadow"/>
</filter>
<linearGradient id="paint0_linear" x1="216.979" y1="-41.8748" x2="216.979" y2="120.117" gradientUnits="userSpaceOnUse">
<stop stop-color="#F50F0F"/>
<stop offset="0.0001" stop-color="white" stop-opacity="0.0416667"/>
<stop offset="0.0002" stop-color="#E5E5E5"/>
<stop offset="0.171875" stop-color="#F53030" stop-opacity="0.01"/>
<stop offset="0.197917" stop-color="#F31010" stop-opacity="0"/>
<stop offset="0.9999" stop-color="white" stop-opacity="0.0416667"/>
<stop offset="1" stop-color="#F31010" stop-opacity="0"/>
</linearGradient>
<linearGradient id="paint1_linear" x1="216.979" y1="-41.8748" x2="216.979" y2="120.117" gradientUnits="userSpaceOnUse">
<stop stop-color="#F50F0F"/>
<stop offset="0.0001" stop-color="white" stop-opacity="0.0416667"/>
<stop offset="0.0002" stop-color="#E5E5E5"/>
<stop offset="0.171875" stop-color="#F53030" stop-opacity="0.01"/>
<stop offset="0.197917" stop-color="#F31010" stop-opacity="0"/>
<stop offset="0.9999" stop-color="white" stop-opacity="0.0416667"/>
<stop offset="1" stop-color="#F31010" stop-opacity="0"/>
</linearGradient>
<linearGradient id="paint2_linear" x1="216.979" y1="-41.8748" x2="216.979" y2="120.117" gradientUnits="userSpaceOnUse">
<stop stop-color="#F50F0F"/>
<stop offset="0.0001" stop-color="white" stop-opacity="0.0416667"/>
<stop offset="0.0002" stop-color="#E5E5E5"/>
<stop offset="0.171875" stop-color="#F53030" stop-opacity="0.01"/>
<stop offset="0.197917" stop-color="#F31010" stop-opacity="0"/>
<stop offset="0.9999" stop-color="white" stop-opacity="0.0416667"/>
<stop offset="1" stop-color="#F31010" stop-opacity="0"/>
</linearGradient>
<linearGradient id="paint3_linear" x1="216.979" y1="-41.8748" x2="216.979" y2="120.117" gradientUnits="userSpaceOnUse">
<stop stop-color="#F50F0F"/>
<stop offset="0.0001" stop-color="white" stop-opacity="0.0416667"/>
<stop offset="0.0002" stop-color="#E5E5E5"/>
<stop offset="0.171875" stop-color="#F53030" stop-opacity="0.01"/>
<stop offset="0.197917" stop-color="#F31010" stop-opacity="0"/>
<stop offset="0.9999" stop-color="white" stop-opacity="0.0416667"/>
<stop offset="1" stop-color="#F31010" stop-opacity="0"/>
</linearGradient>
<linearGradient id="paint4_linear" x1="216.979" y1="-41.8748" x2="216.979" y2="120.117" gradientUnits="userSpaceOnUse">
<stop stop-color="#F50F0F"/>
<stop offset="0.0001" stop-color="white" stop-opacity="0.0416667"/>
<stop offset="0.0002" stop-color="#E5E5E5"/>
<stop offset="0.171875" stop-color="#F53030" stop-opacity="0.01"/>
<stop offset="0.197917" stop-color="#F31010" stop-opacity="0"/>
<stop offset="0.9999" stop-color="white" stop-opacity="0.0416667"/>
<stop offset="1" stop-color="#F31010" stop-opacity="0"/>
</linearGradient>
<linearGradient id="paint5_linear" x1="216.979" y1="-41.8748" x2="216.979" y2="120.117" gradientUnits="userSpaceOnUse">
<stop stop-color="#F50F0F"/>
<stop offset="0.0001" stop-color="white" stop-opacity="0.0416667"/>
<stop offset="0.0002" stop-color="#E5E5E5"/>
<stop offset="0.171875" stop-color="#F53030" stop-opacity="0.01"/>
<stop offset="0.197917" stop-color="#F31010" stop-opacity="0"/>
<stop offset="0.9999" stop-color="white" stop-opacity="0.0416667"/>
<stop offset="1" stop-color="#F31010" stop-opacity="0"/>
</linearGradient>
<linearGradient id="paint6_linear" x1="216.979" y1="-41.8748" x2="216.979" y2="120.117" gradientUnits="userSpaceOnUse">
<stop stop-color="#F50F0F"/>
<stop offset="0.0001" stop-color="white" stop-opacity="0.0416667"/>
<stop offset="0.0002" stop-color="#E5E5E5"/>
<stop offset="0.171875" stop-color="#F53030" stop-opacity="0.01"/>
<stop offset="0.197917" stop-color="#F31010" stop-opacity="0"/>
<stop offset="0.9999" stop-color="white" stop-opacity="0.0416667"/>
<stop offset="1" stop-color="#F31010" stop-opacity="0"/>
</linearGradient>
<linearGradient id="paint7_linear" x1="216.979" y1="-41.8748" x2="216.979" y2="120.117" gradientUnits="userSpaceOnUse">
<stop stop-color="#F50F0F"/>
<stop offset="0.0001" stop-color="white" stop-opacity="0.0416667"/>
<stop offset="0.0002" stop-color="#E5E5E5"/>
<stop offset="0.171875" stop-color="#F53030" stop-opacity="0.01"/>
<stop offset="0.197917" stop-color="#F31010" stop-opacity="0"/>
<stop offset="0.9999" stop-color="white" stop-opacity="0.0416667"/>
<stop offset="1" stop-color="#F31010" stop-opacity="0"/>
</linearGradient>
<linearGradient id="paint8_linear" x1="216.979" y1="-41.8748" x2="216.979" y2="120.117" gradientUnits="userSpaceOnUse">
<stop stop-color="#F50F0F"/>
<stop offset="0.0001" stop-color="white" stop-opacity="0.0416667"/>
<stop offset="0.0002" stop-color="#E5E5E5"/>
<stop offset="0.171875" stop-color="#F53030" stop-opacity="0.01"/>
<stop offset="0.197917" stop-color="#F31010" stop-opacity="0"/>
<stop offset="0.9999" stop-color="white" stop-opacity="0.0416667"/>
<stop offset="1" stop-color="#F31010" stop-opacity="0"/>
</linearGradient>
<linearGradient id="paint9_linear" x1="216.979" y1="-41.8748" x2="216.979" y2="120.117" gradientUnits="userSpaceOnUse">
<stop stop-color="#F50F0F"/>
<stop offset="0.0001" stop-color="white" stop-opacity="0.0416667"/>
<stop offset="0.0002" stop-color="#E5E5E5"/>
<stop offset="0.171875" stop-color="#F53030" stop-opacity="0.01"/>
<stop offset="0.197917" stop-color="#F31010" stop-opacity="0"/>
<stop offset="0.9999" stop-color="white" stop-opacity="0.0416667"/>
<stop offset="1" stop-color="#F31010" stop-opacity="0"/>
</linearGradient>
<linearGradient id="paint10_linear" x1="216.979" y1="-41.8748" x2="216.979" y2="120.117" gradientUnits="userSpaceOnUse">
<stop stop-color="#F50F0F"/>
<stop offset="0.0001" stop-color="white" stop-opacity="0.0416667"/>
<stop offset="0.0002" stop-color="#E5E5E5"/>
<stop offset="0.171875" stop-color="#F53030" stop-opacity="0.01"/>
<stop offset="0.197917" stop-color="#F31010" stop-opacity="0"/>
<stop offset="0.9999" stop-color="white" stop-opacity="0.0416667"/>
<stop offset="1" stop-color="#F31010" stop-opacity="0"/>
</linearGradient>
<linearGradient id="paint11_linear" x1="216.979" y1="-41.8748" x2="216.979" y2="120.117" gradientUnits="userSpaceOnUse">
<stop stop-color="#F50F0F"/>
<stop offset="0.0001" stop-color="white" stop-opacity="0.0416667"/>
<stop offset="0.0002" stop-color="#E5E5E5"/>
<stop offset="0.171875" stop-color="#F53030" stop-opacity="0.01"/>
<stop offset="0.197917" stop-color="#F31010" stop-opacity="0"/>
<stop offset="0.9999" stop-color="white" stop-opacity="0.0416667"/>
<stop offset="1" stop-color="#F31010" stop-opacity="0"/>
</linearGradient>
<linearGradient id="paint12_linear" x1="216.979" y1="-41.8748" x2="216.979" y2="120.117" gradientUnits="userSpaceOnUse">
<stop stop-color="white"/>
<stop offset="0.9998" stop-color="#E5E5E5"/>
<stop offset="0.9999" stop-color="#E5E5E5"/>
<stop offset="1" stop-color="#E5E5E5"/>
</linearGradient>
<linearGradient id="paint13_linear" x1="216.979" y1="-41.8748" x2="216.979" y2="120.117" gradientUnits="userSpaceOnUse">
<stop stop-color="white"/>
<stop offset="0.9998" stop-color="#E5E5E5"/>
<stop offset="0.9999" stop-color="#E5E5E5"/>
<stop offset="1" stop-color="#E5E5E5"/>
</linearGradient>
<linearGradient id="paint14_linear" x1="216.979" y1="-41.8748" x2="216.979" y2="120.117" gradientUnits="userSpaceOnUse">
<stop stop-color="white"/>
<stop offset="0.9998" stop-color="#E5E5E5"/>
<stop offset="0.9999" stop-color="#E5E5E5"/>
<stop offset="1" stop-color="#E5E5E5"/>
</linearGradient>
<linearGradient id="paint15_linear" x1="216.979" y1="-41.8748" x2="216.979" y2="120.117" gradientUnits="userSpaceOnUse">
<stop stop-color="white"/>
<stop offset="0.9998" stop-color="#E5E5E5"/>
<stop offset="0.9999" stop-color="#E5E5E5"/>
<stop offset="1" stop-color="#E5E5E5"/>
</linearGradient>
<linearGradient id="paint16_linear" x1="216.979" y1="-41.8748" x2="216.979" y2="120.117" gradientUnits="userSpaceOnUse">
<stop stop-color="white"/>
<stop offset="0.9998" stop-color="#E5E5E5"/>
<stop offset="0.9999" stop-color="#E5E5E5"/>
<stop offset="1" stop-color="#E5E5E5"/>
</linearGradient>
<linearGradient id="paint17_linear" x1="216.979" y1="-41.8748" x2="216.979" y2="120.117" gradientUnits="userSpaceOnUse">
<stop stop-color="white"/>
<stop offset="0.9998" stop-color="#E5E5E5"/>
<stop offset="0.9999" stop-color="#E5E5E5"/>
<stop offset="1" stop-color="#E5E5E5"/>
</linearGradient>
<linearGradient id="paint18_linear" x1="216.979" y1="-41.8748" x2="216.979" y2="120.117" gradientUnits="userSpaceOnUse">
<stop stop-color="white"/>
<stop offset="0.9998" stop-color="#E5E5E5"/>
<stop offset="0.9999" stop-color="#E5E5E5"/>
<stop offset="1" stop-color="#E5E5E5"/>
</linearGradient>
<linearGradient id="paint19_linear" x1="216.979" y1="-41.8748" x2="216.979" y2="120.117" gradientUnits="userSpaceOnUse">
<stop stop-color="white"/>
<stop offset="0.9998" stop-color="#E5E5E5"/>
<stop offset="0.9999" stop-color="#E5E5E5"/>
<stop offset="1" stop-color="#E5E5E5"/>
</linearGradient>
<linearGradient id="paint20_linear" x1="216.979" y1="-41.8748" x2="216.979" y2="120.117" gradientUnits="userSpaceOnUse">
<stop stop-color="white"/>
<stop offset="0.9998" stop-color="#E5E5E5"/>
<stop offset="0.9999" stop-color="#E5E5E5"/>
<stop offset="1" stop-color="#E5E5E5"/>
</linearGradient>
<linearGradient id="paint21_linear" x1="216.979" y1="-41.8748" x2="216.979" y2="120.117" gradientUnits="userSpaceOnUse">
<stop stop-color="white"/>
<stop offset="0.9998" stop-color="#E5E5E5"/>
<stop offset="0.9999" stop-color="#E5E5E5"/>
<stop offset="1" stop-color="#E5E5E5"/>
</linearGradient>
<linearGradient id="paint22_linear" x1="216.979" y1="-41.8748" x2="216.979" y2="120.117" gradientUnits="userSpaceOnUse">
<stop stop-color="white"/>
<stop offset="0.9998" stop-color="#E5E5E5"/>
<stop offset="0.9999" stop-color="#E5E5E5"/>
<stop offset="1" stop-color="#E5E5E5"/>
</linearGradient>
<linearGradient id="paint23_linear" x1="216.979" y1="-41.8748" x2="216.979" y2="120.117" gradientUnits="userSpaceOnUse">
<stop stop-color="white"/>
<stop offset="0.9998" stop-color="#E5E5E5"/>
<stop offset="0.9999" stop-color="#E5E5E5"/>
<stop offset="1" stop-color="#E5E5E5"/>
</linearGradient>
</defs>
</svg>
