<svg width="534" height="95" viewBox="0 0 534 95" fill="none" xmlns="http://www.w3.org/2000/svg">
<g filter="url(#filter0_i)">
<path d="M22.8715 95C18.7381 95 14.9669 93.0014 11.5579 89.0042C8.14892 84.9182 5.44303 79.2777 3.44025 72.0827C1.48008 64.799 0.5 56.6269 0.5 47.5666C0.5 38.5063 1.48008 30.3787 3.44025 23.1837C5.44303 15.9 8.14892 10.2595 11.5579 6.26227C14.9669 2.17625 18.7381 0.133238 22.8715 0.133238C27.0475 0.133238 30.84 2.17625 34.249 6.26227C37.658 10.2595 40.3425 15.8555 42.3027 23.0505C44.2629 30.2454 45.243 38.4175 45.243 47.5666C45.243 56.7158 44.2629 64.8878 42.3027 72.0827C40.3425 79.2777 37.658 84.9182 34.249 89.0042C30.84 93.0014 27.0475 95 22.8715 95ZM22.8715 84.474C25.9822 84.474 28.7733 82.964 31.2448 79.9439C33.7589 76.9238 35.7191 72.6157 37.1253 67.0196C38.5741 61.4236 39.2985 54.9392 39.2985 47.5666C39.2985 40.1052 38.5741 33.6208 37.1253 28.1136C35.7191 22.5175 33.7802 18.2094 31.3087 15.1893C28.8372 12.1692 26.0248 10.6592 22.8715 10.6592C19.7182 10.6592 16.9058 12.1692 14.4342 15.1893C11.9627 18.2094 10.0026 22.5175 8.55373 28.1136C7.14753 33.6208 6.44442 40.1052 6.44442 47.5666C6.44442 54.9392 7.14753 61.4236 8.55373 67.0196C10.0026 72.6157 11.9627 76.9238 14.4342 79.9439C16.9484 82.964 19.7608 84.474 22.8715 84.474Z" fill="url(#paint0_linear)" style="mix-blend-mode:soft-light"/>
<path d="M77.6581 94.0673L67.0477 56.094H60.0166V94.0673H54.2V1.19916H68.5817C71.9481 1.19916 74.7818 2.39832 77.0829 4.79664C79.4265 7.19495 81.1737 10.4371 82.3242 14.5231C83.4747 18.6092 84.05 23.2726 84.05 28.5133C84.05 34.9088 83.1551 40.5493 81.3654 45.4348C79.6183 50.3202 76.9763 53.5624 73.4395 55.1613L84.6253 94.0673H77.6581ZM60.0166 46.3675H68.5817C71.735 46.3675 74.1 44.7686 75.6767 41.5708C77.2533 38.2842 78.0416 33.9317 78.0416 28.5133C78.0416 23.0061 77.2533 18.7424 75.6767 15.7223C74.1426 12.7022 71.7776 11.1921 68.5817 11.1921H60.0166V46.3675Z" fill="url(#paint1_linear)" style="mix-blend-mode:soft-light"/>
<path d="M121.787 1.19916V11.0589H109.643V94.0673H103.826V11.0589H91.6178V1.19916H121.787Z" fill="url(#paint2_linear)" style="mix-blend-mode:soft-light"/>
<path d="M164.55 1.19916V94.0673H158.733V51.9635H136.042V94.0673H130.226V1.19916H136.042V41.9705H158.733V1.19916H164.55Z" fill="url(#paint3_linear)" style="mix-blend-mode:soft-light"/>
<path d="M195.958 95C191.825 95 188.054 93.0014 184.645 89.0042C181.236 84.9182 178.53 79.2777 176.527 72.0827C174.567 64.799 173.587 56.6269 173.587 47.5666C173.587 38.5063 174.567 30.3787 176.527 23.1837C178.53 15.9 181.236 10.2595 184.645 6.26227C188.054 2.17625 191.825 0.133238 195.958 0.133238C200.134 0.133238 203.927 2.17625 207.336 6.26227C210.745 10.2595 213.429 15.8555 215.39 23.0505C217.35 30.2454 218.33 38.4175 218.33 47.5666C218.33 56.7158 217.35 64.8878 215.39 72.0827C213.429 79.2777 210.745 84.9182 207.336 89.0042C203.927 93.0014 200.134 95 195.958 95ZM195.958 84.474C199.069 84.474 201.86 82.964 204.332 79.9439C206.846 76.9238 208.806 72.6157 210.212 67.0196C211.661 61.4236 212.385 54.9392 212.385 47.5666C212.385 40.1052 211.661 33.6208 210.212 28.1136C208.806 22.5175 206.867 18.2094 204.396 15.1893C201.924 12.1692 199.112 10.6592 195.958 10.6592C192.805 10.6592 189.993 12.1692 187.521 15.1893C185.05 18.2094 183.089 22.5175 181.641 28.1136C180.234 33.6208 179.531 40.1052 179.531 47.5666C179.531 54.9392 180.234 61.4236 181.641 67.0196C183.089 72.6157 185.05 76.9238 187.521 79.9439C190.035 82.964 192.848 84.474 195.958 84.474Z" fill="url(#paint4_linear)" style="mix-blend-mode:soft-light"/>
<path d="M243.433 47.5666C243.433 38.5063 244.413 30.3787 246.373 23.1837C248.333 15.9 250.996 10.2151 254.363 6.12903C257.772 2.04301 261.543 0 265.676 0C270.534 0 274.774 2.44273 278.396 7.32819C282.018 12.2137 284.66 19.1421 286.322 28.1136H279.355C278.119 22.5175 276.33 18.2094 273.986 15.1893C271.685 12.1692 268.915 10.6592 265.676 10.6592C262.566 10.6592 259.775 12.1692 257.303 15.1893C254.832 18.2094 252.893 22.5175 251.487 28.1136C250.08 33.6208 249.377 40.1052 249.377 47.5666C249.377 54.9392 250.08 61.4236 251.487 67.0196C252.893 72.5269 254.832 76.7906 257.303 79.8107C259.775 82.8308 262.566 84.3408 265.676 84.3408C268.915 84.3408 271.685 82.8752 273.986 79.9439C276.33 76.9238 278.119 72.6157 279.355 67.0196H286.322C284.66 75.9023 282.018 82.7863 278.396 87.6718C274.774 92.4684 270.534 94.8668 265.676 94.8668C261.543 94.8668 257.772 92.8682 254.363 88.871C250.996 84.7849 248.333 79.1445 246.373 71.9495C244.413 64.7546 243.433 56.6269 243.433 47.5666Z" fill="url(#paint5_linear)" style="mix-blend-mode:soft-light"/>
<path d="M316.457 95C312.324 95 308.553 93.0014 305.144 89.0042C301.735 84.9182 299.029 79.2777 297.026 72.0827C295.066 64.799 294.086 56.6269 294.086 47.5666C294.086 38.5063 295.066 30.3787 297.026 23.1837C299.029 15.9 301.735 10.2595 305.144 6.26227C308.553 2.17625 312.324 0.133238 316.457 0.133238C320.633 0.133238 324.426 2.17625 327.835 6.26227C331.244 10.2595 333.928 15.8555 335.888 23.0505C337.849 30.2454 338.829 38.4175 338.829 47.5666C338.829 56.7158 337.849 64.8878 335.888 72.0827C333.928 79.2777 331.244 84.9182 327.835 89.0042C324.426 93.0014 320.633 95 316.457 95ZM316.457 84.474C319.568 84.474 322.359 82.964 324.831 79.9439C327.345 76.9238 329.305 72.6157 330.711 67.0196C332.16 61.4236 332.884 54.9392 332.884 47.5666C332.884 40.1052 332.16 33.6208 330.711 28.1136C329.305 22.5175 327.366 18.2094 324.894 15.1893C322.423 12.1692 319.611 10.6592 316.457 10.6592C313.304 10.6592 310.491 12.1692 308.02 15.1893C305.548 18.2094 303.588 22.5175 302.139 28.1136C300.733 33.6208 300.03 40.1052 300.03 47.5666C300.03 54.9392 300.733 61.4236 302.139 67.0196C303.588 72.6157 305.548 76.9238 308.02 79.9439C310.534 82.964 313.347 84.474 316.457 84.474Z" fill="url(#paint6_linear)" style="mix-blend-mode:soft-light"/>
<path d="M382.813 94.0673H376.997L353.602 20.1192V94.0673H347.786V1.06592H353.602L376.997 74.8808V1.06592H382.813V94.0673Z" fill="url(#paint7_linear)" style="mix-blend-mode:soft-light"/>
<path d="M408.133 95C405.193 95 402.551 93.9341 400.207 91.8022C397.906 89.5816 396.095 86.5615 394.774 82.7419C393.453 78.8336 392.771 74.3478 392.728 69.2847H398.929C399.142 73.6372 399.994 77.3235 401.485 80.3436C403.019 83.2749 405.235 84.7405 408.133 84.7405C410.903 84.7405 413.076 83.3193 414.653 80.4769C416.272 77.5456 417.081 73.8149 417.081 69.2847C417.081 65.7317 416.613 62.8448 415.675 60.6241C414.738 58.4035 413.566 56.7158 412.16 55.561C410.753 54.4063 408.857 53.1627 406.471 51.8303C403.531 50.2314 401.166 48.6325 399.376 47.0337C397.629 45.4348 396.116 42.9476 394.838 39.5722C393.602 36.108 392.984 31.489 392.984 25.7153C392.984 20.6522 393.602 16.1664 394.838 12.2581C396.074 8.34969 397.799 5.32959 400.015 3.19775C402.274 1.06592 404.852 0 407.749 0C411.925 0 415.334 2.17625 417.976 6.52875C420.661 10.8813 422.174 16.655 422.514 23.8499H416.123C415.91 20.2969 415.015 17.1879 413.438 14.5231C411.861 11.7695 409.773 10.3927 407.174 10.3927C404.745 10.3927 402.764 11.7251 401.23 14.3899C399.696 16.9659 398.929 20.6078 398.929 25.3156C398.929 28.691 399.376 31.4446 400.271 33.5764C401.208 35.7083 402.338 37.3516 403.659 38.5063C405.022 39.5722 406.918 40.8158 409.347 42.237C412.288 43.9247 414.653 45.6124 416.442 47.3001C418.232 48.899 419.766 51.4306 421.044 54.8948C422.323 58.2702 422.962 62.8892 422.962 68.7518C422.962 73.2819 422.387 77.5456 421.236 81.5428C420.086 85.54 418.381 88.7821 416.123 91.2693C413.864 93.7564 411.201 95 408.133 95Z" fill="url(#paint8_linear)" style="mix-blend-mode:soft-light"/>
<path d="M438.489 1.19916V59.9579C438.489 68.2188 439.447 74.3478 441.365 78.345C443.325 82.3422 446.031 84.3408 449.483 84.3408C452.892 84.3408 455.555 82.3422 457.472 78.345C459.433 74.3478 460.413 68.2188 460.413 59.9579V1.19916H466.229V59.8247C466.229 67.5526 465.484 74.0813 463.992 79.4109C462.501 84.6517 460.477 88.5601 457.92 91.136C455.406 93.712 452.572 95 449.419 95C446.265 95 443.41 93.712 440.854 91.136C438.339 88.5601 436.337 84.6517 434.845 79.4109C433.396 74.0813 432.672 67.5526 432.672 59.8247V1.19916H438.489Z" fill="url(#paint9_linear)" style="mix-blend-mode:soft-light"/>
<path d="M483.027 84.2076H498.623V94.0673H477.211V1.19916H483.027V84.2076Z" fill="url(#paint10_linear)" style="mix-blend-mode:soft-light"/>
<path d="M533.5 1.19916V11.0589H521.355V94.0673H515.539V11.0589H503.33V1.19916H533.5Z" fill="url(#paint11_linear)" style="mix-blend-mode:soft-light"/>
</g>
<path d="M22.8715 95C18.7381 95 14.9669 93.0014 11.5579 89.0042C8.14892 84.9182 5.44303 79.2777 3.44025 72.0827C1.48008 64.799 0.5 56.6269 0.5 47.5666C0.5 38.5063 1.48008 30.3787 3.44025 23.1837C5.44303 15.9 8.14892 10.2595 11.5579 6.26227C14.9669 2.17625 18.7381 0.133238 22.8715 0.133238C27.0475 0.133238 30.84 2.17625 34.249 6.26227C37.658 10.2595 40.3425 15.8555 42.3027 23.0505C44.2629 30.2454 45.243 38.4175 45.243 47.5666C45.243 56.7158 44.2629 64.8878 42.3027 72.0827C40.3425 79.2777 37.658 84.9182 34.249 89.0042C30.84 93.0014 27.0475 95 22.8715 95ZM22.8715 84.474C25.9822 84.474 28.7733 82.964 31.2448 79.9439C33.7589 76.9238 35.7191 72.6157 37.1253 67.0196C38.5741 61.4236 39.2985 54.9392 39.2985 47.5666C39.2985 40.1052 38.5741 33.6208 37.1253 28.1136C35.7191 22.5175 33.7802 18.2094 31.3087 15.1893C28.8372 12.1692 26.0248 10.6592 22.8715 10.6592C19.7182 10.6592 16.9058 12.1692 14.4342 15.1893C11.9627 18.2094 10.0026 22.5175 8.55373 28.1136C7.14753 33.6208 6.44442 40.1052 6.44442 47.5666C6.44442 54.9392 7.14753 61.4236 8.55373 67.0196C10.0026 72.6157 11.9627 76.9238 14.4342 79.9439C16.9484 82.964 19.7608 84.474 22.8715 84.474Z" stroke="url(#paint12_linear)"/>
<path d="M77.6581 94.0673L67.0477 56.094H60.0166V94.0673H54.2V1.19916H68.5817C71.9481 1.19916 74.7818 2.39832 77.0829 4.79664C79.4265 7.19495 81.1737 10.4371 82.3242 14.5231C83.4747 18.6092 84.05 23.2726 84.05 28.5133C84.05 34.9088 83.1551 40.5493 81.3654 45.4348C79.6183 50.3202 76.9763 53.5624 73.4395 55.1613L84.6253 94.0673H77.6581ZM60.0166 46.3675H68.5817C71.735 46.3675 74.1 44.7686 75.6767 41.5708C77.2533 38.2842 78.0416 33.9317 78.0416 28.5133C78.0416 23.0061 77.2533 18.7424 75.6767 15.7223C74.1426 12.7022 71.7776 11.1921 68.5817 11.1921H60.0166V46.3675Z" stroke="url(#paint13_linear)"/>
<path d="M121.787 1.19916V11.0589H109.643V94.0673H103.826V11.0589H91.6178V1.19916H121.787Z" stroke="url(#paint14_linear)"/>
<path d="M164.55 1.19916V94.0673H158.733V51.9635H136.042V94.0673H130.226V1.19916H136.042V41.9705H158.733V1.19916H164.55Z" stroke="url(#paint15_linear)"/>
<path d="M195.958 95C191.825 95 188.054 93.0014 184.645 89.0042C181.236 84.9182 178.53 79.2777 176.527 72.0827C174.567 64.799 173.587 56.6269 173.587 47.5666C173.587 38.5063 174.567 30.3787 176.527 23.1837C178.53 15.9 181.236 10.2595 184.645 6.26227C188.054 2.17625 191.825 0.133238 195.958 0.133238C200.134 0.133238 203.927 2.17625 207.336 6.26227C210.745 10.2595 213.429 15.8555 215.39 23.0505C217.35 30.2454 218.33 38.4175 218.33 47.5666C218.33 56.7158 217.35 64.8878 215.39 72.0827C213.429 79.2777 210.745 84.9182 207.336 89.0042C203.927 93.0014 200.134 95 195.958 95ZM195.958 84.474C199.069 84.474 201.86 82.964 204.332 79.9439C206.846 76.9238 208.806 72.6157 210.212 67.0196C211.661 61.4236 212.385 54.9392 212.385 47.5666C212.385 40.1052 211.661 33.6208 210.212 28.1136C208.806 22.5175 206.867 18.2094 204.396 15.1893C201.924 12.1692 199.112 10.6592 195.958 10.6592C192.805 10.6592 189.993 12.1692 187.521 15.1893C185.05 18.2094 183.089 22.5175 181.641 28.1136C180.234 33.6208 179.531 40.1052 179.531 47.5666C179.531 54.9392 180.234 61.4236 181.641 67.0196C183.089 72.6157 185.05 76.9238 187.521 79.9439C190.035 82.964 192.848 84.474 195.958 84.474Z" stroke="url(#paint16_linear)"/>
<path d="M243.433 47.5666C243.433 38.5063 244.413 30.3787 246.373 23.1837C248.333 15.9 250.996 10.2151 254.363 6.12903C257.772 2.04301 261.543 0 265.676 0C270.534 0 274.774 2.44273 278.396 7.32819C282.018 12.2137 284.66 19.1421 286.322 28.1136H279.355C278.119 22.5175 276.33 18.2094 273.986 15.1893C271.685 12.1692 268.915 10.6592 265.676 10.6592C262.566 10.6592 259.775 12.1692 257.303 15.1893C254.832 18.2094 252.893 22.5175 251.487 28.1136C250.08 33.6208 249.377 40.1052 249.377 47.5666C249.377 54.9392 250.08 61.4236 251.487 67.0196C252.893 72.5269 254.832 76.7906 257.303 79.8107C259.775 82.8308 262.566 84.3408 265.676 84.3408C268.915 84.3408 271.685 82.8752 273.986 79.9439C276.33 76.9238 278.119 72.6157 279.355 67.0196H286.322C284.66 75.9023 282.018 82.7863 278.396 87.6718C274.774 92.4684 270.534 94.8668 265.676 94.8668C261.543 94.8668 257.772 92.8682 254.363 88.871C250.996 84.7849 248.333 79.1445 246.373 71.9495C244.413 64.7546 243.433 56.6269 243.433 47.5666Z" stroke="url(#paint17_linear)"/>
<path d="M316.457 95C312.324 95 308.553 93.0014 305.144 89.0042C301.735 84.9182 299.029 79.2777 297.026 72.0827C295.066 64.799 294.086 56.6269 294.086 47.5666C294.086 38.5063 295.066 30.3787 297.026 23.1837C299.029 15.9 301.735 10.2595 305.144 6.26227C308.553 2.17625 312.324 0.133238 316.457 0.133238C320.633 0.133238 324.426 2.17625 327.835 6.26227C331.244 10.2595 333.928 15.8555 335.888 23.0505C337.849 30.2454 338.829 38.4175 338.829 47.5666C338.829 56.7158 337.849 64.8878 335.888 72.0827C333.928 79.2777 331.244 84.9182 327.835 89.0042C324.426 93.0014 320.633 95 316.457 95ZM316.457 84.474C319.568 84.474 322.359 82.964 324.831 79.9439C327.345 76.9238 329.305 72.6157 330.711 67.0196C332.16 61.4236 332.884 54.9392 332.884 47.5666C332.884 40.1052 332.16 33.6208 330.711 28.1136C329.305 22.5175 327.366 18.2094 324.894 15.1893C322.423 12.1692 319.611 10.6592 316.457 10.6592C313.304 10.6592 310.491 12.1692 308.02 15.1893C305.548 18.2094 303.588 22.5175 302.139 28.1136C300.733 33.6208 300.03 40.1052 300.03 47.5666C300.03 54.9392 300.733 61.4236 302.139 67.0196C303.588 72.6157 305.548 76.9238 308.02 79.9439C310.534 82.964 313.347 84.474 316.457 84.474Z" stroke="url(#paint18_linear)"/>
<path d="M382.813 94.0673H376.997L353.602 20.1192V94.0673H347.786V1.06592H353.602L376.997 74.8808V1.06592H382.813V94.0673Z" stroke="url(#paint19_linear)"/>
<path d="M408.133 95C405.193 95 402.551 93.9341 400.207 91.8022C397.906 89.5816 396.095 86.5615 394.774 82.7419C393.453 78.8336 392.771 74.3478 392.728 69.2847H398.929C399.142 73.6372 399.994 77.3235 401.485 80.3436C403.019 83.2749 405.235 84.7405 408.133 84.7405C410.903 84.7405 413.076 83.3193 414.653 80.4769C416.272 77.5456 417.081 73.8149 417.081 69.2847C417.081 65.7317 416.613 62.8448 415.675 60.6241C414.738 58.4035 413.566 56.7158 412.16 55.561C410.753 54.4063 408.857 53.1627 406.471 51.8303C403.531 50.2314 401.166 48.6325 399.376 47.0337C397.629 45.4348 396.116 42.9476 394.838 39.5722C393.602 36.108 392.984 31.489 392.984 25.7153C392.984 20.6522 393.602 16.1664 394.838 12.2581C396.074 8.34969 397.799 5.32959 400.015 3.19775C402.274 1.06592 404.852 0 407.749 0C411.925 0 415.334 2.17625 417.976 6.52875C420.661 10.8813 422.174 16.655 422.514 23.8499H416.123C415.91 20.2969 415.015 17.1879 413.438 14.5231C411.861 11.7695 409.773 10.3927 407.174 10.3927C404.745 10.3927 402.764 11.7251 401.23 14.3899C399.696 16.9659 398.929 20.6078 398.929 25.3156C398.929 28.691 399.376 31.4446 400.271 33.5764C401.208 35.7083 402.338 37.3516 403.659 38.5063C405.022 39.5722 406.918 40.8158 409.347 42.237C412.288 43.9247 414.653 45.6124 416.442 47.3001C418.232 48.899 419.766 51.4306 421.044 54.8948C422.323 58.2702 422.962 62.8892 422.962 68.7518C422.962 73.2819 422.387 77.5456 421.236 81.5428C420.086 85.54 418.381 88.7821 416.123 91.2693C413.864 93.7564 411.201 95 408.133 95Z" stroke="url(#paint20_linear)"/>
<path d="M438.489 1.19916V59.9579C438.489 68.2188 439.447 74.3478 441.365 78.345C443.325 82.3422 446.031 84.3408 449.483 84.3408C452.892 84.3408 455.555 82.3422 457.472 78.345C459.433 74.3478 460.413 68.2188 460.413 59.9579V1.19916H466.229V59.8247C466.229 67.5526 465.484 74.0813 463.992 79.4109C462.501 84.6517 460.477 88.5601 457.92 91.136C455.406 93.712 452.572 95 449.419 95C446.265 95 443.41 93.712 440.854 91.136C438.339 88.5601 436.337 84.6517 434.845 79.4109C433.396 74.0813 432.672 67.5526 432.672 59.8247V1.19916H438.489Z" stroke="url(#paint21_linear)"/>
<path d="M483.027 84.2076H498.623V94.0673H477.211V1.19916H483.027V84.2076Z" stroke="url(#paint22_linear)"/>
<path d="M533.5 1.19916V11.0589H521.355V94.0673H515.539V11.0589H503.33V1.19916H533.5Z" stroke="url(#paint23_linear)"/>
<defs>
<filter id="filter0_i" x="0" y="-0.5" width="534" height="100" filterUnits="userSpaceOnUse" color-interpolation-filters="sRGB">
<feFlood flood-opacity="0" result="BackgroundImageFix"/>
<feBlend mode="normal" in="SourceGraphic" in2="BackgroundImageFix" result="shape"/>
<feColorMatrix in="SourceAlpha" type="matrix" values="0 0 0 0 0 0 0 0 0 0 0 0 0 0 0 0 0 0 127 0" result="hardAlpha"/>
<feOffset dy="4"/>
<feGaussianBlur stdDeviation="2"/>
<feComposite in2="hardAlpha" operator="arithmetic" k2="-1" k3="1"/>
<feColorMatrix type="matrix" values="0 0 0 0 0 0 0 0 0 0 0 0 0 0 0 0 0 0 0.25 0"/>
<feBlend mode="normal" in2="shape" result="effect1_innerShadow"/>
</filter>
<linearGradient id="paint0_linear" x1="265.746" y1="-51.6637" x2="265.746" y2="148.196" gradientUnits="userSpaceOnUse">
<stop stop-color="#F50F0F"/>
<stop offset="0.0001" stop-color="white" stop-opacity="0.0416667"/>
<stop offset="0.0002" stop-color="#E5E5E5"/>
<stop offset="0.171875" stop-color="#F53030" stop-opacity="0.01"/>
<stop offset="0.197917" stop-color="#F31010" stop-opacity="0"/>
<stop offset="0.9999" stop-color="white" stop-opacity="0.0416667"/>
<stop offset="1" stop-color="#F31010" stop-opacity="0"/>
</linearGradient>
<linearGradient id="paint1_linear" x1="265.746" y1="-51.6637" x2="265.746" y2="148.196" gradientUnits="userSpaceOnUse">
<stop stop-color="#F50F0F"/>
<stop offset="0.0001" stop-color="white" stop-opacity="0.0416667"/>
<stop offset="0.0002" stop-color="#E5E5E5"/>
<stop offset="0.171875" stop-color="#F53030" stop-opacity="0.01"/>
<stop offset="0.197917" stop-color="#F31010" stop-opacity="0"/>
<stop offset="0.9999" stop-color="white" stop-opacity="0.0416667"/>
<stop offset="1" stop-color="#F31010" stop-opacity="0"/>
</linearGradient>
<linearGradient id="paint2_linear" x1="265.746" y1="-51.6637" x2="265.746" y2="148.196" gradientUnits="userSpaceOnUse">
<stop stop-color="#F50F0F"/>
<stop offset="0.0001" stop-color="white" stop-opacity="0.0416667"/>
<stop offset="0.0002" stop-color="#E5E5E5"/>
<stop offset="0.171875" stop-color="#F53030" stop-opacity="0.01"/>
<stop offset="0.197917" stop-color="#F31010" stop-opacity="0"/>
<stop offset="0.9999" stop-color="white" stop-opacity="0.0416667"/>
<stop offset="1" stop-color="#F31010" stop-opacity="0"/>
</linearGradient>
<linearGradient id="paint3_linear" x1="265.746" y1="-51.6637" x2="265.746" y2="148.196" gradientUnits="userSpaceOnUse">
<stop stop-color="#F50F0F"/>
<stop offset="0.0001" stop-color="white" stop-opacity="0.0416667"/>
<stop offset="0.0002" stop-color="#E5E5E5"/>
<stop offset="0.171875" stop-color="#F53030" stop-opacity="0.01"/>
<stop offset="0.197917" stop-color="#F31010" stop-opacity="0"/>
<stop offset="0.9999" stop-color="white" stop-opacity="0.0416667"/>
<stop offset="1" stop-color="#F31010" stop-opacity="0"/>
</linearGradient>
<linearGradient id="paint4_linear" x1="265.746" y1="-51.6637" x2="265.746" y2="148.196" gradientUnits="userSpaceOnUse">
<stop stop-color="#F50F0F"/>
<stop offset="0.0001" stop-color="white" stop-opacity="0.0416667"/>
<stop offset="0.0002" stop-color="#E5E5E5"/>
<stop offset="0.171875" stop-color="#F53030" stop-opacity="0.01"/>
<stop offset="0.197917" stop-color="#F31010" stop-opacity="0"/>
<stop offset="0.9999" stop-color="white" stop-opacity="0.0416667"/>
<stop offset="1" stop-color="#F31010" stop-opacity="0"/>
</linearGradient>
<linearGradient id="paint5_linear" x1="265.746" y1="-51.6637" x2="265.746" y2="148.196" gradientUnits="userSpaceOnUse">
<stop stop-color="#F50F0F"/>
<stop offset="0.0001" stop-color="white" stop-opacity="0.0416667"/>
<stop offset="0.0002" stop-color="#E5E5E5"/>
<stop offset="0.171875" stop-color="#F53030" stop-opacity="0.01"/>
<stop offset="0.197917" stop-color="#F31010" stop-opacity="0"/>
<stop offset="0.9999" stop-color="white" stop-opacity="0.0416667"/>
<stop offset="1" stop-color="#F31010" stop-opacity="0"/>
</linearGradient>
<linearGradient id="paint6_linear" x1="265.746" y1="-51.6637" x2="265.746" y2="148.196" gradientUnits="userSpaceOnUse">
<stop stop-color="#F50F0F"/>
<stop offset="0.0001" stop-color="white" stop-opacity="0.0416667"/>
<stop offset="0.0002" stop-color="#E5E5E5"/>
<stop offset="0.171875" stop-color="#F53030" stop-opacity="0.01"/>
<stop offset="0.197917" stop-color="#F31010" stop-opacity="0"/>
<stop offset="0.9999" stop-color="white" stop-opacity="0.0416667"/>
<stop offset="1" stop-color="#F31010" stop-opacity="0"/>
</linearGradient>
<linearGradient id="paint7_linear" x1="265.746" y1="-51.6637" x2="265.746" y2="148.196" gradientUnits="userSpaceOnUse">
<stop stop-color="#F50F0F"/>
<stop offset="0.0001" stop-color="white" stop-opacity="0.0416667"/>
<stop offset="0.0002" stop-color="#E5E5E5"/>
<stop offset="0.171875" stop-color="#F53030" stop-opacity="0.01"/>
<stop offset="0.197917" stop-color="#F31010" stop-opacity="0"/>
<stop offset="0.9999" stop-color="white" stop-opacity="0.0416667"/>
<stop offset="1" stop-color="#F31010" stop-opacity="0"/>
</linearGradient>
<linearGradient id="paint8_linear" x1="265.746" y1="-51.6637" x2="265.746" y2="148.196" gradientUnits="userSpaceOnUse">
<stop stop-color="#F50F0F"/>
<stop offset="0.0001" stop-color="white" stop-opacity="0.0416667"/>
<stop offset="0.0002" stop-color="#E5E5E5"/>
<stop offset="0.171875" stop-color="#F53030" stop-opacity="0.01"/>
<stop offset="0.197917" stop-color="#F31010" stop-opacity="0"/>
<stop offset="0.9999" stop-color="white" stop-opacity="0.0416667"/>
<stop offset="1" stop-color="#F31010" stop-opacity="0"/>
</linearGradient>
<linearGradient id="paint9_linear" x1="265.746" y1="-51.6637" x2="265.746" y2="148.196" gradientUnits="userSpaceOnUse">
<stop stop-color="#F50F0F"/>
<stop offset="0.0001" stop-color="white" stop-opacity="0.0416667"/>
<stop offset="0.0002" stop-color="#E5E5E5"/>
<stop offset="0.171875" stop-color="#F53030" stop-opacity="0.01"/>
<stop offset="0.197917" stop-color="#F31010" stop-opacity="0"/>
<stop offset="0.9999" stop-color="white" stop-opacity="0.0416667"/>
<stop offset="1" stop-color="#F31010" stop-opacity="0"/>
</linearGradient>
<linearGradient id="paint10_linear" x1="265.746" y1="-51.6637" x2="265.746" y2="148.196" gradientUnits="userSpaceOnUse">
<stop stop-color="#F50F0F"/>
<stop offset="0.0001" stop-color="white" stop-opacity="0.0416667"/>
<stop offset="0.0002" stop-color="#E5E5E5"/>
<stop offset="0.171875" stop-color="#F53030" stop-opacity="0.01"/>
<stop offset="0.197917" stop-color="#F31010" stop-opacity="0"/>
<stop offset="0.9999" stop-color="white" stop-opacity="0.0416667"/>
<stop offset="1" stop-color="#F31010" stop-opacity="0"/>
</linearGradient>
<linearGradient id="paint11_linear" x1="265.746" y1="-51.6637" x2="265.746" y2="148.196" gradientUnits="userSpaceOnUse">
<stop stop-color="#F50F0F"/>
<stop offset="0.0001" stop-color="white" stop-opacity="0.0416667"/>
<stop offset="0.0002" stop-color="#E5E5E5"/>
<stop offset="0.171875" stop-color="#F53030" stop-opacity="0.01"/>
<stop offset="0.197917" stop-color="#F31010" stop-opacity="0"/>
<stop offset="0.9999" stop-color="white" stop-opacity="0.0416667"/>
<stop offset="1" stop-color="#F31010" stop-opacity="0"/>
</linearGradient>
<linearGradient id="paint12_linear" x1="265.746" y1="-51.6637" x2="265.746" y2="148.196" gradientUnits="userSpaceOnUse">
<stop stop-color="white"/>
<stop offset="0.9998" stop-color="#E5E5E5"/>
<stop offset="0.9999" stop-color="#E5E5E5"/>
<stop offset="1" stop-color="#E5E5E5"/>
</linearGradient>
<linearGradient id="paint13_linear" x1="265.746" y1="-51.6637" x2="265.746" y2="148.196" gradientUnits="userSpaceOnUse">
<stop stop-color="white"/>
<stop offset="0.9998" stop-color="#E5E5E5"/>
<stop offset="0.9999" stop-color="#E5E5E5"/>
<stop offset="1" stop-color="#E5E5E5"/>
</linearGradient>
<linearGradient id="paint14_linear" x1="265.746" y1="-51.6637" x2="265.746" y2="148.196" gradientUnits="userSpaceOnUse">
<stop stop-color="white"/>
<stop offset="0.9998" stop-color="#E5E5E5"/>
<stop offset="0.9999" stop-color="#E5E5E5"/>
<stop offset="1" stop-color="#E5E5E5"/>
</linearGradient>
<linearGradient id="paint15_linear" x1="265.746" y1="-51.6637" x2="265.746" y2="148.196" gradientUnits="userSpaceOnUse">
<stop stop-color="white"/>
<stop offset="0.9998" stop-color="#E5E5E5"/>
<stop offset="0.9999" stop-color="#E5E5E5"/>
<stop offset="1" stop-color="#E5E5E5"/>
</linearGradient>
<linearGradient id="paint16_linear" x1="265.746" y1="-51.6637" x2="265.746" y2="148.196" gradientUnits="userSpaceOnUse">
<stop stop-color="white"/>
<stop offset="0.9998" stop-color="#E5E5E5"/>
<stop offset="0.9999" stop-color="#E5E5E5"/>
<stop offset="1" stop-color="#E5E5E5"/>
</linearGradient>
<linearGradient id="paint17_linear" x1="265.746" y1="-51.6637" x2="265.746" y2="148.196" gradientUnits="userSpaceOnUse">
<stop stop-color="white"/>
<stop offset="0.9998" stop-color="#E5E5E5"/>
<stop offset="0.9999" stop-color="#E5E5E5"/>
<stop offset="1" stop-color="#E5E5E5"/>
</linearGradient>
<linearGradient id="paint18_linear" x1="265.746" y1="-51.6637" x2="265.746" y2="148.196" gradientUnits="userSpaceOnUse">
<stop stop-color="white"/>
<stop offset="0.9998" stop-color="#E5E5E5"/>
<stop offset="0.9999" stop-color="#E5E5E5"/>
<stop offset="1" stop-color="#E5E5E5"/>
</linearGradient>
<linearGradient id="paint19_linear" x1="265.746" y1="-51.6637" x2="265.746" y2="148.196" gradientUnits="userSpaceOnUse">
<stop stop-color="white"/>
<stop offset="0.9998" stop-color="#E5E5E5"/>
<stop offset="0.9999" stop-color="#E5E5E5"/>
<stop offset="1" stop-color="#E5E5E5"/>
</linearGradient>
<linearGradient id="paint20_linear" x1="265.746" y1="-51.6637" x2="265.746" y2="148.196" gradientUnits="userSpaceOnUse">
<stop stop-color="white"/>
<stop offset="0.9998" stop-color="#E5E5E5"/>
<stop offset="0.9999" stop-color="#E5E5E5"/>
<stop offset="1" stop-color="#E5E5E5"/>
</linearGradient>
<linearGradient id="paint21_linear" x1="265.746" y1="-51.6637" x2="265.746" y2="148.196" gradientUnits="userSpaceOnUse">
<stop stop-color="white"/>
<stop offset="0.9998" stop-color="#E5E5E5"/>
<stop offset="0.9999" stop-color="#E5E5E5"/>
<stop offset="1" stop-color="#E5E5E5"/>
</linearGradient>
<linearGradient id="paint22_linear" x1="265.746" y1="-51.6637" x2="265.746" y2="148.196" gradientUnits="userSpaceOnUse">
<stop stop-color="white"/>
<stop offset="0.9998" stop-color="#E5E5E5"/>
<stop offset="0.9999" stop-color="#E5E5E5"/>
<stop offset="1" stop-color="#E5E5E5"/>
</linearGradient>
<linearGradient id="paint23_linear" x1="265.746" y1="-51.6637" x2="265.746" y2="148.196" gradientUnits="userSpaceOnUse">
<stop stop-color="white"/>
<stop offset="0.9998" stop-color="#E5E5E5"/>
<stop offset="0.9999" stop-color="#E5E5E5"/>
<stop offset="1" stop-color="#E5E5E5"/>
</linearGradient>
</defs>
</svg>
